<svg width="239" height="154" viewBox="0 0 239 154" fill="none" xmlns="http://www.w3.org/2000/svg">
<path d="M91.1485 0.99342L91.1355 0.993358L91.1225 0.993634L82.1336 1.18489H73.7192H73.5853L73.4561 1.22012L71.3498 1.79456L71.1932 1.83726L71.0582 1.92727L69.3349 3.07615L69.2201 3.15267L69.1303 3.2574L67.9815 4.59776L67.9014 4.69122L67.8463 4.80133L66.3145 7.86499L66.2632 7.96745L66.2365 8.07883L65.0876 12.8658L65.0852 12.8759L65.083 12.886L62.7853 23.4173L62.7852 23.4173L62.7837 23.4245L61.2519 30.7007L61.2517 30.7018L59.53 38.9279L59.5284 38.9354L58.5726 43.3319L58.5685 43.3505L58.5652 43.3693L57.0366 51.9676L55.5099 59.0286L55.5087 59.0342L53.9781 65.9219L53.978 65.9218L53.9753 65.9348L53.0208 70.5165L52.0667 74.5237L52.0625 74.5414L52.0589 74.5592L49.5717 86.9954L49.5697 87.0053L47.274 97.9097L47.2737 97.9109L45.5504 106.144L45.5499 106.147L44.4011 111.7L44.3905 111.751L44.3853 111.803L44.1938 113.717L44.0853 114.802L45.1753 114.817L59.3448 115.008L59.3448 115.008H59.3583L160.842 115.008L160.848 115.008L193.208 114.817L194.202 114.811V113.817V113.243V113.13L194.177 113.021L193.223 108.826L193.22 108.808L192.27 104.25L192.266 104.231L190.547 95.0615L190.547 95.0593L189.59 89.8915L189.588 89.8845L189.587 89.8775L188.824 86.062L188.821 86.0479L187.866 80.892L187.865 80.885L187.864 80.878L185.949 71.3041L185.946 71.2897L185.943 71.2753L185.373 68.8049L184.61 64.8028L184.609 64.7938L183.651 60.0068L183.65 59.999L182.696 55.42L181.932 51.0321L181.929 51.0129L181.925 50.9939L180.78 45.648L179.633 39.3444L179.632 39.334L179.629 39.3236L177.526 28.9991L177.523 28.9838L176.377 22.8718L176.376 22.8643L176.374 22.8568L174.077 11.5595L174.068 11.5176L174.056 11.4767L173.099 8.22152L173.073 8.1361L173.034 8.05647L171.885 5.75873L171.827 5.64398L171.743 5.54743L170.403 4.0156L170.315 3.9157L170.205 3.84206L168.481 2.69319L168.395 2.63543L168.298 2.59676L166.383 1.83085L166.272 1.78633L166.153 1.76937L163.473 1.38642L163.402 1.37637H163.331H161.448L161.256 1.18489H160.842H131.357H131.354L91.1485 0.99342Z" stroke="black" stroke-width="2"/>
<path d="M56.4863 8.46094H56.4409L56.3958 8.46504L54.2895 8.65652L54.2018 8.66449L54.1169 8.68765L52.0106 9.26209L51.9839 9.26939L51.9575 9.27817L49.0854 10.2356L48.9914 10.2669L48.9054 10.316L47.5651 11.0819L47.5276 11.1034L47.492 11.128L45.0028 12.8513L44.9604 12.8806L44.9212 12.9142L43.5809 14.0631L43.2317 14.3624V14.4081L43.1416 14.4982L42.3757 15.2641L42.2609 15.3789L42.1884 15.524L42.0818 15.7371H41.7817L41.4848 16.1824L41.1755 16.6464L39.7436 17.8993L39.6254 18.0028L39.5446 18.1374L38.9701 19.0948L38.9289 19.1635L38.8992 19.2379L38.7677 19.5667H38.5265L38.2297 20.012L37.858 20.5695L36.3382 22.6592L36.2472 22.7844L36.1983 22.9312L36.0432 23.3963H35.8148L35.5235 23.8818L34.9491 24.8392L34.9405 24.8535L34.9324 24.868L33.9793 26.5836L31.8775 30.214L31.8711 30.2251L31.865 30.2362L30.7162 32.3425L30.7126 32.349L30.7091 32.3556L28.7978 35.9871L27.6525 38.0869L27.5304 38.3107V38.5657V39.9061V40.7379L28.3483 40.8893L33.5182 41.8467L33.5285 41.8486L33.5388 41.8503L54.6015 45.2969L54.6237 45.3006L54.6461 45.3032L57.9013 45.6862L58.3826 45.7428L58.7252 45.4001L59.1082 45.0172L59.296 44.8294L59.3658 44.5732L60.5147 40.3607L60.5227 40.3313L60.5289 40.3015L63.3995 26.5224L63.4011 26.515L64.9314 19.4377L64.9336 19.4275L64.9356 19.4172L66.2759 12.524L66.2943 12.4294V12.3331V10.8013V10.3871L66.0014 10.0942L65.8099 9.9027L65.6371 9.72984L65.404 9.65623L61.7659 8.50735L61.6189 8.46094H61.4647H56.4863Z" stroke="black" stroke-width="2"/>
<path d="M183.984 8.47454L183.872 8.45591L183.759 8.46277L177.44 8.84573L177.365 8.85029L177.291 8.86609L174.611 9.44053L174.487 9.46713L174.373 9.5239L173.607 9.90686L173.054 10.1833V10.8013V12.1416V12.238L173.073 12.3325L174.413 19.2257L174.413 19.2258L174.416 19.2388L176.33 28.4259L176.712 30.3368L176.712 30.3368L176.714 30.3467L177.48 33.9847L177.492 34.0407L177.51 34.095L177.861 35.1499L178.04 36.5835L178.053 36.6817L178.084 36.7757L178.627 38.405L178.998 41.3704L179.002 41.4007L179.007 41.4307L179.582 44.4944L179.639 44.7984L179.857 45.0172L180.432 45.5916L180.796 45.9555L181.303 45.8709L191.638 44.1485L191.643 44.1476L208.296 41.4678L208.339 41.461L208.38 41.4506L210.678 40.8762L211.435 40.6868V39.9061V38.7572V38.5211L211.33 38.31L211.154 37.9578L210.209 35.6919L210.181 35.6245L210.144 35.562L209.573 34.6097L208.266 32.3707L207.716 31.0871L207.457 30.481H207.208L206.346 29.1015L205.802 27.8319L205.542 27.2259H205.413L205.347 27.1214L204.39 25.5896L204.096 25.1196H204.006L203.954 24.8063L203.815 23.9707H203.377L202.088 21.9446L201.793 21.4815H201.582L201.427 21.0164L201.269 20.542L200.795 20.3839L200.695 20.3506L200.661 20.2505L200.619 20.1234L200.545 20.012L199.396 18.2887L199.099 17.8434H198.978L198.888 17.7533L198.313 17.1789L198.199 17.0641L198.053 16.9916L197.84 16.885V16.7059L197.547 16.413L196.973 15.8385L196.858 15.7238L196.713 15.6512L196.5 15.5447V15.3655L196.207 15.0726L194.867 13.7323L194.824 13.69L194.777 13.6531L192.097 11.5468L192.026 11.4913L191.947 11.4493L188.692 9.72602L188.603 9.67888L188.506 9.65044L185.251 8.69305L185.193 8.67597L185.133 8.66602L183.984 8.47454Z" stroke="black" stroke-width="2"/>
<path d="M178.267 41.8213L178.65 42.3957L180.182 49.289L180.756 51.7782L181.331 54.8418L181.905 57.3311L182.288 60.2032L182.671 61.9266L183.437 65.1817L183.82 67.288L184.394 70.1601L185.16 73.0323L185.543 74.1812L185.735 75.713L186.117 76.096L186.309 74.9471H186.5L190.139 93.1376L192.245 103.286V104.435L192.819 103.86L194.351 101.754L196.074 99.8393L197.415 98.499L200.478 96.3927L203.351 95.0524L207.18 94.095L212.542 93.5205H217.137L220.584 93.9035L223.647 94.8609L225.562 96.0098L226.137 96.2012L225.945 95.2439V93.5205L226.519 93.712L226.711 93.3291V93.9035L227.285 94.095L228.434 99.0734V100.414L227.094 101.946L225.371 103.477L223.839 104.626L224.03 108.073L224.222 109.413L227.285 111.711L229.2 113.434L231.881 116.115L233.796 118.604L235.328 121.093L236.668 123.774L237.625 126.646L238.2 129.902V133.54L237.625 136.986L236.668 140.05L234.945 143.688L233.221 145.986L231.115 148.475L230.349 149.241H229.966L229.775 148.666L229.392 144.837L228.434 139.284L227.285 135.646L226.137 132.391L224.03 128.37L222.498 126.455L220.967 125.115L218.669 123.966L216.563 123.391H213.499L211.01 124.157L209.286 125.306L207.946 126.646L206.414 129.136L205.457 131.625L205.265 132.965V136.795L205.84 139.858L206.414 142.539L206.989 146.943L207.18 150.007V152.879L206.031 152.687L202.202 150.581L199.904 148.858L197.989 147.135L196.074 145.22L193.968 142.156L192.436 139.092L191.479 136.029L190.904 132.774V129.327L191.479 125.689L192.436 122.817L193.968 119.753L195.5 117.455L197.415 115.349L197.606 114.966H197.989L198.372 114.2L198.755 113.626L198.372 110.562L198.181 109.796L193.202 109.222L193.777 111.903L193.585 113.626L192.819 114.009H186.5V113.817H192.436L191.67 110.945L190.33 104.435L189.181 98.3075L188.415 94.095L187.075 86.8188L186.117 82.2233L184.969 76.2875L183.82 70.5431L182.862 65.9476L181.905 61.1606L180.948 56.1822L180.182 52.3526L179.033 46.4168L178.267 42.7787V41.8213ZM212.924 98.499L209.095 98.882L205.648 99.8393L202.585 101.18L198.947 103.477L198.755 103.669V105.392L199.904 111.711L200.287 113.626L200.478 114.009L199.521 115.158L197.223 117.455L195.5 119.945L193.777 123.2L192.628 127.029L192.245 129.327V133.157L193.011 136.795L194.16 139.667L195.5 142.156L197.415 144.645L199.138 146.56L201.627 148.666L205.074 150.773L205.84 151.156V148.666L205.265 144.262L204.691 141.965L202.202 138.327L201.053 135.837L200.287 132.582V128.753L201.244 125.689L202.585 123.008L203.925 121.285L206.031 119.179L208.712 117.455L211.201 116.498L213.307 116.115H216.371L219.626 116.881L222.307 118.221L224.03 119.562L225.562 120.902L227.285 123.2L229.009 126.455L229.583 128.944V133.157L229.2 135.071V136.986L230.158 141.199L230.924 146.369L231.498 146.177L233.604 143.114L235.136 140.241L236.476 136.22L236.859 133.923V129.71L235.902 125.689L234.945 123.391L233.413 120.519L232.072 118.604L230.349 116.498L228.434 114.392L226.328 112.668L223.647 110.562L222.881 110.371L222.498 106.158L221.924 100.605L221.35 99.6479L218.286 98.882L215.605 98.499H212.924Z" fill="#161414"/>
<path d="M28.5303 37.7998L28.7218 38.1828L28.5303 40.0975L26.0411 44.8845L24.5093 47.5652L21.4456 53.6925L19.7223 61.3517L16.0842 78.0103L12.6376 93.7116L12.0632 96.0093L11.8717 96.3923L12.6376 96.0093L14.5524 94.8605L16.6586 94.0946L18.5734 93.7116L20.4882 93.5201H24.8922L30.8281 94.0946L34.2747 94.8605L37.3384 96.2008L39.2531 97.3497L41.9338 99.456L43.6572 101.371L44.9975 103.286L45.189 104.434H44.806L45.189 106.924L45.5719 108.264L45.3805 108.647L44.806 108.838L44.4231 109.796L44.2316 109.221L40.0191 109.796L39.6361 112.285V114.008L41.7424 116.115L44.0401 119.37L45.5719 122.242L46.7208 125.497L47.2952 128.561V133.156L46.5293 137.177L44.9975 141.007L43.4657 143.496L41.9338 145.411L40.2105 147.326L37.7213 149.432L34.6576 151.347L31.4025 153.07H31.0196L31.211 148.092L31.9769 141.773L32.9343 137.369V132.582L32.3599 130.284L30.8281 127.22L29.2962 125.497L27.19 124.157L25.8496 123.582L24.8922 123.391H21.6371L18.5734 124.348L16.4672 125.689L14.9353 127.412L13.4035 129.901L11.8717 133.156L9.95689 138.901L9.19098 142.539L8.42506 149.432L7.46767 148.857L6.12732 147.326L4.59549 145.411L2.87218 142.73L1.53183 139.858L0.574436 136.603L0 132.582L0.191479 129.135L0.957394 125.497L2.10627 122.625L3.44662 120.136L5.93584 116.689L8.61654 113.817L10.9143 111.711L13.9779 109.413L14.3609 106.541V104.626L11.8717 102.52L10.3399 101.179L9.76542 100.413L9.95689 98.69L11.6802 91.0309L14.7439 77.0529L19.7223 54.267L20.2967 52.3522L22.5945 48.1397L24.8922 43.7356L27.19 39.5231L27.9559 38.1828L28.5303 37.7998ZM23.3604 98.4986L19.1479 99.073L16.6586 99.8389L16.2757 100.988L15.3183 110.179L12.2546 112.477L10.1484 114.2L8.04211 116.306L6.3188 118.412L4.40401 121.285L2.87218 124.348L1.91479 127.22L1.53183 128.944L1.34035 130.667V133.348L1.91479 136.986L3.06366 140.241L4.59549 143.113L6.89323 146.368L7.27619 145.794L8.42506 139.284L8.9995 136.986V134.88L8.61654 132.199V129.327L9.38246 126.263L10.9143 123.199L12.4461 121.285L14.5524 119.178L17.2331 117.455L19.7223 116.498L21.8286 116.115H24.8922L28.1474 116.881L30.8281 118.221L33.7003 120.519L35.615 123.008L37.1469 126.072L37.7213 127.795L38.1043 129.901L37.9128 132.965L37.1469 136.028L35.615 139.092L33.7003 141.773L33.1258 143.496L32.5514 147.517L32.3599 151.155L34.4662 150.006L36.7639 148.475L39.2531 146.368L40.5935 145.028L42.6998 142.156L44.4231 138.901L45.5719 135.454L46.1464 131.816L45.9549 128.561L45.189 125.114L44.2316 122.625L42.5083 119.37L40.402 116.689L38.1043 114.391H37.7213L38.8702 108.838L39.6361 104.626L39.4446 103.668L37.7213 102.328L34.0832 100.413L30.0622 99.073L27.9559 98.69L25.6581 98.4986H23.3604Z" fill="#171414"/>
<path d="M148.396 1.03589H165.629L168.118 1.99328L170.033 3.14215L171.565 4.48251L172.905 6.39729L174.054 8.69504L174.246 9.84391L176.735 9.078L179.224 8.69504H183.054L185.734 9.078L188.798 10.0354L191.479 11.3757L193.585 12.9076L195.5 14.6309L197.989 17.1201L199.712 19.2264L201.819 22.0986L203.925 25.5452L206.223 29.3747L208.329 33.0128L210.818 37.6083L214.073 43.7356L216.371 47.9482L218.86 52.7351L219.626 55.6073L223.647 73.9893L227.86 93.1372V93.9031L226.902 93.7116L226.519 94.286L224.605 85.6695L222.881 77.6274L220.583 67.2875L218.477 57.3306L217.328 52.9266L214.456 47.5652L212.158 43.1612L210.435 40.0976L210.052 38.3742L209.095 36.0765L208.52 35.1191L207.563 33.3958L206.988 32.6299L206.797 31.481H206.414L205.265 29.5662L204.882 28.2259H204.499L203.542 26.5026V26.1196H203.159L202.967 24.9707H202.584L201.436 23.0559L201.244 22.4815H200.861L200.287 21.3326L199.329 20.3752L198.563 19.2264V18.8434H198.18L197.223 17.6945L193.776 14.2479L190.521 11.9502L187.649 10.6098L184.585 9.65243L177.501 10.0354L174.246 10.8013V12.1417L176.735 24.5878L177.501 28.2259L177.884 30.1407L178.841 34.7361L179.033 34.9276L179.607 37.9913L179.799 38.1828L180.181 41.2464L180.756 44.3101V44.693H181.139L182.671 51.9692L187.075 74.1808V76.0956L186.692 76.4785L186.117 75.1382V73.9893L185.543 72.6489L184.968 70.1597L184.011 65.5642L182.671 58.8625L182.096 55.6073L181.522 53.3096L181.139 51.0118L179.799 45.076L179.033 41.8209L178.458 39.5231L176.352 29.1833L174.246 18.269L172.522 10.2269L171.373 7.16321L170.225 5.4399L169.65 5.05694V4.67398L168.693 4.29103L167.161 3.33363L166.012 2.95068V2.56772L161.608 2.18476L160.076 1.99328H153.183L151.843 1.8018H150.119L148.779 1.61032L148.396 1.03589Z" fill="#181616"/>
<path d="M148.396 1.03589H165.629L168.118 1.99328L170.033 3.14215L171.565 4.48251L172.905 6.39729L174.054 8.69504V9.84391L173.097 9.078V8.50356H172.714L173.288 10.2269L174.246 12.1417L176.735 24.5878L177.501 28.2259L177.884 30.1407L178.841 34.7361L179.033 34.9276L179.607 37.9913L179.799 38.1828L180.181 41.2464L180.756 44.3101V44.693H181.139L182.671 51.9692L187.075 74.1808V76.0956L186.692 76.4785L186.117 75.1382V73.9893L185.543 72.6489L184.968 70.1597L184.011 65.5642L182.671 58.8625L182.096 55.6073L181.522 53.3096L181.139 51.0118L179.799 45.076L179.033 41.8209L178.458 39.5231L176.352 29.1833L174.246 18.269L172.522 10.2269L171.373 7.16321L170.225 5.4399L169.65 5.05694V4.67398L168.693 4.29103L167.161 3.33363L166.012 2.95068V2.56772L161.608 2.18476L160.076 1.99328H153.183L151.843 1.8018H150.119L148.779 1.61032L148.396 1.03589Z" fill="#110F11"/>
<path d="M65.4859 10.9929L66.4433 11.1844L66.2518 13.0992L63.7626 24.5879L61.6563 34.5448L60.3159 41.2466L59.7415 43.5443L59.1671 45.0761L58.7841 46.0335L58.2097 48.9057L58.0182 51.012L57.6352 52.1609L57.4438 54.2671L57.0608 54.8416L56.6778 57.3308L56.2949 58.2882L55.9119 60.0115L55.529 61.1604L55.146 63.2666L54.7631 63.6496L54.5716 65.7558L54.3801 66.1388H53.9971V67.6706L53.8057 68.8195L53.4227 69.011L53.2312 71.6917L53.0397 72.0746H52.6568V73.032L51.8909 73.6065L52.2738 71.1172L55.7204 54.6501L57.8267 45.0761L58.5926 42.9699L59.7415 38.3744L61.6563 28.9919L63.3796 20.7583L64.5285 15.5884L65.1029 12.3333L65.4859 10.9929Z" fill="#121011"/>
<path d="M178.267 41.8213L178.65 42.3957L180.182 49.289L180.756 51.7782L181.331 54.8418L181.905 57.3311L182.288 60.2032L182.671 61.9266L183.437 65.1817L183.82 67.288L184.394 70.1601L185.16 73.0323L185.543 74.1812L185.735 75.713L186.117 76.096L186.309 74.9471H186.5L190.139 93.1376L190.713 95.8183V96.7757L190.33 96.9672L190.521 98.882H190.904V101.18L189.947 100.988L189.564 100.414L188.798 95.8183L187.841 91.2228L187.075 86.8188L186.117 82.2233L184.969 76.2875L183.82 70.5431L182.862 65.9476L181.905 61.1606L180.948 56.1822L180.182 52.3526L179.033 46.4168L178.267 42.7787V41.8213Z" fill="#1E1C1D"/>
<path d="M148.396 1.03589H165.629L168.118 1.99328L170.033 3.14215L171.565 4.48251L172.905 6.39729L174.054 8.69504V9.84391L173.097 9.078V8.50356H172.714L172.905 9.26947L172.522 9.46095L172.139 7.92912L171.756 7.16321L169.842 5.24842L169.65 4.67398L168.693 4.29103L167.161 3.33363L166.012 2.95068V2.56772L161.608 2.18476L160.076 1.99328H153.183L151.843 1.8018H150.119L148.779 1.61032L148.396 1.03589Z" fill="#0F0D0F"/>
<path d="M172.714 8.50342H173.097L173.48 9.07785L174.246 9.46081V9.84377L176.735 9.07785L179.224 8.6949H183.054L185.734 9.07785L188.798 10.0352L191.479 11.3756L193.585 12.9074L195.5 14.6307L197.989 17.12L199.712 19.2262L201.244 21.3325L201.053 21.9069L199.904 20.3751L198.181 18.2688L193.968 14.0563L192.628 13.0989L191.67 12.716L189.755 11.5671L187.649 10.6097L184.586 9.65229L177.501 10.0352L174.246 10.8012L174.054 11.7586L173.48 10.9926L172.714 9.26933V8.50342Z" fill="#151315"/>
<path d="M0.382812 131.625L0.574291 132.199H0.957249L1.14873 131.816L1.53168 133.348L2.10612 136.986L3.25499 140.241L4.78682 143.113L6.70161 145.794L7.08457 146.751L7.46753 147.326L8.23344 147.517V149.049L7.46753 148.858L6.12717 147.326L4.59535 145.411L2.87204 142.73L1.53168 139.858L0.574291 136.603L0.382812 135.646V131.625Z" fill="#151313"/>
<path d="M44.0401 14.0566L44.423 14.2481L43.4656 15.397L42.5082 16.1629L42.6997 16.7373H42.3168L41.9338 17.5033L41.3594 18.0777H40.9764L40.7849 18.6521H40.402L40.019 19.6095L39.4446 20.5669H39.0616L38.6787 21.3328L36.9554 24.0135L36.7639 24.3965H36.3809L36.1894 25.1624L35.2321 26.5028L34.2747 28.4175L31.9769 32.2471L30.2536 35.8852L28.7218 38.5659L28.5303 37.9915L28.1473 38.183L28.5303 37.0341L31.0195 32.4386L34.0832 27.2687L36.7639 22.8647L39.0616 19.6095L40.7849 17.5033L43.8486 14.2481L44.0401 14.0566Z" fill="#1D1B1B"/>
<path d="M191.479 102.328H191.862V103.477L192.053 104.243L192.628 104.434L192.245 104.626L192.628 106.349L193.011 106.924L193.202 107.307V108.838L193.777 109.03H195.308V109.221H193.968L194.542 111.902L194.351 113.625L193.585 114.008H187.266V113.817H193.202L192.436 110.945L191.096 104.434L190.904 102.903L191.479 102.711V102.328Z" fill="#1F1C1D"/>
<path d="M56.2947 8.69507H59.7413L61.4646 8.88655L61.6561 9.2695L57.4436 9.46098L53.614 10.0354L50.5504 10.9928L48.827 11.7587L46.9123 12.9076L45.3804 14.0565H44.9975L44.6145 14.8224H44.2316V15.2053L42.8912 16.3542L42.3168 16.1627L42.8912 15.9713L43.0827 15.3968L43.8486 14.6309H44.2316L44.6145 13.6735L46.7208 11.9502L49.7844 10.2269L52.6566 9.2695L56.2947 8.69507Z" fill="#171516"/>
<path d="M192.245 12.908L193.202 13.2909L195.5 15.3972L198.755 18.6523L199.329 19.4182V19.8012L199.904 19.9927L201.053 21.716L201.436 21.5245L203.733 25.1626L206.223 29.3751L207.563 31.6729L207.18 31.8644L208.329 33.7791L208.137 34.3536L207.563 33.3962L206.989 32.6303L206.797 31.4814H206.414L205.265 29.5666L204.882 28.2263H204.499L203.542 26.5029V26.12H203.159L202.968 24.9711H202.585L201.436 23.0563L201.244 22.4819H200.861L200.287 21.333L199.329 20.3756L198.564 19.2268V18.8438H198.181L197.223 17.6949L193.777 14.2483L192.245 13.0994V12.908Z" fill="#1C1A1B"/>
<path d="M33.5087 28.4172H33.7002L33.5087 29.7576L31.9769 32.2468L30.2536 35.8849L28.7218 38.5656L28.5303 37.9912L28.1473 38.1827L28.5303 37.0338L31.0195 32.4383L33.3173 28.6087L33.5087 28.4172Z" fill="#1E1B1C"/>
<path d="M48.2528 91.9885L48.6358 92.18V93.5204L48.2528 93.7118L48.0613 96.2011L47.6784 97.3499L47.2954 99.6477L46.5295 100.797H46.338V99.0732L47.6784 92.7544L48.2528 91.9885Z" fill="#151212"/>
<path d="M189.755 90.0735L190.33 90.265L191.479 95.8178V96.7752L190.713 96.9667L189.755 93.3286L189.564 92.7542L189.372 90.4564L189.755 90.0735Z" fill="#191C21"/>
<path d="M8.80801 127.412L9.19096 128.178L9.95688 128.752L9.7654 131.816L9.38244 131.433V133.156L8.99949 134.88H8.80801L8.42505 132.199V129.327L8.80801 127.412Z" fill="#242527"/>
<path d="M192.245 12.908L193.202 13.2909L195.5 15.3972L198.755 18.6523L199.329 19.4182V19.8012L199.904 19.9927L201.053 21.716L201.436 21.5245L201.819 22.4819V22.8649L202.776 24.2052V24.7796H203.159L203.351 25.737L202.968 25.5456V24.9711H202.585L201.436 23.0563L201.244 22.4819H200.861L200.287 21.333L199.329 20.3756L198.564 19.2268V18.8438H198.181L197.223 17.6949L193.777 14.2483L192.245 13.0994V12.908Z" fill="#1F1C1D"/>
<path d="M53.6142 66.5222L53.9971 66.9052L53.8057 68.82L53.4227 69.0114L53.2312 71.6921L53.0397 72.0751H52.6568V73.0325L51.8909 73.6069L52.2738 71.1177L53.2312 66.7137L53.6142 66.5222Z" fill="#1A1615"/>
<path d="M0.191479 129.135L1.14887 129.709L1.53183 129.326L1.34035 132.965L0.957394 132.199H0.574436L0.382957 134.496H0.191479L0 131.433L0.191479 129.135Z" fill="#242529"/>
<path d="M36.3808 23.4392L36.9553 23.6307L36.7638 24.3966H36.3808L36.1894 25.1625L35.232 26.5029L34.2746 28.4177L33.7001 28.9921L33.5087 28.2262L35.8064 24.3966L36.3808 23.4392Z" fill="#1E1C1C"/>
<path d="M61.656 9.07837L63.1878 9.26985L65.2941 9.84428L65.4856 9.26985V10.0358L64.5282 10.2272L64.1452 10.4187L61.4645 9.65281L57.4435 9.46133V9.26985L61.656 9.07837Z" fill="#252121"/>
<path d="M188.798 83.7549L189.181 84.5208L189.756 87.393V88.3504H189.373L188.99 87.01L188.607 86.4356L188.224 84.3293L188.798 83.7549Z" fill="#1F1F21"/>
<path d="M44.0403 14.0566L44.4233 14.2481L43.4659 15.397L42.5085 16.1629L42.7 16.7373H42.317L41.9341 17.5033L41.3596 18.0777L40.4022 18.4607L40.5937 17.6947L41.9341 16.3544L43.2744 14.8226L44.0403 14.0566Z" fill="#1B191A"/>
<path d="M186.5 72.2661H186.692L187.075 74.1809V76.0957L186.692 76.4786L186.117 75.1383V73.415L186.5 72.2661Z" fill="#171515"/>
<path d="M71.4214 1.41895H72.3788L71.9959 1.8019L70.464 2.56782L68.1663 4.86556L67.7833 4.29113L68.5492 3.71669L69.3152 2.56782L71.4214 1.41895Z" fill="#111012"/>
<path d="M22.9773 121.668H24.8921L26.8069 122.434V122.817L26.2324 123.008L23.5517 122.434L23.3603 122.051H22.9773V121.668Z" fill="#141C25"/>
<path d="M172.714 8.50342H173.097L173.48 9.07785L174.246 9.46081V9.84377L174.629 10.0352H174.246V10.4182L174.82 10.6097L174.246 10.8012L174.054 11.7586L173.48 10.9926L172.714 9.26933V8.50342Z" fill="#1F1C1D"/>
<path d="M29.4878 35.3105H29.8708L29.6793 37.0339L28.7219 38.5657L28.5304 37.9912L28.1475 38.1827L28.5304 37.0339L29.4878 35.3105Z" fill="#1C191A"/>
<path d="M51.6993 74.9473L51.8907 75.7132V77.4365H51.3163L51.1248 78.5854H50.9333V76.8621L51.3163 75.1387L51.6993 74.9473Z" fill="#191514"/>
<path d="M43.274 113.817L43.8485 114.009L44.04 114.392L44.6144 114.583V114.966H48.444V115.157H43.274V113.817Z" fill="#201D1E"/>
<path d="M53.6138 66.5222L53.9968 66.9052L53.8053 68.82L52.8479 69.3944L53.0394 67.4796L53.2309 66.7137L53.6138 66.5222Z" fill="#181414"/>
<path d="M31.4024 32.8218V33.3962L29.8706 36.4599L29.6791 35.8854L29.8706 34.5451L30.6365 33.5877L31.4024 32.8218Z" fill="#201D1D"/>
<path d="M201.436 22.4817L202.202 22.6732L204.499 26.5027L204.308 27.0772L203.159 25.3539V24.7794H202.776L201.819 23.0561L201.436 22.4817Z" fill="#181618"/>
<path d="M45.189 13.0991L45.5719 13.2906L45.189 13.6736L45.3804 14.0565H44.9975L44.6145 14.8224H44.2316V15.2054L42.8912 16.3543L42.3168 16.1628L42.8912 15.9713L43.0827 15.3969L43.8486 14.631H44.2316L44.6145 13.6736L45.189 13.0991Z" fill="#181617"/>
<path d="M190.521 100.797L191.67 101.18V102.903L191.287 103.094L190.713 102.711L190.521 100.797Z" fill="#171516"/>
<path d="M40.2105 18.0776H40.785V18.6521H40.402L40.0191 19.6095L39.4446 20.5669L38.6787 20.7583V20.1839L40.2105 18.0776Z" fill="#201D1D"/>
<path d="M187.841 79.7339L188.224 79.9254L188.415 80.6913V82.6061L188.032 82.7975L187.649 81.6487L187.841 79.7339Z" fill="#181514"/>
<path d="M208.329 34.3535L209.095 35.1194L210.435 37.6087V38.7575L210.052 38.3746L209.095 36.0768L208.521 35.1194L208.329 34.3535Z" fill="#1F1C1D"/>
<path d="M48.2525 91.9885L48.6354 92.18V93.5204L47.8695 93.9033L47.4866 94.4777L47.6781 92.7544L48.2525 91.9885Z" fill="#191615"/>
<path d="M31.7855 31.0981H32.1684V32.0555L31.7855 32.8215L30.6366 33.9703L30.8281 32.8215L31.7855 31.0981Z" fill="#1C191A"/>
<path d="M189.755 88.3503H189.947L190.138 90.0737L189.564 90.2651L189.181 90.0737L188.99 88.7333H189.564L189.755 88.3503Z" fill="#1D1F23"/>
<path d="M187.075 76.4788L187.649 77.0532V78.968H187.075L186.883 77.6276L187.075 77.0532V76.4788Z" fill="#131011"/>
<path d="M190.904 97.3496H191.096L191.287 98.8814H191.67V101.179L191.287 100.988L190.904 99.0729V97.3496Z" fill="#141C25"/>
<path d="M187.649 77.8188H187.841L188.032 79.7336L187.841 80.691H187.458L187.266 80.3081V79.1592L187.649 77.8188Z" fill="#202226"/>
<path d="M36.3809 23.4392L36.9553 23.6307L36.7638 24.3966H36.3809L36.1894 25.1625L35.6149 25.737L35.4235 24.971L36.3809 23.4392Z" fill="#211E1E"/>
<path d="M189.756 90.0735L190.33 90.265L190.522 91.2224V92.9457L190.139 92.3712L189.756 90.4564V90.0735Z" fill="#1A1615"/>
<path d="M206.988 30.9067L207.563 31.6727L207.18 31.8641L208.329 33.7789L208.137 34.3534L207.563 33.396L206.988 32.63L206.797 31.6727L206.988 30.9067Z" fill="#1F1C1D"/>
<path d="M44.0401 14.0566L44.423 14.2481L43.4656 15.397L42.3168 16.3544V15.7799L44.0401 14.0566Z" fill="#1F1D1D"/>
<path d="M50.5504 79.3508H50.9333V81.0741H50.5504L50.3589 81.8401V80.1167L50.5504 79.3508Z" fill="#1E1917"/>
<path d="M171.373 6.78052L172.331 7.54643L172.522 9.6527L172.139 9.07826L171.373 7.16348V6.78052Z" fill="#1E1B1C"/>
</svg>
