<svg width="239" height="384" viewBox="0 0 239 384" 
fill="none" xmlns="http://www.w3.org/2000/svg">
<path fill="#000033" d="M91.1485 115.993L91.1355 115.993L91.1225 115.994L82.1336 116.185H73.7192H73.5853L73.4561 116.22L71.3498 116.795L71.1932 116.837L71.0582 116.927L69.3349 118.076L69.2201 118.153L69.1303 118.257L67.9815 119.598L67.9014 119.691L67.8463 119.801L66.3145 122.865L66.2632 122.967L66.2365 123.079L65.0876 127.866L65.0852 127.876L65.083 127.886L62.7853 138.417L62.7852 138.417L62.7837 138.424L61.2519 145.701L61.2517 145.702L59.53 153.928L59.5284 153.935L58.5726 158.332L58.5685 158.35L58.5652 158.369L57.0366 166.968L55.5099 174.029L55.5087 174.034L53.9781 180.922L53.978 180.922L53.9753 180.935L53.0208 185.516L52.0667 189.524L52.0625 189.541L52.0589 189.559L49.5717 201.995L49.5697 202.005L47.274 212.91L47.2737 212.911L45.5504 221.144L45.5499 221.147L44.4011 226.7L44.3905 226.751L44.3853 226.803L44.1938 228.717L44.0853 229.802L45.1753 229.817L59.3448 230.008L59.3448 230.008H59.3583L160.842 230.008L160.848 230.008L193.208 229.817L194.202 229.811V228.817V228.243V228.13L194.177 228.021L193.223 223.826L193.22 223.808L192.27 219.25L192.266 219.231L190.547 210.061L190.547 210.059L189.59 204.892L189.588 204.885L189.587 204.878L188.824 201.062L188.821 201.048L187.866 195.892L187.865 195.885L187.864 195.878L185.949 186.304L185.946 186.29L185.943 186.275L185.373 183.805L184.61 179.803L184.609 179.794L183.651 175.007L183.65 174.999L182.696 170.42L181.932 166.032L181.929 166.013L181.925 165.994L180.78 160.648L179.633 154.344L179.632 154.334L179.629 154.324L177.526 143.999L177.523 143.984L176.377 137.872L176.376 137.864L176.374 137.857L174.077 126.56L174.068 126.518L174.056 126.477L173.099 123.222L173.073 123.136L173.034 123.056L171.885 120.759L171.827 120.644L171.743 120.547L170.403 119.016L170.315 118.916L170.205 118.842L168.481 117.693L168.395 117.635L168.298 117.597L166.383 116.831L166.272 116.786L166.153 116.769L163.473 116.386L163.402 116.376H163.331H161.448L161.256 116.185H160.842H131.357H131.354L91.1485 115.993Z" stroke="black" stroke-width="2"/>
<path d="M52.4652 299.047H51.6454L51.4846 299.851L51.2931 300.809L51.2737 300.906V301.005V352.321V352.735L51.5666 353.028L51.7581 353.22L52.0509 353.513H52.4652H112.589H113.576L113.589 352.526L113.781 338.165H113.781V338.152V323.025H113.781L113.781 323.013L113.589 306.546L113.586 306.269L113.441 306.034L111.981 303.661L110.87 299.773L110.663 299.047H109.909H52.4652Z" stroke="black" stroke-width="2"/>
<path d="M129.056 299.047H128.642L128.349 299.34L128.158 299.532L127.949 299.741L127.887 300.029L127.335 302.608L126.645 304.159L125.544 305.811L125.457 305.941L125.414 306.091L125.031 307.432L124.993 307.566V307.707V352.321V352.735L125.286 353.028L125.477 353.22L125.77 353.513H126.184H186.117H186.531L186.824 353.22L187.016 353.028L187.309 352.735V352.321V300.239V299.825L187.016 299.532L186.824 299.34L186.531 299.047H186.117H129.056Z" stroke="black" stroke-width="2"/>
<path d="M52.6566 244.667H52.2424L51.9495 244.96L51.7581 245.152L51.481 245.429L51.4659 245.821L51.2744 250.799L51.2737 250.818V250.837V297.175V297.274L51.2931 297.371L51.4846 298.329L51.6454 299.133H52.4652H109.909H110.323L110.616 298.84L110.807 298.648L111.1 298.355V297.941L111.1 272.666L111.1 272.658L110.909 247.957L110.908 247.916L110.905 247.875L110.713 245.768L110.68 245.408L110.424 245.152L110.233 244.96L109.94 244.667H109.526H52.6566Z" stroke="black" stroke-width="2"/>
<path d="M129.248 244.667H129.012L128.801 244.773L128.418 244.965L127.865 245.241V245.859V297.941V298.355L128.158 298.648L128.35 298.84L128.642 299.133H129.057H185.926H186.162L186.373 299.027L186.756 298.836L187.309 298.559V297.941V245.859V245.445L187.016 245.152L186.825 244.96L186.532 244.667H186.117H129.248Z" stroke="black" stroke-width="2"/>
<path d="M59.3584 229.349H59.3445L59.3306 229.35L52.4374 229.541L51.8386 229.558L51.5707 230.093L51.3793 230.476L51.2737 230.687V230.924V243.37V243.784L51.5666 244.077L51.7581 244.268L52.0509 244.561H52.4652H186.5H186.914L187.207 244.268L187.399 244.077L187.692 243.784V243.37V230.924V230.687L187.586 230.476L187.395 230.093L187.121 229.545L186.508 229.541L160.467 229.349V229.349H160.459H59.3584Z" stroke="black" stroke-width="2"/>
<path d="M126.184 353.619H125.77L125.477 353.912L125.286 354.103L124.993 354.396V354.81V381.809V382.223L125.286 382.516L125.477 382.707L125.77 383H126.184H186.309H187.309V382V354.619V353.619H186.309H126.184Z" stroke="black" stroke-width="2"/>
<path d="M52.4652 353.619H52.0509L51.7581 353.912L51.5666 354.103L51.2737 354.396V354.81V381.809V382.223L51.5666 382.516L51.7581 382.707L52.0509 383H52.4652H112.589H113.589V382V354.619V353.619H112.589H52.4652Z" stroke="black" stroke-width="2"/>
<path d="M111.823 244.667H111.409L111.116 244.96L110.925 245.152L110.632 245.445V245.859L110.632 262.901L110.632 262.906L110.823 296.032L110.823 296.047L110.824 296.061L111.015 301.614L111.019 301.719L111.045 301.822L111.236 302.588L111.258 302.676L111.296 302.759L112.253 304.865L112.316 305.003L112.416 305.116L113.948 306.839L114.05 306.954L114.181 307.032L116.096 308.181L116.223 308.258L116.368 308.294L118.665 308.868L118.826 308.908L118.991 308.895L121.289 308.703L121.462 308.689L121.62 308.617L123.726 307.66L123.863 307.597L123.976 307.497L125.7 305.965L125.775 305.898L125.835 305.817L126.984 304.286L127.073 304.167L127.124 304.027L127.89 301.921L127.945 301.769L127.95 301.608L128.141 294.906L128.142 294.892V294.878L128.142 287.218L128.142 287.214L127.95 245.663L127.946 244.667H126.95H111.823Z" stroke="black" stroke-width="2"/>
<path d="M56.4863 123.461H56.4409L56.3958 123.465L54.2895 123.657L54.2018 123.664L54.1169 123.688L52.0106 124.262L51.9839 124.269L51.9575 124.278L49.0854 125.236L48.9914 125.267L48.9054 125.316L47.5651 126.082L47.5276 126.103L47.492 126.128L45.0028 127.851L44.9604 127.881L44.9212 127.914L43.5809 129.063L43.2317 129.362V129.408L43.1416 129.498L42.3757 130.264L42.2609 130.379L42.1884 130.524L42.0818 130.737H41.7817L41.4848 131.182L41.1755 131.646L39.7436 132.899L39.6254 133.003L39.5446 133.137L38.9701 134.095L38.9289 134.164L38.8992 134.238L38.7677 134.567H38.5265L38.2297 135.012L37.858 135.569L36.3382 137.659L36.2472 137.784L36.1983 137.931L36.0432 138.396H35.8148L35.5235 138.882L34.9491 139.839L34.9405 139.853L34.9324 139.868L33.9793 141.584L31.8775 145.214L31.8711 145.225L31.865 145.236L30.7162 147.342L30.7126 147.349L30.7091 147.356L28.7978 150.987L27.6525 153.087L27.5304 153.311V153.566V154.906V155.738L28.3483 155.889L33.5182 156.847L33.5285 156.849L33.5388 156.85L54.6015 160.297L54.6237 160.301L54.6461 160.303L57.9013 160.686L58.3826 160.743L58.7252 160.4L59.1082 160.017L59.296 159.829L59.3658 159.573L60.5147 155.361L60.5227 155.331L60.5289 155.301L63.3995 141.522L63.4011 141.515L64.9314 134.438L64.9336 134.427L64.9356 134.417L66.2759 127.524L66.2943 127.429V127.333V125.801V125.387L66.0014 125.094L65.8099 124.903L65.6371 124.73L65.404 124.656L61.7659 123.507L61.6189 123.461H61.4647H56.4863Z" stroke="black" stroke-width="2"/>
<path d="M183.984 123.475L183.872 123.456L183.759 123.463L177.44 123.846L177.365 123.85L177.291 123.866L174.611 124.441L174.487 124.467L174.373 124.524L173.607 124.907L173.054 125.183V125.801V127.142V127.238L173.073 127.333L174.413 134.226L174.413 134.226L174.416 134.239L176.33 143.426L176.712 145.337L176.712 145.337L176.714 145.347L177.48 148.985L177.492 149.041L177.51 149.095L177.861 150.15L178.04 151.583L178.053 151.682L178.084 151.776L178.627 153.405L178.998 156.37L179.002 156.401L179.007 156.431L179.582 159.494L179.639 159.798L179.857 160.017L180.432 160.592L180.796 160.955L181.303 160.871L191.638 159.148L191.643 159.148L208.296 156.468L208.339 156.461L208.38 156.451L210.678 155.876L211.435 155.687V154.906V153.757V153.521L211.33 153.31L211.154 152.958L210.209 150.692L210.181 150.625L210.144 150.562L209.573 149.61L208.266 147.371L207.716 146.087L207.457 145.481H207.208L206.346 144.101L205.802 142.832L205.542 142.226H205.413L205.347 142.121L204.39 140.59L204.096 140.12H204.006L203.954 139.806L203.815 138.971H203.377L202.088 136.945L201.793 136.481H201.582L201.427 136.016L201.269 135.542L200.795 135.384L200.695 135.351L200.661 135.25L200.619 135.123L200.545 135.012L199.396 133.289L199.099 132.843H198.978L198.888 132.753L198.313 132.179L198.199 132.064L198.053 131.992L197.84 131.885V131.706L197.547 131.413L196.973 130.839L196.858 130.724L196.713 130.651L196.5 130.545V130.366L196.207 130.073L194.867 128.732L194.824 128.69L194.777 128.653L192.097 126.547L192.026 126.491L191.947 126.449L188.692 124.726L188.603 124.679L188.506 124.65L185.251 123.693L185.193 123.676L185.133 123.666L183.984 123.475Z" stroke="black" stroke-width="2"/>
<path d="M178.267 156.821L178.65 157.396L180.182 164.289L180.756 166.778L181.331 169.842L181.905 172.331L182.288 175.203L182.671 176.927L183.437 180.182L183.82 182.288L184.394 185.16L185.16 188.032L185.543 189.181L185.735 190.713L186.117 191.096L186.309 189.947H186.5L190.139 208.138L192.245 218.286V219.435L192.819 218.86L194.351 216.754L196.074 214.839L197.415 213.499L200.478 211.393L203.351 210.052L207.18 209.095L212.542 208.521H217.137L220.584 208.904L223.647 209.861L225.562 211.01L226.137 211.201L225.945 210.244V208.521L226.519 208.712L226.711 208.329V208.904L227.285 209.095L228.434 214.073V215.414L227.094 216.946L225.371 218.477L223.839 219.626L224.03 223.073L224.222 224.413L227.285 226.711L229.2 228.434L231.881 231.115L233.796 233.604L235.328 236.093L236.668 238.774L237.625 241.646L238.2 244.902V248.54L237.625 251.986L236.668 255.05L234.945 258.688L233.221 260.986L231.115 263.475L230.349 264.241H229.966L229.775 263.666L229.392 259.837L228.434 254.284L227.285 250.646L226.137 247.391L224.03 243.37L222.498 241.455L220.967 240.115L218.669 238.966L216.563 238.391H213.499L211.01 239.157L209.286 240.306L207.946 241.646L206.414 244.136L205.457 246.625L205.265 247.965V251.795L205.84 254.858L206.414 257.539L206.989 261.943L207.18 265.007V267.879L206.031 267.687L202.202 265.581L199.904 263.858L197.989 262.135L196.074 260.22L193.968 257.156L192.436 254.092L191.479 251.029L190.904 247.774V244.327L191.479 240.689L192.436 237.817L193.968 234.753L195.5 232.455L197.415 230.349L197.606 229.966H197.989L198.372 229.2L198.755 228.626L198.372 225.562L198.181 224.796L193.202 224.222L193.777 226.903L193.585 228.626L192.819 229.009H186.5V228.817H192.436L191.67 225.945L190.33 219.435L189.181 213.308L188.415 209.095L187.075 201.819L186.117 197.223L184.969 191.287L183.82 185.543L182.862 180.948L181.905 176.161L180.948 171.182L180.182 167.353L179.033 161.417L178.267 157.779V156.821ZM212.924 213.499L209.095 213.882L205.648 214.839L202.585 216.18L198.947 218.477L198.755 218.669V220.392L199.904 226.711L200.287 228.626L200.478 229.009L199.521 230.158L197.223 232.455L195.5 234.945L193.777 238.2L192.628 242.029L192.245 244.327V248.157L193.011 251.795L194.16 254.667L195.5 257.156L197.415 259.645L199.138 261.56L201.627 263.666L205.074 265.773L205.84 266.156V263.666L205.265 259.262L204.691 256.965L202.202 253.327L201.053 250.837L200.287 247.582V243.753L201.244 240.689L202.585 238.008L203.925 236.285L206.031 234.179L208.712 232.455L211.201 231.498L213.307 231.115H216.371L219.626 231.881L222.307 233.221L224.03 234.562L225.562 235.902L227.285 238.2L229.009 241.455L229.583 243.944V248.157L229.2 250.071V251.986L230.158 256.199L230.924 261.369L231.498 261.177L233.604 258.114L235.136 255.241L236.476 251.22L236.859 248.923V244.71L235.902 240.689L234.945 238.391L233.413 235.519L232.072 233.604L230.349 231.498L228.434 229.392L226.328 227.668L223.647 225.562L222.881 225.371L222.498 221.158L221.924 215.605L221.35 214.648L218.286 213.882L215.605 213.499H212.924Z" 
fill="#161414"/>
<path d="M28.5303 152.8L28.7218 153.183L28.5303 155.098L26.0411 159.885L24.5093 162.565L21.4456 168.693L19.7223 176.352L16.0842 193.01L12.6376 208.712L12.0632 211.009L11.8717 211.392L12.6376 211.009L14.5524 209.86L16.6586 209.095L18.5734 208.712L20.4882 208.52H24.8922L30.8281 209.095L34.2747 209.86L37.3384 211.201L39.2531 212.35L41.9338 214.456L43.6572 216.371L44.9975 218.286L45.189 219.434H44.806L45.189 221.924L45.5719 223.264L45.3805 223.647L44.806 223.838L44.4231 224.796L44.2316 224.221L40.0191 224.796L39.6361 227.285V229.008L41.7424 231.115L44.0401 234.37L45.5719 237.242L46.7208 240.497L47.2952 243.561V248.156L46.5293 252.177L44.9975 256.007L43.4657 258.496L41.9338 260.411L40.2105 262.326L37.7213 264.432L34.6576 266.347L31.4025 268.07H31.0196L31.211 263.092L31.9769 256.773L32.9343 252.369V247.582L32.3599 245.284L30.8281 242.22L29.2962 240.497L27.19 239.157L25.8496 238.582L24.8922 238.391H21.6371L18.5734 239.348L16.4672 240.689L14.9353 242.412L13.4035 244.901L11.8717 248.156L9.95689 253.901L9.19098 257.539L8.42506 264.432L7.46767 263.857L6.12732 262.326L4.59549 260.411L2.87218 257.73L1.53183 254.858L0.574436 251.603L0 247.582L0.191479 244.135L0.957394 240.497L2.10627 237.625L3.44662 235.136L5.93584 231.689L8.61654 228.817L10.9143 226.711L13.9779 224.413L14.3609 221.541V219.626L11.8717 217.52L10.3399 216.179L9.76542 215.413L9.95689 213.69L11.6802 206.031L14.7439 192.053L19.7223 169.267L20.2967 167.352L22.5945 163.14L24.8922 158.736L27.19 154.523L27.9559 153.183L28.5303 152.8ZM23.3604 213.499L19.1479 214.073L16.6586 214.839L16.2757 215.988L15.3183 225.179L12.2546 227.477L10.1484 229.2L8.04211 231.306L6.3188 233.412L4.40401 236.285L2.87218 239.348L1.91479 242.22L1.53183 243.944L1.34035 245.667V248.348L1.91479 251.986L3.06366 255.241L4.59549 258.113L6.89323 261.368L7.27619 260.794L8.42506 254.284L8.9995 251.986V249.88L8.61654 247.199V244.327L9.38246 241.263L10.9143 238.199L12.4461 236.285L14.5524 234.178L17.2331 232.455L19.7223 231.498L21.8286 231.115H24.8922L28.1474 231.881L30.8281 233.221L33.7003 235.519L35.615 238.008L37.1469 241.072L37.7213 242.795L38.1043 244.901L37.9128 247.965L37.1469 251.028L35.615 254.092L33.7003 256.773L33.1258 258.496L32.5514 262.517L32.3599 266.155L34.4662 265.006L36.7639 263.475L39.2531 261.368L40.5935 260.028L42.6998 257.156L44.4231 253.901L45.5719 250.454L46.1464 246.816L45.9549 243.561L45.189 240.114L44.2316 237.625L42.5083 234.37L40.402 231.689L38.1043 229.391H37.7213L38.8702 223.838L39.6361 219.626L39.4446 218.668L37.7213 217.328L34.0832 215.413L30.0622 214.073L27.9559 213.69L25.6581 213.499H23.3604Z" 
fill="#171414"/>
<path d="M114.122 0H123.121L131.929 0.765915L137.674 1.53183L143.226 2.6807L148.971 4.59549L153.758 6.89323L157.396 9.19098L161.034 11.8717L163.906 14.5524L166.395 17.0416L168.885 20.2967L171.182 23.7434L173.289 27.7644L174.246 30.6366L175.203 35.4236L175.969 43.0827L176.544 52.0822V61.2732L175.969 65.1028L175.012 68.9324L173.863 71.996L172.331 75.0597L170.799 77.3574L169.267 78.6978L168.693 78.8892H166.587V83.4847L166.395 87.8887H166.204L166.012 84.0592L165.629 83.1018L165.438 93.4416H165.246L165.055 80.0381L164.863 77.3574L163.14 73.3364L162.183 69.6983L161.608 66.2516L161.417 62.2306L161.8 56.6777V53.997L161.225 51.6993L160.268 50.7419L158.928 50.1674L157.587 49.976H150.886L146.864 50.5504L142.652 51.6993L138.248 53.0396L133.078 53.997L128.483 54.5714L125.993 54.7629H116.802L110.292 54.38L103.782 53.8055L96.1226 52.6567L89.8038 51.3163H86.7402L84.8254 52.0822L82.7191 53.8055L81.3788 55.7203L80.2299 58.2095L79.2725 61.8476L77.7407 69.8897L76.4003 75.0597L74.8685 79.4637L74.1026 81.3785L73.9111 95.1649H73.7196L73.5281 92.8672L73.3366 86.1654L72.7622 85.591V94.2075H72.5707V82.7188L71.2304 82.9103L69.6986 82.1444L68.3582 80.6125L66.8264 77.9318L64.9116 73.3364L63.1883 67.592L62.4224 64.3369L61.8479 60.6988L61.465 55.9118V50.7419L62.0394 44.9975L62.9968 39.6361L64.1457 35.0406L66.2519 28.9133L68.5497 23.7434L70.8474 19.7223L72.3793 17.4246L73.9111 15.3183L76.2088 12.6376L78.6981 10.3399L81.9532 8.04211L84.6339 6.51028L89.4209 4.59549L94.5908 3.06366L100.335 1.72331L105.888 0.765915L111.441 0.191479L114.122 0ZM115.079 0.957394L108.377 1.53183L104.356 2.10627L99.5692 3.06366L92.676 4.78697L87.5061 6.51028L85.2083 7.46767L82.1447 8.9995L80.9958 9.76542L78.5066 11.6802L76.5918 13.595L75.06 15.7013L73.7196 17.616L71.6133 20.8712L69.89 23.7434L67.4008 29.1048L65.869 32.9343L64.1457 38.8702L63.1883 43.2742L62.6138 46.9123L62.4224 49.21V58.401L62.6138 61.0817L63.1883 64.5283L65.486 72.1875L67.0178 76.0171L68.5497 79.2722L70.0815 81.187L71.0389 81.9529H72.1878L72.9537 81.187L74.4855 77.3574L75.4429 74.1023L76.5918 69.8897L77.7407 64.1454L78.8895 58.784L79.8469 55.9118L81.1873 53.8055L82.9106 51.8907L84.8254 50.7419L87.3146 49.976L90.1868 50.1674L96.3141 51.3163L100.527 52.0822L107.228 52.8481L115.462 53.4226H127.334L132.121 52.8481L137.482 51.8907L143.226 50.3589L148.013 49.21L151.651 48.8271H156.247L159.885 49.21L161.417 49.976L162.374 51.5078L162.757 53.4226V57.8266L162.566 60.1243L162.374 60.6988V65.6772L163.523 70.6557L164.289 72.7619L165.821 76.4H166.204L166.587 77.3574L167.544 78.1233H168.31L169.267 77.1659L170.608 75.4426L171.948 73.3364L173.289 70.4642L174.437 66.8261L175.203 63.3795L175.586 60.3158V52.6567L175.012 44.0401L174.629 39.6361L173.863 34.2747L173.097 30.4451L171.948 27.3815L170.799 25.2752L169.459 23.1689L167.544 20.4882L166.012 18.5734L163.715 16.0842L161.8 14.1694H161.417L161.225 13.595L160.268 12.6376L158.545 11.1058L155.673 9.19098L152.609 7.46767L148.779 5.74436L144.184 4.21253L140.163 3.25514L135.95 2.48922L125.993 1.34035L121.015 0.957394H115.079Z" 
fill="#141112"/>
<path d="M92.4843 108.335H92.0701L91.7772 108.628L91.5857 108.819L91.2928 109.112V109.526V115.654V116.068L91.5857 116.361L91.7772 116.552L92.0701 116.845H92.4843H145.907H146.03L146.149 116.815L146.915 116.624L147.673 116.434V115.654V109.526V108.595L146.744 108.529L144.063 108.337L144.028 108.335H143.992H92.4843Z" stroke="black" stroke-width="2"/>
<path d="M132.12 80.6125L133.844 80.804L135.376 81.5699L136.141 82.3359L136.907 84.2506V85.208H135.759L134.993 84.8251L134.418 86.5484L133.652 90.1865L132.312 92.8672L130.78 94.5905L128.482 95.9308L125.61 96.8882L122.355 97.4627H116.228L112.207 96.6968L109.334 95.5479L107.611 94.2075L106.079 92.4842L104.739 89.4206L104.165 87.3143V86.1654L104.739 85.208L105.122 85.0166H107.228L111.249 85.7825L114.504 86.1654H120.44L124.078 85.591L127.333 84.6336L130.014 83.4847L131.163 82.5273L131.546 81.9529L131.929 80.804L132.12 80.6125Z" 
fill="#221E1E"/>
<path d="M148.396 116.036H165.629L168.118 116.993L170.033 118.142L171.565 119.483L172.905 121.397L174.054 123.695L174.246 124.844L176.735 124.078L179.224 123.695H183.054L185.734 124.078L188.798 125.035L191.479 126.376L193.585 127.908L195.5 129.631L197.989 132.12L199.712 134.226L201.819 137.099L203.925 140.545L206.223 144.375L208.329 148.013L210.818 152.608L214.073 158.736L216.371 162.948L218.86 167.735L219.626 170.607L223.647 188.989L227.86 208.137V208.903L226.902 208.712L226.519 209.286L224.605 200.669L222.881 192.627L220.583 182.288L218.477 172.331L217.328 167.927L214.456 162.565L212.158 158.161L210.435 155.098L210.052 153.374L209.095 151.076L208.52 150.119L207.563 148.396L206.988 147.63L206.797 146.481H206.414L205.265 144.566L204.882 143.226H204.499L203.542 141.503V141.12H203.159L202.967 139.971H202.584L201.436 138.056L201.244 137.482H200.861L200.287 136.333L199.329 135.375L198.563 134.226V133.843H198.18L197.223 132.695L193.776 129.248L190.521 126.95L187.649 125.61L184.585 124.652L177.501 125.035L174.246 125.801V127.142L176.735 139.588L177.501 143.226L177.884 145.141L178.841 149.736L179.033 149.928L179.607 152.991L179.799 153.183L180.181 156.246L180.756 159.31V159.693H181.139L182.671 166.969L187.075 189.181V191.096L186.692 191.479L186.117 190.138V188.989L185.543 187.649L184.968 185.16L184.011 180.564L182.671 173.862L182.096 170.607L181.522 168.31L181.139 166.012L179.799 160.076L179.033 156.821L178.458 154.523L176.352 144.183L174.246 133.269L172.522 125.227L171.373 122.163L170.225 120.44L169.65 120.057V119.674L168.693 119.291L167.161 118.334L166.012 117.951V117.568L161.608 117.185L160.076 116.993H153.183L151.843 116.802H150.119L148.779 116.61L148.396 116.036Z" 
fill="#181616"/>
<path d="M114.121 0H123.121L131.929 0.765915L137.673 1.53183L143.226 2.6807L148.97 4.59549L153.757 6.89323L157.395 9.19098L161.034 11.8717L163.906 14.5524L166.395 17.0416L168.884 20.2967L171.182 23.7434L173.288 27.7644L174.246 30.6366L175.203 35.4236L175.969 43.0827L176.543 52.0822V61.2732L175.969 65.1028L175.011 68.9323L173.863 71.996L172.331 75.0597L170.799 77.3574L169.267 78.6978L168.693 78.8892H166.969V78.5063L166.395 78.3148L166.969 78.1233H168.501L169.65 77.1659L171.565 74.2937L173.097 71.4216L174.054 68.7409L175.011 64.9113L175.394 60.3158V52.6567L174.82 44.0401L174.437 39.6361L173.671 34.2747L172.905 30.4451L171.756 27.3815L170.607 25.2752L169.267 23.1689L167.352 20.4882L165.82 18.5734L163.523 16.0842L161.799 14.3609L160.268 13.0206L159.31 11.8717L156.247 9.76542L153.374 8.04211L149.736 6.3188L146.098 4.97845L141.12 3.6381L135.95 2.6807L125.993 1.53183L121.014 1.14887H115.079L108.377 1.72331L104.356 2.29774L99.5688 3.25514L92.6756 4.97845L87.5057 6.70176L85.2079 7.65915L82.1443 9.19098L80.9954 9.95689L78.5062 11.8717L76.7829 13.595L75.251 15.7013L73.9107 17.616L71.8044 20.8712L70.0811 23.7434L67.5919 29.1048L66.0601 32.9343L64.3368 38.8702L63.9538 40.785H63.5708L63.1879 42.8912L62.6134 45.7634L62.2305 49.21L62.039 50.1674H61.8475V46.5293L62.6134 41.5509L63.7623 36.381L66.0601 29.4877L67.7834 25.4667L69.3152 22.403L71.23 19.1479L73.7192 15.5098L76.2084 12.6376L78.6977 10.3399L81.9528 8.04211L84.6335 6.51028L89.4205 4.59549L94.5904 3.06366L100.335 1.72331L105.888 0.765915L111.441 0.191479L114.121 0Z" 
fill="#131213"/>
<path d="M165.438 82.719L166.012 83.2934L166.203 84.0593L166.395 87.8889V95.3566L165.629 98.6117L164.672 100.909L162.948 103.399L162.182 104.356L160.651 105.696L157.778 107.611L154.906 108.76L151.651 109.335L148.587 109.526L148.204 110.1H147.439V110.483L146.864 110.292V109.526H92.4841L91.5268 109.909L91.1438 110.675L90.9523 112.398H90.7608V109.335H86.9313L83.4846 108.569L80.2295 107.037L77.9318 105.313L76.3999 103.782L74.6766 101.292L73.7192 99.3776L72.9533 96.8884L72.7618 95.931V85.5912L73.3363 85.7827L73.5278 86.1656L73.7192 92.8674L73.9107 95.1651L74.8681 98.4202L76.3999 101.484L78.1232 103.59L79.8466 105.122L82.9102 106.845L85.3994 107.611L86.3568 107.803L90.5694 107.994L152.417 107.803L155.481 107.037L158.544 105.505L160.459 103.973L161.991 102.25L163.523 99.5691L164.48 97.2714L165.246 93.4418L165.438 82.719Z" 
fill="#151313"/>
<path d="M153.566 32.5513H160.651L160.842 32.7427V34.0831H153.183L148.779 34.6575L143.226 35.8064L129.44 39.253L122.929 40.5934L117.951 41.3593L112.398 41.9337L109.334 42.1252H99.3775L91.3354 41.5508L84.0592 40.4019L77.166 38.8701L75.0597 38.1042V37.1468L75.8256 36.9553L83.1018 38.4871L90.378 39.636L96.1224 40.2104L99.9519 40.4019H107.994L113.738 40.0189L120.249 39.253L125.61 38.2956L131.546 36.9553L144.375 33.8916L148.205 33.1257L151.077 32.7427L153.566 32.5513Z" 
fill="#151B23"/>
<path d="M131.737 85.7825H132.312L132.12 86.9313L131.546 87.8887H131.163L130.972 88.4632L128.099 89.995L127.142 90.378V90.7609L129.248 91.1439L130.014 91.7183V92.1013L127.333 93.4416L124.844 94.2075L122.164 94.782L120.632 94.9734H117.568L113.738 94.399L110.675 93.4416L108.951 92.2927L107.994 91.1439L106.845 88.6547V87.6973L109.526 87.8887L114.887 88.4632H121.015L124.27 88.0802L128.291 87.1228L131.737 85.7825Z" 
fill="#F5F7F6"/>
<path d="M141.12 17.0413H143.417L148.396 17.6157L152.608 18.5731L157.204 20.1049L157.587 20.2964V21.6367L156.629 21.4453L152.991 20.2964L149.736 19.5305L145.332 18.7646L143.034 18.5731H141.12L137.865 18.956L133.461 19.9134L123.312 22.7856L118.525 24.126L110.1 26.0408L103.59 26.9982L101.101 27.1896H94.0159L88.846 26.8067L83.1016 25.8493L77.9317 24.5089L76.2084 23.743V22.7856L77.9317 22.9771L82.9101 24.126L87.3141 24.8919L91.5267 25.4663L94.0159 25.6578H98.9943L104.93 25.0834L110.483 24.126L118.142 22.4027L124.27 20.6794L128.674 19.5305L133.843 18.1901L137.482 17.4242L141.12 17.0413Z" 
fill="#151B24"/>
<path d="M148.396 116.036H165.629L168.118 116.993L170.033 118.142L171.565 119.483L172.905 121.397L174.054 123.695V124.844L173.097 124.078V123.504H172.714L173.288 125.227L174.246 127.142L176.735 139.588L177.501 143.226L177.884 145.141L178.841 149.736L179.033 149.928L179.607 152.991L179.799 153.183L180.181 156.246L180.756 159.31V159.693H181.139L182.671 166.969L187.075 189.181V191.096L186.692 191.479L186.117 190.138V188.989L185.543 187.649L184.968 185.16L184.011 180.564L182.671 173.862L182.096 170.607L181.522 168.31L181.139 166.012L179.799 160.076L179.033 156.821L178.458 154.523L176.352 144.183L174.246 133.269L172.522 125.227L171.373 122.163L170.225 120.44L169.65 120.057V119.674L168.693 119.291L167.161 118.334L166.012 117.951V117.568L161.608 117.185L160.076 116.993H153.183L151.843 116.802H150.119L148.779 116.61L148.396 116.036Z" 
fill="#110F11"/>
<path d="M107.037 66.4429H108.377L110.292 67.2088L111.632 68.5491L112.398 69.8895L112.59 70.6554V72.3787L111.824 74.102L110.483 75.6339L108.951 76.3998L107.037 76.5912L105.313 76.0168L104.165 75.2509L103.016 73.7191L102.633 72.7617V70.2724L103.59 68.3577L105.122 67.0173L107.037 66.4429Z" 
fill="#201D1D"/>
<path d="M130.588 66.4429L132.312 66.6343L133.843 67.4003L135.184 68.7406L135.95 70.6554V72.3787L135.184 74.102L133.843 75.6339L132.312 76.3998L130.397 76.5912L128.291 75.8253L126.95 74.6765L125.993 72.7617V70.2724L126.95 68.3577L128.482 67.0173L130.588 66.4429Z" 
fill="#211D1E"/>
<path d="M151.651 48.636H156.247L159.885 49.0189L161.417 49.7849L162.182 50.7423L162.757 52.0826L162.948 53.423V57.827L162.757 60.1247L162.565 60.6991V65.6776L163.714 70.656L164.48 72.7623L165.821 75.826V76.4004H166.204L166.969 77.5493L168.31 78.1237L168.501 77.5493L169.65 76.5919L171.756 73.3367L173.097 70.4646L174.246 66.8265L175.012 63.3798H175.203V64.9117L174.246 68.7413L173.288 71.422L171.756 74.2941L170.225 76.5919L168.884 78.1237L168.501 78.3152H166.587L166.969 78.6981L166.587 78.8896V83.4851L166.395 87.8891H166.204L166.012 84.0596L165.629 83.1022L165.438 93.442H165.246L165.055 80.0385L164.863 77.3578L163.14 73.3367L162.182 69.6986L161.608 66.252L161.417 62.231L161.8 56.6781V53.9974L161.225 51.6996L160.268 50.7423L158.927 50.1678L157.587 49.9763H150.885L146.29 50.5508L145.715 50.1678L144.758 49.9763L145.524 49.5934L149.353 48.8275L151.651 48.636Z" 
fill="#221E1E"/>
<path d="M65.4859 125.993L66.4433 126.184L66.2518 128.099L63.7626 139.588L61.6563 149.545L60.3159 156.247L59.7415 158.544L59.1671 160.076L58.7841 161.034L58.2097 163.906L58.0182 166.012L57.6352 167.161L57.4438 169.267L57.0608 169.842L56.6778 172.331L56.2949 173.288L55.9119 175.011L55.529 176.16L55.146 178.267L54.7631 178.65L54.5716 180.756L54.3801 181.139H53.9971V182.671L53.8057 183.819L53.4227 184.011L53.2312 186.692L53.0397 187.075H52.6568V188.032L51.8909 188.606L52.2738 186.117L55.7204 169.65L57.8267 160.076L58.5926 157.97L59.7415 153.374L61.6563 143.992L63.3796 135.758L64.5285 130.588L65.1029 127.333L65.4859 125.993Z" 
fill="#121011"/>
<path d="M178.267 156.821L178.65 157.396L180.182 164.289L180.756 166.778L181.331 169.842L181.905 172.331L182.288 175.203L182.671 176.927L183.437 180.182L183.82 182.288L184.394 185.16L185.16 188.032L185.543 189.181L185.735 190.713L186.117 191.096L186.309 189.947H186.5L190.139 208.138L190.713 210.818V211.776L190.33 211.967L190.521 213.882H190.904V216.18L189.947 215.988L189.564 215.414L188.798 210.818L187.841 206.223L187.075 201.819L186.117 197.223L184.969 191.287L183.82 185.543L182.862 180.948L181.905 176.161L180.948 171.182L180.182 167.353L179.033 161.417L178.267 157.779V156.821Z" 
fill="#1E1C1D"/>
<path d="M143.801 49.9761H145.715L146.673 50.1676L146.098 50.742L142.077 51.8909L138.248 53.0397L133.078 53.9971L128.482 54.5716L125.993 54.763H116.802L110.292 54.3801L107.611 54.1886V53.9971L109.717 53.8056L108.951 53.6142L107.611 53.4227L106.845 53.0397L103.782 52.8483L103.016 53.2312V52.8483L102.441 53.0397L101.867 52.4653L100.718 52.2738V52.0823L104.165 52.2738L107.228 52.6568L115.462 53.2312H127.333L132.12 52.6568L137.482 51.6994L143.226 50.1676L143.801 49.9761Z" 
fill="#221E1E"/>
<path d="M92.2928 115.286H146.29L146.098 116.244L145.141 116.435H130.78L125.802 116.244H103.399L94.2076 116.052L93.8247 115.669L92.8673 115.478V115.861H92.4843L92.2928 115.286Z" 
fill="#0C0B0D"/>
<path d="M51.8907 240.306H52.0822L52.2737 244.902H52.6566L52.4652 250.837L52.2737 287.027H52.0822L51.8907 265.007L51.5078 264.624L51.1248 263.475H50.9333L50.7418 297.558H50.5504L50.3589 244.136L50.7418 244.902L50.9333 245.093L51.5078 243.178L51.6992 242.412L51.5078 242.029L51.8907 240.306Z" 
fill="#232124"/>
<path d="M63.5712 40.7849H63.7627L63.5712 42.5082L62.8053 46.9122L62.6138 49.21V58.401L62.8053 61.0817L63.3798 64.5283L65.6775 72.1874L67.2093 76.017L68.7412 79.2721L70.273 81.1869L71.0389 81.7614H72.1878L72.7622 81.1869L74.294 77.3573L74.677 76.2085H74.8685V77.3573L74.4855 78.5062L74.1026 79.4636L73.9111 80.6125H73.5281V80.9954H73.1452L72.9537 81.7614L73.9111 81.5699V95.1649H73.7196L73.5281 92.8671L73.3366 86.1654L72.7622 85.5909V94.2075H72.5707V82.7188L71.2304 82.9102L69.6986 82.1443L68.3582 80.6125L66.8264 77.9318L64.9116 73.3363L63.1883 67.5919L62.4224 64.3368L61.8479 60.6987L61.465 55.9117V50.7418L61.6564 48.2526H61.8479L62.0394 49.21L62.6138 44.6145L63.3798 41.3593L63.5712 40.7849Z" 
fill="#1F1C1D"/>
<path d="M108.76 57.4436H112.015L113.93 57.8266L114.313 58.2095V59.3584L114.122 59.7413L107.42 59.9328L102.824 60.6987L98.9947 61.8476L97.4629 62.422H96.1225L95.5481 61.0817L96.1225 60.5073L100.144 58.9754L104.931 57.8266L108.76 57.4436Z" 
fill="#383534"/>
<path d="M125.802 58.0181H129.44L133.078 58.401L136.716 59.1669L141.12 60.6988L142.652 61.6562L142.269 62.805L142.077 62.9965L140.354 62.805L136.142 61.4647L132.312 60.6988L130.014 60.5073L124.078 60.3158L123.887 58.9755L124.653 58.2095L125.802 58.0181Z" 
fill="#393534"/>
<path d="M76.2084 22.7859L77.9317 22.9774L82.9101 24.1262L87.3141 24.8922L91.5267 25.4666L94.0159 25.6581H98.9943L102.632 25.4666L104.356 25.6581L105.122 26.2325V26.8069L101.101 27.1899H94.0159L88.846 26.8069L83.1016 25.8495L77.9317 24.5092L76.2084 23.7433V22.7859Z" 
fill="#151B23"/>
<path d="M105.122 85.0166H107.228L111.249 85.7825L114.504 86.1655H122.929L122.547 86.5484H121.781L121.398 87.3143H121.015L120.632 88.0803L121.589 88.2717L121.015 88.6547H114.887L109.526 88.0803L107.994 87.6973L108.569 87.3143L107.803 86.9314V86.5484L107.037 86.357V85.974L106.462 85.7825L106.271 85.974L105.505 86.5484H105.122L104.93 87.1229L104.165 87.3143V86.1655L104.739 85.2081L105.122 85.0166Z" 
fill="#141112"/>
<path d="M148.396 116.036H165.629L168.118 116.993L170.033 118.142L171.565 119.483L172.905 121.397L174.054 123.695V124.844L173.097 124.078V123.504H172.714L172.905 124.269L172.522 124.461L172.139 122.929L171.756 122.163L169.842 120.248L169.65 119.674L168.693 119.291L167.161 118.334L166.012 117.951V117.568L161.608 117.185L160.076 116.993H153.183L151.843 116.802H150.119L148.779 116.61L148.396 116.036Z" 
fill="#0F0D0F"/>
<path d="M175.012 63.3796H175.203V64.9115L174.246 68.741L173.288 71.4217L171.757 74.2939L170.225 76.5917L168.884 78.1235L168.501 78.315H166.587L166.97 78.6979L166.587 78.8894V83.4849L166.395 87.8889H166.204L166.012 84.0593L165.629 83.1019L165.438 93.4418H165.246L165.055 80.0383L164.863 77.3576L163.14 73.3365L162.374 70.6558V68.741L162.949 69.3155L163.332 70.4644L164.097 72.3791V72.7621H164.48L165.821 75.8258V76.4002H166.204L166.97 77.5491L168.31 78.1235L168.501 77.5491L169.65 76.5917L171.757 73.3365L173.097 70.4644L174.246 66.8263L175.012 63.3796Z" 
fill="#161313"/>
<path d="M172.714 123.503H173.097L173.48 124.078L174.246 124.461V124.844L176.735 124.078L179.224 123.695H183.054L185.734 124.078L188.798 125.035L191.479 126.376L193.585 127.907L195.5 129.631L197.989 132.12L199.712 134.226L201.244 136.332L201.053 136.907L199.904 135.375L198.181 133.269L193.968 129.056L192.628 128.099L191.67 127.716L189.755 126.567L187.649 125.61L184.586 124.652L177.501 125.035L174.246 125.801L174.054 126.759L173.48 125.993L172.714 124.269V123.503Z" 
fill="#151315"/>
<path d="M107.037 66.4429H108.377L110.292 67.2088L111.632 68.5491L112.398 69.8895L112.589 70.6554V72.3787L111.823 74.102L110.483 75.6339L109.909 76.0168L108.568 75.8253L108.76 75.0594L110.675 74.102L110.866 73.5276L111.632 73.3361V71.4213L110.483 71.2298L109.526 71.4213L110.1 70.081L109.909 68.7406L108.951 67.9747L107.611 67.7832L106.462 68.7406L106.079 70.6554L105.696 70.2724L105.505 69.3151L104.739 68.7406L103.973 69.5065L103.398 70.4639H103.015L102.824 71.0384V69.698L103.781 68.1662L105.122 67.0173L107.037 66.4429Z" 
fill="#141212"/>
<path d="M79.0807 57.4436H79.2722L79.0807 59.5499L78.8892 59.7413V62.2306L79.0807 62.9965L77.5489 70.8471L76.2085 75.6341L74.8682 79.4637L73.9108 81.5699L73.5278 81.9529L72.9534 81.7614L73.1448 80.9955H73.5278V80.6125H73.9108V79.4637L74.4852 77.7403L74.6767 77.3574L75.0596 75.0596L76.2085 70.4642L77.1659 66.0601L78.5063 59.5499L79.0807 57.4436Z" 
fill="#181414"/>
<path d="M0.382812 246.625L0.574291 247.199H0.957249L1.14873 246.816L1.53168 248.348L2.10612 251.986L3.25499 255.241L4.78682 258.113L6.70161 260.794L7.08457 261.751L7.46753 262.326L8.23344 262.517V264.049L7.46753 263.858L6.12717 262.326L4.59535 260.411L2.87204 257.73L1.53168 254.858L0.574291 251.603L0.382812 250.646V246.625Z" 
fill="#151313"/>
<path d="M90.3781 50.1675L92.4843 50.359L97.0798 51.3164L100.526 51.8908L101.867 52.2737L102.633 52.8482H103.016L103.207 53.0397L103.782 52.6567L106.845 52.8482L108.569 53.4226H109.526L110.1 53.9971H105.696L99.7605 53.2311L94.9735 52.4652L90.9525 51.5078V51.3164L91.9099 51.1249L90.9525 50.7419L90.3781 50.1675Z" 
fill="#141212"/>
<path d="M130.588 66.4429L132.312 66.6343L133.844 67.4003L135.184 68.7406L135.95 70.6554V72.3787H135.567V70.6554L133.461 71.2298L132.886 71.6128L133.269 70.2724L133.078 68.9321L132.12 67.9747L130.78 67.7832L129.823 68.3577L129.248 69.1236L129.057 70.2724L128.865 71.0384L127.716 69.698L126.567 70.6554L126.376 72.5702H126.184V69.698L127.142 68.1662L128.482 67.0173L130.588 66.4429Z" 
fill="#141212"/>
<path d="M44.0401 129.057L44.423 129.248L43.4656 130.397L42.5082 131.163L42.6997 131.737H42.3168L41.9338 132.503L41.3594 133.078H40.9764L40.7849 133.652H40.402L40.019 134.61L39.4446 135.567H39.0616L38.6787 136.333L36.9554 139.014L36.7639 139.396H36.3809L36.1894 140.162L35.2321 141.503L34.2747 143.418L31.9769 147.247L30.2536 150.885L28.7218 153.566L28.5303 152.991L28.1473 153.183L28.5303 152.034L31.0195 147.439L34.0832 142.269L36.7639 137.865L39.0616 134.61L40.7849 132.503L43.8486 129.248L44.0401 129.057Z" 
fill="#1D1B1B"/>
<path d="M113.547 53.4226H115.079L116.036 53.6141L116.419 53.997L116.611 53.6141H127.142L127.334 54.1885L127.908 54.38L125.993 54.763H116.802L110.292 54.38V53.997H112.59V53.6141L113.547 53.4226Z" 
fill="#161212"/>
<path d="M151.651 48.636H156.247L159.885 49.0189L161.417 49.7849L161.8 50.3593L161.034 50.1678V49.7849L159.885 49.9763V50.3593L157.587 49.9763H150.885L146.29 50.5508L145.715 50.1678L144.758 49.9763L145.524 49.5934L149.353 48.8275L151.651 48.636Z" 
fill="#231F1F"/>
<path d="M130.78 67.5918L132.12 67.7833L133.078 68.5492L133.461 69.5066L133.269 70.6555L132.695 71.6129L131.737 72.1873H130.589L129.44 71.4214L128.865 70.2725L129.057 69.1236L130.206 67.7833L130.78 67.5918Z" 
fill="#F0F2F1"/>
<path d="M191.479 217.328H191.862V218.477L192.053 219.243L192.628 219.434L192.245 219.626L192.628 221.349L193.011 221.924L193.202 222.307V223.838L193.777 224.03H195.308V224.221H193.968L194.542 226.902L194.351 228.625L193.585 229.008H187.266V228.817H193.202L192.436 225.945L191.096 219.434L190.904 217.903L191.479 217.711V217.328Z" 
fill="#1F1C1D"/>
<path d="M56.2947 123.695H59.7413L61.4646 123.887L61.6561 124.27L57.4436 124.461L53.614 125.035L50.5504 125.993L48.827 126.759L46.9123 127.908L45.3804 129.056H44.9975L44.6145 129.822H44.2316V130.205L42.8912 131.354L42.3168 131.163L42.8912 130.971L43.0827 130.397L43.8486 129.631H44.2316L44.6145 128.674L46.7208 126.95L49.7844 125.227L52.6566 124.27L56.2947 123.695Z" 
fill="#171516"/>
<path d="M102.441 25.4663L104.356 25.6578L105.122 26.2322V26.8067L101.101 27.1896H94.0162L90.9526 26.9981L90.7611 26.6152L92.1015 26.2322H97.8458L99.7606 25.8493L102.058 25.6578L102.441 25.4663Z" 
fill="#0E0D0F"/>
<path d="M107.611 67.5918L108.951 67.7833L110.1 68.7407L110.292 70.081L109.717 71.2299L108.951 71.8043H107.42L106.271 70.8469L106.079 70.464L106.271 68.7407L107.611 67.5918Z" 
fill="#F0F2F1"/>
<path d="M74.6767 76.2085H74.8682V77.3574L74.4853 78.5062L74.1023 79.4636L73.9108 80.6125H73.5279V80.9955H73.1449L72.9534 81.7614L73.9108 81.5699V95.1649H73.7193L73.5279 92.8671L73.3364 86.1654L72.762 85.591V94.2075H72.5705V82.7188L71.996 82.5273L72.379 82.1443H70.8472L69.8898 81.3784L70.0812 80.9955L71.0386 81.7614H72.1875L72.762 81.1869L74.2938 77.3574L74.6767 76.2085Z" 
fill="#2A2626"/>
<path d="M192.245 127.908L193.202 128.291L195.5 130.397L198.755 133.652L199.329 134.418V134.801L199.904 134.993L201.053 136.716L201.436 136.525L203.733 140.163L206.223 144.375L207.563 146.673L207.18 146.864L208.329 148.779L208.137 149.354L207.563 148.396L206.989 147.63L206.797 146.481H206.414L205.265 144.567L204.882 143.226H204.499L203.542 141.503V141.12H203.159L202.968 139.971H202.585L201.436 138.056L201.244 137.482H200.861L200.287 136.333L199.329 135.376L198.564 134.227V133.844H198.181L197.223 132.695L193.777 129.248L192.245 128.099V127.908Z" 
fill="#1C1A1B"/>
<path d="M161.991 50.3586L162.757 51.1246L163.523 54.1882L163.714 56.6774L163.14 61.6559L163.331 66.6343L163.906 69.315L164.097 70.2724L164.672 72.5702L164.48 73.1446L163.714 71.2298L162.948 68.1662L162.374 65.4855V60.6985L162.565 60.1241L162.757 57.8263V53.4223L162.374 51.5075L161.991 50.3586Z" 
fill="#373536"/>
<path d="M62.9965 65.2942L63.3794 65.8686L64.3368 68.9323L65.4857 72.7619L66.2516 74.2937L67.4005 77.5488L68.9323 80.0381L69.3153 80.6125L69.8897 80.804L70.2727 81.5699L70.8471 81.9528H72.5704L72.3789 82.5273L71.8045 82.9102L70.6556 82.7188L69.1238 81.5699L67.4005 79.0807L65.8686 75.8255L64.3368 71.613L62.9965 66.826V65.2942Z" 
fill="#151314"/>
<path d="M76.4 13.5952V14.1697L75.0597 15.893L73.5278 18.1907L71.2301 21.8288L70.0812 23.7436L67.592 29.105L66.0602 32.9346L64.7198 37.5301H64.5283V36.1897L64.9113 34.8494L65.8687 31.5942L67.0175 28.722L67.209 28.1476H67.592L67.7835 26.9987L69.3153 24.1265L69.6982 23.1692L70.6556 21.8288L71.613 19.914H71.996L72.3789 18.9566L73.3363 17.2333L73.9108 16.8504L74.2937 15.51L75.6341 14.3611L76.4 13.5952Z" 
fill="#1F1C1D"/>
<path d="M165.055 77.3574L166.012 77.7404V78.1233L166.969 78.5063L166.587 78.8893V83.4847L166.395 87.8888H166.204L166.012 84.0592L165.629 83.1018L165.438 93.4416H165.246L165.055 77.3574Z" 
fill="#302D2C"/>
<path d="M100.718 52.082L104.165 52.2735L107.228 52.6565L115.462 53.2309L126.95 53.4224V53.6139L116.611 53.8053L115.653 53.9968L115.079 53.6139H113.547L112.398 54.1883H107.611V53.9968L109.717 53.8053L108.951 53.6139L107.611 53.4224L106.845 53.0394L103.782 52.8479L103.016 53.2309V52.8479L102.441 53.0394L101.867 52.465L100.718 52.2735V52.082Z" 
fill="#201D1D"/>
<path d="M94.3992 50.7422L96.8884 50.9337L98.6117 51.3166L102.058 51.6996L102.824 51.8911L112.015 52.657L118.143 53.0399H126.376L130.397 52.8485V53.0399L127.334 53.4229H115.462L107.228 52.8485L100.526 52.0825L96.314 51.3166L94.3992 50.9337V50.7422Z" 
fill="#373536"/>
<path d="M63.5712 40.7849H63.7627L63.5712 42.5082L62.8053 46.9122L62.6138 49.21L62.4224 56.8691L62.0394 56.6776L61.8479 58.7839H61.6564L61.465 55.9117V50.7418L61.6564 48.2526H61.8479L62.0394 49.21L62.6138 44.6145L63.3798 41.3593L63.5712 40.7849Z" 
fill="#222020"/>
<path d="M98.6117 52.082H100.718L102.058 52.2735L102.633 52.8479H103.016L103.207 53.0394L103.782 52.6565L106.845 52.8479L108.569 53.4224H109.526L110.1 53.9968H105.696L99.7606 53.2309L98.6117 52.8479V52.082Z" 
fill="#121011"/>
<path d="M79.2723 56.2947L79.4637 56.8691L78.5063 60.5072L77.3575 66.0601L76.4001 70.4641L75.0597 75.634L73.9108 78.8892L72.762 81.5699L72.1875 81.9528H71.0387L69.5068 80.6125L69.6983 80.2295L71.0387 81.3784H71.9961L72.9535 80.038L74.2938 76.3999L75.6342 71.8045L76.9745 65.6771L77.9319 60.3157L78.6978 57.4436L79.2723 56.2947Z" 
fill="#373536"/>
<path d="M104.93 88.8464L105.696 89.6124V89.9953H106.079L106.845 91.5271L108.185 93.059L109.526 94.0164L110.292 94.3993L110.866 95.1652V95.5482H111.249V95.9311H110.1L108.185 94.7823L106.654 93.2504L105.505 91.3357L104.93 89.9953V88.8464Z" 
fill="#141111"/>
<path d="M72.9533 116.036H89.9949L89.4205 116.61H76.3999L72.7618 116.419L72.9533 116.036Z" 
fill="#0C0B0D"/>
<path d="M173.48 32.1685L173.863 32.3599L174.437 35.4236L174.82 39.2532L175.203 42.1254V43.8487L175.777 50.1675V60.5073L175.586 62.0391H175.395V52.6567L174.82 44.0401L174.437 39.6361L173.671 34.2747L173.48 32.1685Z" 
fill="#1F1C1D"/>
<path d="M174.437 65.1028L174.629 65.8687L173.671 69.3153L172.714 71.8045L171.565 73.9108L169.65 76.783L168.501 77.7404L168.31 78.1233L167.352 77.9319L166.395 76.9745L166.203 76.4H165.821L164.672 73.5278L164.863 73.1449L166.395 76.0171L166.969 76.9745V77.3574H168.693L169.076 76.4H169.459L170.033 75.2512H170.416V74.4852H170.799L171.182 73.3364L172.714 70.4642L174.054 66.6346L174.437 65.1028Z" 
fill="#373536"/>
<path d="M33.5087 143.417H33.7002L33.5087 144.758L31.9769 147.247L30.2536 150.885L28.7218 153.566L28.5303 152.991L28.1473 153.183L28.5303 152.034L31.0195 147.438L33.3173 143.609L33.5087 143.417Z" 
fill="#1E1B1C"/>
<path d="M175.011 63.3796H175.203V64.9115L174.245 68.741L173.288 71.4217L171.756 74.2939L170.224 76.5917L168.884 78.1235L168.501 78.315H166.969L166.395 78.1235L165.82 76.4002H166.203L166.969 77.5491L168.31 78.1235L168.501 77.5491L169.65 76.5917L171.756 73.3365L173.097 70.4644L174.245 66.8263L175.011 63.3796Z" 
fill="#1F1C1D"/>
<path d="M48.2528 206.989L48.6358 207.18V208.52L48.2528 208.712L48.0613 211.201L47.6784 212.35L47.2954 214.648L46.5295 215.797H46.338V214.073L47.6784 207.754L48.2528 206.989Z" 
fill="#151212"/>
<path d="M187.841 248.348H188.032V260.602H187.841L187.458 257.347L187.266 253.709V249.688L187.841 248.348Z" 
fill="#1F1C1D"/>
<path d="M189.755 205.073L190.33 205.265L191.479 210.818V211.775L190.713 211.967L189.755 208.329L189.564 207.754L189.372 205.456L189.755 205.073Z" 
fill="#191C21"/>
<path d="M8.80801 242.412L9.19096 243.178L9.95688 243.752L9.7654 246.816L9.38244 246.433V248.156L8.99949 249.879H8.80801L8.42505 247.199V244.326L8.80801 242.412Z" 
fill="#242527"/>
<path d="M155.864 9.57373L156.821 9.95669L159.502 11.8715L160.842 13.4033L161.417 13.7863V14.1692L162.182 14.5522L165.246 17.6158L166.969 19.7221L167.161 20.2965H166.778L166.203 19.5306V19.1477H165.821L165.055 18.1903L164.48 17.8073V17.4244L163.714 17.0414V16.6584H163.331L162.374 15.5096L161.417 14.7437L160.459 13.7863L158.544 11.68L156.63 10.3396L155.864 9.57373Z" 
fill="#373536"/>
<path d="M151.651 48.2524H157.396L159.31 48.6354L161.034 49.2098L161.225 49.5928L158.545 49.0184L156.247 48.8269H151.651L148.013 49.2098L144.758 49.9757H143.801L144.567 49.5928L147.822 48.8269L151.651 48.2524Z" 
fill="#373536"/>
<path d="M143.801 49.9761H145.716L146.673 50.1676L146.098 50.742L142.077 51.8909L140.354 52.2738L140.737 51.5079L141.886 50.5505L143.801 49.9761Z" 
fill="#151313"/>
<path d="M192.245 127.908L193.202 128.291L195.5 130.397L198.755 133.652L199.329 134.418V134.801L199.904 134.993L201.053 136.716L201.436 136.525L201.819 137.482V137.865L202.776 139.205V139.78H203.159L203.351 140.737L202.968 140.546V139.971H202.585L201.436 138.056L201.244 137.482H200.861L200.287 136.333L199.329 135.376L198.564 134.227V133.844H198.181L197.223 132.695L193.777 129.248L192.245 128.099V127.908Z" 
fill="#1F1C1D"/>
<path d="M79.0807 57.4436H79.2722L79.0807 59.5499L78.8893 59.7413V61.4647L78.6978 62.805L78.3148 63.188L77.9319 65.8687L77.7404 66.2516H77.3574V68.3579L76.9745 68.9323L76.5915 70.8471L76.2086 71.996H76.0171L76.2086 70.4642L77.166 66.0601L78.5063 59.5499L79.0807 57.4436Z" 
fill="#1F1C1D"/>
<path d="M61.8475 56.1033L62.422 56.8692L62.8049 61.0817L63.1879 63.3795L62.9964 64.7198H62.6134L62.2305 62.9965L61.8475 60.6988V56.1033Z" 
fill="#1F1C1E"/>
<path d="M7.4677 258.688L8.61657 259.454H8.80805L8.42509 264.432L7.85065 264.049H8.23361V262.518L7.27622 262.326L6.70178 261.56L7.27622 259.837L7.4677 258.688Z" 
fill="#282423"/>
<path d="M127.333 84.6335H128.291L128.482 85.208L127.142 86.1654H125.801L124.653 86.5483L123.504 86.7398V86.1654L123.121 85.7824L126.759 84.825L127.333 84.6335Z" 
fill="#191D23"/>
<path d="M53.6142 181.522L53.9971 181.905L53.8057 183.82L53.4227 184.011L53.2312 186.692L53.0397 187.075H52.6568V188.032L51.8909 188.607L52.2738 186.118L53.2312 181.714L53.6142 181.522Z" 
fill="#1A1615"/>
<path d="M98.6117 52.082H100.718L102.058 52.2735L102.633 52.8479H103.016L103.207 53.6139L100.909 53.4224L98.6117 52.8479V52.082Z" 
fill="#141212"/>
<path d="M160.268 49.7847H161.034L161.225 50.1676L161.991 50.3591L162.374 51.125V53.9972H161.8L161.225 51.6995L160.268 50.7421L159.885 49.9761L160.268 49.7847Z" 
fill="#171313"/>
<path d="M116.227 94.9731H121.972L121.78 95.5476H121.206V95.9305L120.823 96.122H118.142L116.993 95.5476V95.1646L116.227 94.9731Z" 
fill="#0C0B0D"/>
<path d="M0.191479 244.135L1.14887 244.71L1.53183 244.327L1.34035 247.965L0.957394 247.199H0.574436L0.382957 249.497H0.191479L0 246.433L0.191479 244.135Z" 
fill="#242529"/>
<path d="M129.439 53.0396H130.397L130.014 53.4225L130.397 54.3799L128.482 54.5714H126.567L127.333 54.1884L126.95 53.4225L127.333 53.231L129.439 53.0396Z" 
fill="#252120"/>
<path d="M153.757 116.802H161.034L161.608 116.993L165.438 117.376L166.012 117.759L162.374 117.568H161.034L160.842 117.376L153.375 117.185L153.757 116.802Z" 
fill="#1F1C1D"/>
<path d="M92.1013 109.526L92.2927 110.1L92.1013 114.887L91.7183 114.313V112.398H90.9524V110.675L91.9098 109.717L92.1013 109.526Z" 
fill="#141920"/>
<path d="M117.568 87.314L118.525 87.6969L118.334 88.2714H115.079L114.121 88.0799V88.4628H112.781L113.547 87.8884H114.313L114.504 87.5054L117.568 87.314Z" 
fill="#161C24"/>
<path d="M36.3808 138.439L36.9553 138.631L36.7638 139.397H36.3808L36.1894 140.163L35.232 141.503L34.2746 143.418L33.7001 143.992L33.5087 143.226L35.8064 139.397L36.3808 138.439Z" 
fill="#1E1C1C"/>
<path d="M105.122 85.0166H107.228L106.462 85.3996L106.271 85.974L105.505 86.5484H105.122L104.93 87.1229L104.165 87.3143V86.1655L104.739 85.2081L105.122 85.0166Z" 
fill="#171414"/>
<path d="M61.656 124.078L63.1878 124.27L65.2941 124.844L65.4856 124.27V125.036L64.5282 125.227L64.1452 125.419L61.4645 124.653L57.4435 124.461V124.27L61.656 124.078Z" 
fill="#252121"/>
<path d="M169.65 23.9353L170.416 24.7012L171.948 27.3819L173.288 31.02V32.1689L172.905 31.5945L171.948 28.7223L171.374 27.7649L170.799 26.4245L169.65 24.3183V23.9353Z" 
fill="#373536"/>
<path d="M188.798 198.755L189.181 199.521L189.756 202.393V203.35H189.373L188.99 202.01L188.607 201.436L188.224 199.329L188.798 198.755Z" 
fill="#1F1F21"/>
<path d="M63.5708 40.7849H63.7623L63.5708 42.5082L62.8049 46.9122L62.6134 49.21H62.2305L62.4219 45.7634L63.3793 41.3593L63.5708 40.7849Z" 
fill="#1F1C1D"/>
<path d="M44.0403 129.057L44.4233 129.248L43.4659 130.397L42.5085 131.163L42.7 131.737H42.317L41.9341 132.503L41.3596 133.078L40.4022 133.461L40.5937 132.695L41.9341 131.354L43.2744 129.823L44.0403 129.057Z" 
fill="#1B191A"/>
<path d="M106.845 89.4202H107.419L108.377 91.335L108.951 91.9094V92.2923L108.185 91.9094L107.802 91.5264L107.611 91.9094L106.654 90.952V89.6116L106.845 89.4202Z" 
fill="#181516"/>
<path d="M135.375 81.9529L136.141 82.3358L136.907 84.2506V85.208H135.758L135.95 83.8677L135.375 83.1018V81.9529Z" 
fill="#1D1917"/>
<path d="M186.5 187.266H186.692L187.075 189.181V191.096L186.692 191.479L186.117 190.138V188.415L186.5 187.266Z" 
fill="#171515"/>
<path d="M71.4214 116.419H72.3788L71.9959 116.802L70.464 117.568L68.1663 119.866L67.7833 119.291L68.5492 118.717L69.3152 117.568L71.4214 116.419Z" 
fill="#111012"/>
<path d="M93.0588 40.5935L93.6332 40.785L93.4418 41.1679L94.7821 41.5509V41.7424L91.3355 41.5509L88.6548 41.1679V40.9765H92.4844L93.0588 40.5935Z" 
fill="#1F1C1D"/>
<path d="M22.9773 236.667H24.8921L26.8069 237.433V237.816L26.2324 238.008L23.5517 237.433L23.3603 237.05H22.9773V236.667Z" 
fill="#141C25"/>
<path d="M172.714 123.503H173.097L173.48 124.078L174.246 124.461V124.844L174.629 125.035H174.246V125.418L174.82 125.61L174.246 125.801L174.054 126.759L173.48 125.993L172.714 124.269V123.503Z" 
fill="#1F1C1D"/>
<path d="M96.3138 51.3162L99.569 51.6991L100.526 51.8906V52.0821L98.8031 52.2736V52.6565L99.3775 53.0395L97.0798 52.848V52.6565L98.0372 52.465L97.4627 51.8906L96.3138 51.5076V51.3162Z" 
fill="#25201F"/>
<path d="M61.8475 56.1033L62.2305 56.6777L62.422 61.6562L62.039 61.2732L61.8475 60.6988V56.1033Z" 
fill="#111012"/>
<path d="M29.4878 150.311H29.8708L29.6793 152.034L28.7219 153.566L28.5304 152.991L28.1475 153.183L28.5304 152.034L29.4878 150.311Z" 
fill="#1C191A"/>
<path d="M51.6993 189.947L51.8907 190.713V192.436H51.3163L51.1248 193.585H50.9333V191.862L51.3163 190.139L51.6993 189.947Z" 
fill="#191514"/>
<path d="M62.9965 65.2942L63.3794 65.8686L64.3368 68.9323L63.7624 69.6982L62.9965 66.826V65.2942Z" 
fill="#151416"/>
<path d="M124.844 85.3994H125.993L125.61 86.3568L124.078 86.5483L123.504 86.7398V86.1653L123.121 85.7824L124.844 85.3994Z" 
fill="#1C1F24"/>
<path d="M43.274 228.817L43.8485 229.008L44.04 229.391L44.6144 229.583V229.966H48.444V230.157H43.274V228.817Z" 
fill="#201D1E"/>
<path d="M53.6138 181.522L53.9968 181.905L53.8053 183.82L52.8479 184.394L53.0394 182.48L53.2309 181.714L53.6138 181.522Z" 
fill="#181414"/>
<path d="M31.4024 147.822V148.396L29.8706 151.46L29.6791 150.885L29.8706 149.545L30.6365 148.588L31.4024 147.822Z" 
fill="#201D1D"/>
<path d="M201.436 137.482L202.202 137.673L204.499 141.503L204.308 142.077L203.159 140.354V139.779H202.776L201.819 138.056L201.436 137.482Z" 
fill="#181618"/>
<path d="M45.189 128.099L45.5719 128.291L45.189 128.674L45.3804 129.057H44.9975L44.6145 129.822H44.2316V130.205L42.8912 131.354L42.3168 131.163L42.8912 130.971L43.0827 130.397L43.8486 129.631H44.2316L44.6145 128.674L45.189 128.099Z" 
fill="#181617"/>
<path d="M190.521 215.797L191.67 216.18V217.903L191.287 218.094L190.713 217.711L190.521 215.797Z" 
fill="#171516"/>
<path d="M40.2105 133.078H40.785V133.652H40.402L40.0191 134.609L39.4446 135.567L38.6787 135.758V135.184L40.2105 133.078Z" 
fill="#201D1D"/>
<path d="M187.841 194.734L188.224 194.925L188.415 195.691V197.606L188.032 197.798L187.649 196.649L187.841 194.734Z" 
fill="#181514"/>
<path d="M208.329 149.354L209.095 150.119L210.435 152.609V153.758L210.052 153.375L209.095 151.077L208.521 150.119L208.329 149.354Z" 
fill="#1F1C1D"/>
<path d="M62.9962 63.5708H63.1877L63.9536 66.443L63.7622 67.2089L63.1877 65.8685L62.8048 66.06L62.6133 64.7197H62.9962V63.5708Z" 
fill="#201D1F"/>
<path d="M135.184 81.9529H135.375L135.758 83.4847L136.141 83.8677L135.758 85.0165L135.184 84.2506L134.801 82.1444L135.184 81.9529Z" 
fill="#141C25"/>
<path d="M90.3781 50.1675L92.4843 50.359L93.0588 50.7419L92.4843 50.9334V51.6993L90.9525 51.5078V51.3164L91.9099 51.1249L90.9525 50.7419L90.3781 50.1675Z" 
fill="#262120"/>
<path d="M48.2525 206.989L48.6354 207.18V208.52L47.8695 208.903L47.4866 209.478L47.6781 207.754L48.2525 206.989Z" 
fill="#191615"/>
<path d="M31.7855 146.098H32.1684V147.056L31.7855 147.821L30.6366 148.97L30.8281 147.821L31.7855 146.098Z" 
fill="#1C191A"/>
<path d="M189.755 203.35H189.947L190.138 205.074L189.564 205.265L189.181 205.074L188.99 203.733H189.564L189.755 203.35Z" 
fill="#1D1F23"/>
<path d="M187.075 191.479L187.649 192.053V193.968H187.075L186.883 192.628L187.075 192.053V191.479Z" 
fill="#131011"/>
<path d="M135.375 81.9529L136.141 82.3358L136.524 83.6762L135.567 83.4847L135.375 83.1018V81.9529Z" 
fill="#1A1615"/>
<path d="M190.904 212.35H191.096L191.287 213.881H191.67V216.179L191.287 215.988L190.904 214.073V212.35Z" 
fill="#141C25"/>
<path d="M187.649 192.819H187.841L188.032 194.734L187.841 195.691H187.458L187.266 195.308V194.159L187.649 192.819Z" 
fill="#202226"/>
<path d="M36.3809 138.439L36.9553 138.631L36.7638 139.397H36.3809L36.1894 140.163L35.6149 140.737L35.4235 139.971L36.3809 138.439Z" 
fill="#211E1E"/>
<path d="M134.992 70.6558H135.567L135.758 72.9535L135.375 73.5279V71.8046H134.992L134.801 70.8472L134.992 70.6558Z" 
fill="#1B1F25"/>
<path d="M230.349 260.028L230.923 260.603L231.115 261.752H230.732V263.666H230.54L230.349 260.028Z" 
fill="#2C2B2E"/>
<path d="M189.756 205.073L190.33 205.265L190.522 206.222V207.946L190.139 207.371L189.756 205.456V205.073Z" 
fill="#1A1615"/>
<path d="M206.988 145.907L207.563 146.673L207.18 146.864L208.329 148.779L208.137 149.353L207.563 148.396L206.988 147.63L206.797 146.673L206.988 145.907Z" 
fill="#1F1C1D"/>
<path d="M134.035 86.74L134.226 87.5059L134.035 88.4633H133.652L133.461 88.8463L132.886 88.6548L133.078 87.8889L133.652 87.3144H134.035V86.74Z" 
fill="#3B3634"/>
<path d="M170.416 22.2117L171.182 22.7861L171.756 23.3605L171.948 24.7009L171.373 24.5094L170.416 22.7861V22.2117Z" 
fill="#E0E2E2"/>
<path d="M231.306 258.496H231.498L231.689 261.368L232.072 261.56L231.498 262.134L231.306 261.56V258.496Z" 
fill="#39302B"/>
<path d="M106.079 87.1226L106.845 87.314V89.0373L106.462 88.2714H106.079L105.888 87.5055L106.079 87.1226Z" 
fill="#111012"/>
<path d="M96.5055 60.3157L97.2714 60.5072L96.314 61.4645L95.9311 61.656V61.2731L95.5481 61.0816L96.1225 60.5072L96.5055 60.3157Z" 
fill="#1F2226"/>
<path d="M216.371 231.498H217.329L217.137 231.881L217.903 232.455L215.031 232.264V232.072L216.371 231.881V231.498Z" 
fill="#2C2A2B"/>
<path d="M44.0401 129.057L44.423 129.248L43.4656 130.397L42.3168 131.354V130.78L44.0401 129.057Z" 
fill="#1F1D1D"/>
<path d="M73.9108 80.4214H74.1022V81.3788L73.5278 81.9532L72.9534 81.7617L73.1448 80.9958H73.5278V80.6129L73.9108 80.4214Z" 
fill="#120F10"/>
<path d="M62.422 62.4221L62.805 62.8051L62.9964 63.3795V64.7199H62.6135L62.422 64.3369V62.4221Z" 
fill="#121113"/>
<path d="M50.5504 194.351H50.9333V196.074H50.5504L50.3589 196.84V195.117L50.5504 194.351Z" 
fill="#1E1917"/>
<path d="M171.373 121.781L172.331 122.546L172.522 124.653L172.139 124.078L171.373 122.163V121.781Z" 
fill="#1E1B1C"/>
<path d="M130.014 53.2312H130.971V53.6142L131.546 53.9971L129.631 54.1886L130.206 53.9971V53.6142L129.631 53.4227L130.014 53.2312Z" 
fill="#0D0C0E"/>
</svg>
