<svg width="116" height="118" viewBox="0 0 116 118" fill="none" xmlns="http://www.w3.org/2000/svg">
<path d="M53.1216 0H62.1211L70.9291 0.765915L76.6735 1.53183L82.2264 2.6807L87.9707 4.59549L92.7577 6.89323L96.3958 9.19098L100.034 11.8717L102.906 14.5524L105.395 17.0416L107.885 20.2967L110.182 23.7434L112.289 27.7644L113.246 30.6366L114.203 35.4236L114.969 43.0827L115.544 52.0822V61.2732L114.969 65.1028L114.012 68.9324L112.863 71.996L111.331 75.0597L109.799 77.3574L108.267 78.6978L107.693 78.8892H105.587V83.4847L105.395 87.8887H105.204L105.012 84.0592L104.629 83.1018L104.438 93.4416H104.246L104.055 80.0381L103.863 77.3574L102.14 73.3364L101.183 69.6983L100.608 66.2516L100.417 62.2306L100.8 56.6777V53.997L100.225 51.6993L99.268 50.7419L97.9276 50.1674L96.5873 49.976H89.8855L85.8645 50.5504L81.6519 51.6993L77.2479 53.0396L72.078 53.997L67.4825 54.5714L64.9933 54.7629H55.8023L49.292 54.38L42.7818 53.8055L35.1226 52.6567L28.8038 51.3163H25.7402L23.8254 52.0822L21.7191 53.8055L20.3788 55.7203L19.2299 58.2095L18.2725 61.8476L16.7407 69.8897L15.4003 75.0597L13.8685 79.4637L13.1026 81.3785L12.9111 95.1649H12.7196L12.5281 92.8672L12.3366 86.1654L11.7622 85.591V94.2075H11.5707V82.7188L10.2304 82.9103L8.69855 82.1444L7.3582 80.6125L5.82637 77.9318L3.91158 73.3364L2.18827 67.592L1.42236 64.3369L0.847923 60.6988L0.464966 55.9118V50.7419L1.0394 44.9975L1.9968 39.6361L3.14567 35.0406L5.25193 28.9133L7.54968 23.7434L9.84742 19.7223L11.3793 17.4246L12.9111 15.3183L15.2088 12.6376L17.6981 10.3399L20.9532 8.04211L23.6339 6.51028L28.4209 4.59549L33.5908 3.06366L39.3351 1.72331L44.888 0.765915L50.4409 0.191479L53.1216 0ZM54.079 0.957394L47.3773 1.53183L43.3562 2.10627L38.5692 3.06366L31.676 4.78697L26.5061 6.51028L24.2083 7.46767L21.1447 8.9995L19.9958 9.76542L17.5066 11.6802L15.5918 13.595L14.06 15.7013L12.7196 17.616L10.6133 20.8712L8.89003 23.7434L6.40081 29.1048L4.86898 32.9343L3.14567 38.8702L2.18827 43.2742L1.61384 46.9123L1.42236 49.21V58.401L1.61384 61.0817L2.18827 64.5283L4.48602 72.1875L6.01785 76.0171L7.54968 79.2722L9.08151 81.187L10.0389 81.9529H11.1878L11.9537 81.187L13.4855 77.3574L14.4429 74.1023L15.5918 69.8897L16.7407 64.1454L17.8895 58.784L18.8469 55.9118L20.1873 53.8055L21.9106 51.8907L23.8254 50.7419L26.3146 49.976L29.1868 50.1674L35.3141 51.3163L39.5266 52.0822L46.2284 52.8481L54.462 53.4226H66.3336L71.1206 52.8481L76.482 51.8907L82.2264 50.3589L87.0134 49.21L90.6514 48.8271H95.2469L98.885 49.21L100.417 49.976L101.374 51.5078L101.757 53.4226V57.8266L101.566 60.1243L101.374 60.6988V65.6772L102.523 70.6557L103.289 72.7619L104.821 76.4H105.204L105.587 77.3574L106.544 78.1233H107.31L108.267 77.1659L109.608 75.4426L110.948 73.3364L112.289 70.4642L113.437 66.8261L114.203 63.3795L114.586 60.3158V52.6567L114.012 44.0401L113.629 39.6361L112.863 34.2747L112.097 30.4451L110.948 27.3815L109.799 25.2752L108.459 23.1689L106.544 20.4882L105.012 18.5734L102.715 16.0842L100.8 14.1694H100.417L100.225 13.595L99.268 12.6376L97.5447 11.1058L94.6725 9.19098L91.6088 7.46767L87.7793 5.74436L83.1838 4.21253L79.1627 3.25514L74.9502 2.48922L64.9933 1.34035L60.0149 0.957394H54.079Z" fill="#141112"/>
<path d="M31.4843 108.335H31.0701L30.7772 108.628L30.5857 108.819L30.2928 109.112V109.526V115.654V116.068L30.5857 116.361L30.7772 116.552L31.0701 116.845H31.4843H84.9069H85.03L85.1494 116.815L85.9153 116.624L86.6728 116.434V115.654V109.526V108.595L85.744 108.529L83.0634 108.337L83.0278 108.335H82.9921H31.4843Z" stroke="black" stroke-width="2"/>
<path d="M71.1204 80.6125L72.8438 80.804L74.3756 81.5699L75.1415 82.3359L75.9074 84.2506V85.208H74.7585L73.9926 84.8251L73.4182 86.5484L72.6523 90.1865L71.3119 92.8672L69.7801 94.5905L67.4823 95.9308L64.6102 96.8882L61.355 97.4627H55.2277L51.2067 96.6968L48.3345 95.5479L46.6112 94.2075L45.0793 92.4842L43.739 89.4206L43.1646 87.3143V86.1654L43.739 85.208L44.1219 85.0166H46.2282L50.2493 85.7825L53.5044 86.1654H59.4402L63.0783 85.591L66.3335 84.6336L69.0142 83.4847L70.1631 82.5273L70.546 81.9529L70.929 80.804L71.1204 80.6125Z" fill="#221E1E"/>
<path d="M53.1212 0H62.1207L70.9287 0.765915L76.6731 1.53183L82.226 2.6807L87.9704 4.59549L92.7573 6.89323L96.3954 9.19098L100.034 11.8717L102.906 14.5524L105.395 17.0416L107.884 20.2967L110.182 23.7434L112.288 27.7644L113.246 30.6366L114.203 35.4236L114.969 43.0827L115.543 52.0822V61.2732L114.969 65.1028L114.011 68.9323L112.863 71.996L111.331 75.0597L109.799 77.3574L108.267 78.6978L107.693 78.8892H105.969V78.5063L105.395 78.3148L105.969 78.1233H107.501L108.65 77.1659L110.565 74.2937L112.097 71.4216L113.054 68.7409L114.011 64.9113L114.394 60.3158V52.6567L113.82 44.0401L113.437 39.6361L112.671 34.2747L111.905 30.4451L110.756 27.3815L109.607 25.2752L108.267 23.1689L106.352 20.4882L104.82 18.5734L102.523 16.0842L100.799 14.3609L99.2676 13.0206L98.3102 11.8717L95.2466 9.76542L92.3744 8.04211L88.7363 6.3188L85.0982 4.97845L80.1197 3.6381L74.9498 2.6807L64.9929 1.53183L60.0145 1.14887H54.0786L47.3769 1.72331L43.3558 2.29774L38.5688 3.25514L31.6756 4.97845L26.5057 6.70176L24.2079 7.65915L21.1443 9.19098L19.9954 9.95689L17.5062 11.8717L15.7829 13.595L14.251 15.7013L12.9107 17.616L10.8044 20.8712L9.08112 23.7434L6.5919 29.1048L5.06007 32.9343L3.33676 38.8702L2.9538 40.785H2.57084L2.18789 42.8912L1.61345 45.7634L1.23049 49.21L1.03901 50.1674H0.847534V46.5293L1.61345 41.5509L2.76232 36.381L5.06007 29.4877L6.78337 25.4667L8.3152 22.403L10.23 19.1479L12.7192 15.5098L15.2084 12.6376L17.6977 10.3399L20.9528 8.04211L23.6335 6.51028L28.4205 4.59549L33.5904 3.06366L39.3348 1.72331L44.8876 0.765915L50.4405 0.191479L53.1212 0Z" fill="#131213"/>
<path d="M104.438 82.719L105.012 83.2934L105.203 84.0593L105.395 87.8889V95.3566L104.629 98.6117L103.672 100.909L101.948 103.399L101.182 104.356L99.6506 105.696L96.7784 107.611L93.9062 108.76L90.6511 109.335L87.5874 109.526L87.2045 110.1H86.4385V110.483L85.8641 110.292V109.526H31.4841L30.5268 109.909L30.1438 110.675L29.9523 112.398H29.7608V109.335H25.9313L22.4846 108.569L19.2295 107.037L16.9318 105.313L15.3999 103.782L13.6766 101.292L12.7192 99.3776L11.9533 96.8884L11.7618 95.931V85.5912L12.3363 85.7827L12.5278 86.1656L12.7192 92.8674L12.9107 95.1651L13.8681 98.4202L15.3999 101.484L17.1232 103.59L18.8466 105.122L21.9102 106.845L24.3994 107.611L25.3568 107.803L29.5694 107.994L91.417 107.803L94.4806 107.037L97.5443 105.505L99.4591 103.973L100.991 102.25L102.523 99.5691L103.48 97.2714L104.246 93.4418L104.438 82.719Z" fill="#151313"/>
<path d="M92.566 32.5513H99.6507L99.8422 32.7427V34.0831H92.183L87.779 34.6575L82.2261 35.8064L68.4397 39.253L61.9294 40.5934L56.9509 41.3593L51.398 41.9337L48.3344 42.1252H38.3775L30.3354 41.5508L23.0592 40.4019L16.166 38.8701L14.0597 38.1042V37.1468L14.8256 36.9553L22.1018 38.4871L29.378 39.636L35.1224 40.2104L38.9519 40.4019H46.994L52.7384 40.0189L59.2487 39.253L64.6101 38.2956L70.5459 36.9553L83.375 33.8916L87.2046 33.1257L90.0768 32.7427L92.566 32.5513Z" fill="#151B23"/>
<path d="M70.7375 85.7825H71.3119L71.1204 86.9313L70.546 87.8887H70.163L69.9715 88.4632L67.0994 89.995L66.142 90.378V90.7609L68.2482 91.1439L69.0141 91.7183V92.1013L66.3334 93.4416L63.8442 94.2075L61.1635 94.782L59.6317 94.9734H56.568L52.7384 94.399L49.6748 93.4416L47.9515 92.2927L46.9941 91.1439L45.8452 88.6547V87.6973L48.5259 87.8887L53.8873 88.4632H60.0146L63.2698 88.0802L67.2908 87.1228L70.7375 85.7825Z" fill="#F5F7F6"/>
<path d="M80.1197 17.0413H82.4174L87.3959 17.6157L91.6084 18.5731L96.2039 20.1049L96.5868 20.2964V21.6367L95.6294 21.4453L91.9913 20.2964L88.7362 19.5305L84.3322 18.7646L82.0345 18.5731H80.1197L76.8645 18.956L72.4605 19.9134L62.3121 22.7856L57.5252 24.126L49.1001 26.0408L42.5898 26.9982L40.1006 27.1896H33.0159L27.846 26.8067L22.1016 25.8493L16.9317 24.5089L15.2084 23.743V22.7856L16.9317 22.9771L21.9101 24.126L26.3141 24.8919L30.5267 25.4663L33.0159 25.6578H37.9943L43.9302 25.0834L49.4831 24.126L57.1422 22.4027L63.2695 20.6794L67.6735 19.5305L72.8435 18.1901L76.4816 17.4242L80.1197 17.0413Z" fill="#151B24"/>
<path d="M46.0367 66.4429H47.3771L49.2918 67.2088L50.6322 68.5491L51.3981 69.8895L51.5896 70.6554V72.3787L50.8237 74.102L49.4833 75.6339L47.9515 76.3998L46.0367 76.5912L44.3134 76.0168L43.1645 75.2509L42.0156 73.7191L41.6327 72.7617V70.2724L42.5901 68.3577L44.1219 67.0173L46.0367 66.4429Z" fill="#201D1D"/>
<path d="M69.5883 66.4429L71.3116 66.6343L72.8434 67.4003L74.1838 68.7406L74.9497 70.6554V72.3787L74.1838 74.102L72.8434 75.6339L71.3116 76.3998L69.3968 76.5912L67.2905 75.8253L65.9502 74.6765L64.9928 72.7617V70.2724L65.9502 68.3577L67.482 67.0173L69.5883 66.4429Z" fill="#211D1E"/>
<path d="M90.6512 48.636H95.2467L98.8848 49.0189L100.417 49.7849L101.182 50.7423L101.757 52.0826L101.948 53.423V57.827L101.757 60.1247L101.565 60.6991V65.6776L102.714 70.656L103.48 72.7623L104.821 75.826V76.4004H105.204L105.969 77.5493L107.31 78.1237L107.501 77.5493L108.65 76.5919L110.756 73.3367L112.097 70.4646L113.246 66.8265L114.012 63.3798H114.203V64.9117L113.246 68.7413L112.288 71.422L110.756 74.2941L109.225 76.5919L107.884 78.1237L107.501 78.3152H105.587L105.969 78.6981L105.587 78.8896V83.4851L105.395 87.8891H105.204L105.012 84.0596L104.629 83.1022L104.438 93.442H104.246L104.055 80.0385L103.863 77.3578L102.14 73.3367L101.182 69.6986L100.608 66.252L100.417 62.231L100.8 56.6781V53.9974L100.225 51.6996L99.2677 50.7423L97.9274 50.1678L96.587 49.9763H89.8853L85.2898 50.5508L84.7153 50.1678L83.7579 49.9763L84.5238 49.5934L88.3534 48.8275L90.6512 48.636Z" fill="#221E1E"/>
<path d="M82.8006 49.9761H84.7154L85.6728 50.1676L85.0984 50.742L81.0773 51.8909L77.2477 53.0397L72.0778 53.9971L67.4823 54.5716L64.9931 54.763H55.8021L49.2918 54.3801L46.6111 54.1886V53.9971L48.7174 53.8056L47.9515 53.6142L46.6111 53.4227L45.8452 53.0397L42.7816 52.8483L42.0156 53.2312V52.8483L41.4412 53.0397L40.8668 52.4653L39.7179 52.2738V52.0823L43.1645 52.2738L46.2282 52.6568L54.4618 53.2312H66.3334L71.1204 52.6568L76.4818 51.6994L82.2262 50.1676L82.8006 49.9761Z" fill="#221E1E"/>
<path d="M2.57123 40.7849H2.76271L2.57123 42.5082L1.80532 46.9122L1.61384 49.21V58.401L1.80532 61.0817L2.37975 64.5283L4.6775 72.1874L6.20933 76.017L7.74116 79.2721L9.27299 81.1869L10.0389 81.7614H11.1878L11.7622 81.1869L13.294 77.3573L13.677 76.2085H13.8685V77.3573L13.4855 78.5062L13.1026 79.4636L12.9111 80.6125H12.5281V80.9954H12.1452L11.9537 81.7614L12.9111 81.5699V95.1649H12.7196L12.5281 92.8671L12.3366 86.1654L11.7622 85.5909V94.2075H11.5707V82.7188L10.2304 82.9102L8.69855 82.1443L7.3582 80.6125L5.82637 77.9318L3.91158 73.3363L2.18827 67.5919L1.42236 64.3368L0.847923 60.6987L0.464966 55.9117V50.7418L0.656445 48.2526H0.847923L1.0394 49.21L1.61384 44.6145L2.37975 41.3593L2.57123 40.7849Z" fill="#1F1C1D"/>
<path d="M47.7601 57.4436H51.0153L52.9301 57.8266L53.313 58.2095V59.3584L53.1215 59.7413L46.4198 59.9328L41.8243 60.6987L37.9947 61.8476L36.4629 62.422H35.1225L34.5481 61.0817L35.1225 60.5073L39.1436 58.9754L43.9306 57.8266L47.7601 57.4436Z" fill="#383534"/>
<path d="M64.8018 58.0181H68.4398L72.0779 58.401L75.716 59.1669L80.1201 60.6988L81.6519 61.6562L81.2689 62.805L81.0774 62.9965L79.3541 62.805L75.1416 61.4647L71.312 60.6988L69.0143 60.5073L63.0784 60.3158L62.887 58.9755L63.6529 58.2095L64.8018 58.0181Z" fill="#393534"/>
<path d="M15.2084 22.7859L16.9317 22.9774L21.9101 24.1262L26.3141 24.8922L30.5267 25.4666L33.0159 25.6581H37.9943L41.6324 25.4666L43.3557 25.6581L44.1217 26.2325V26.8069L40.1006 27.1899H33.0159L27.846 26.8069L22.1016 25.8495L16.9317 24.5092L15.2084 23.7433V22.7859Z" fill="#151B23"/>
<path d="M44.1219 85.0166H46.2282L50.2493 85.7825L53.5044 86.1655H61.9295L61.5465 86.5484H60.7806L60.3976 87.3143H60.0147L59.6317 88.0803L60.5891 88.2717L60.0147 88.6547H53.8874L48.526 88.0803L46.9941 87.6973L47.5686 87.3143L46.8026 86.9314V86.5484L46.0367 86.357V85.974L45.4623 85.7825L45.2708 85.974L44.5049 86.5484H44.1219L43.9305 87.1229L43.1646 87.3143V86.1655L43.739 85.2081L44.1219 85.0166Z" fill="#141112"/>
<path d="M114.012 63.3796H114.203V64.9115L113.246 68.741L112.288 71.4217L110.757 74.2939L109.225 76.5917L107.884 78.1235L107.501 78.315H105.587L105.97 78.6979L105.587 78.8894V83.4849L105.395 87.8889H105.204L105.012 84.0593L104.629 83.1019L104.438 93.4418H104.246L104.055 80.0383L103.863 77.3576L102.14 73.3365L101.374 70.6558V68.741L101.949 69.3155L102.332 70.4644L103.097 72.3791V72.7621H103.48L104.821 75.8258V76.4002H105.204L105.97 77.5491L107.31 78.1235L107.501 77.5491L108.65 76.5917L110.757 73.3365L112.097 70.4644L113.246 66.8263L114.012 63.3796Z" fill="#161313"/>
<path d="M46.0365 66.4429H47.3769L49.2916 67.2088L50.632 68.5491L51.3979 69.8895L51.5894 70.6554V72.3787L50.8235 74.102L49.4831 75.6339L48.9087 76.0168L47.5683 75.8253L47.7598 75.0594L49.6746 74.102L49.8661 73.5276L50.632 73.3361V71.4213L49.4831 71.2298L48.5257 71.4213L49.1002 70.081L48.9087 68.7406L47.9513 67.9747L46.6109 67.7832L45.4621 68.7406L45.0791 70.6554L44.6962 70.2724L44.5047 69.3151L43.7388 68.7406L42.9728 69.5065L42.3984 70.4639H42.0155L41.824 71.0384V69.698L42.7814 68.1662L44.1217 67.0173L46.0365 66.4429Z" fill="#141212"/>
<path d="M18.0807 57.4436H18.2722L18.0807 59.5499L17.8892 59.7413V62.2306L18.0807 62.9965L16.5489 70.8471L15.2085 75.6341L13.8682 79.4637L12.9108 81.5699L12.5278 81.9529L11.9534 81.7614L12.1448 80.9955H12.5278V80.6125H12.9108V79.4637L13.4852 77.7403L13.6767 77.3574L14.0596 75.0596L15.2085 70.4642L16.1659 66.0601L17.5063 59.5499L18.0807 57.4436Z" fill="#181414"/>
<path d="M29.3781 50.1675L31.4843 50.359L36.0798 51.3164L39.5264 51.8908L40.8668 52.2737L41.6327 52.8482H42.0156L42.2071 53.0397L42.7816 52.6567L45.8452 52.8482L47.5685 53.4226H48.5259L49.1004 53.9971H44.6964L38.7605 53.2311L33.9735 52.4652L29.9525 51.5078V51.3164L30.9099 51.1249L29.9525 50.7419L29.3781 50.1675Z" fill="#141212"/>
<path d="M69.5885 66.4429L71.3118 66.6343L72.8436 67.4003L74.1839 68.7406L74.9499 70.6554V72.3787H74.5669V70.6554L72.4606 71.2298L71.8862 71.6128L72.2692 70.2724L72.0777 68.9321L71.1203 67.9747L69.7799 67.7832L68.8225 68.3577L68.2481 69.1236L68.0566 70.2724L67.8652 71.0384L66.7163 69.698L65.5674 70.6554L65.3759 72.5702H65.1844V69.698L66.1418 68.1662L67.4822 67.0173L69.5885 66.4429Z" fill="#141212"/>
<path d="M52.5471 53.4226H54.079L55.0364 53.6141L55.4193 53.997L55.6108 53.6141H66.1421L66.3336 54.1885L66.908 54.38L64.9932 54.763H55.8023L49.292 54.38V53.997H51.5897V53.6141L52.5471 53.4226Z" fill="#161212"/>
<path d="M90.6512 48.636H95.2467L98.8848 49.0189L100.417 49.7849L100.8 50.3593L100.034 50.1678V49.7849L98.8848 49.9763V50.3593L96.587 49.9763H89.8853L85.2898 50.5508L84.7153 50.1678L83.7579 49.9763L84.5238 49.5934L88.3534 48.8275L90.6512 48.636Z" fill="#231F1F"/>
<path d="M69.78 67.5918L71.1204 67.7833L72.0778 68.5492L72.4607 69.5066L72.2692 70.6555L71.6948 71.6129L70.7374 72.1873H69.5885L68.4397 71.4214L67.8652 70.2725L68.0567 69.1236L69.2056 67.7833L69.78 67.5918Z" fill="#F0F2F1"/>
<path d="M41.4413 25.4663L43.3561 25.6578L44.122 26.2322V26.8067L40.101 27.1896H33.0162L29.9526 26.9981L29.7611 26.6152L31.1015 26.2322H36.8458L38.7606 25.8493L41.0584 25.6578L41.4413 25.4663Z" fill="#0E0D0F"/>
<path d="M46.6111 67.5918L47.9514 67.7833L49.1003 68.7407L49.2918 70.081L48.7173 71.2299L47.9514 71.8043H46.4196L45.2707 70.8469L45.0792 70.464L45.2707 68.7407L46.6111 67.5918Z" fill="#F0F2F1"/>
<path d="M13.6767 76.2085H13.8682V77.3574L13.4853 78.5062L13.1023 79.4636L12.9108 80.6125H12.5279V80.9955H12.1449L11.9534 81.7614L12.9108 81.5699V95.1649H12.7193L12.5279 92.8671L12.3364 86.1654L11.762 85.591V94.2075H11.5705V82.7188L10.996 82.5273L11.379 82.1443H9.84716L8.88977 81.3784L9.08125 80.9955L10.0386 81.7614H11.1875L11.762 81.1869L13.2938 77.3574L13.6767 76.2085Z" fill="#2A2626"/>
<path d="M100.991 50.3586L101.757 51.1246L102.523 54.1882L102.714 56.6774L102.14 61.6559L102.331 66.6343L102.906 69.315L103.097 70.2724L103.672 72.5702L103.48 73.1446L102.714 71.2298L101.948 68.1662L101.374 65.4855V60.6985L101.565 60.1241L101.757 57.8263V53.4223L101.374 51.5075L100.991 50.3586Z" fill="#373536"/>
<path d="M1.99646 65.2942L2.37942 65.8686L3.33681 68.9323L4.48568 72.7619L5.2516 74.2937L6.40047 77.5488L7.9323 80.0381L8.31526 80.6125L8.88969 80.804L9.27265 81.5699L9.84709 81.9528H11.5704L11.3789 82.5273L10.8045 82.9102L9.65561 82.7188L8.12378 81.5699L6.40047 79.0807L4.86864 75.8255L3.33681 71.613L1.99646 66.826V65.2942Z" fill="#151314"/>
<path d="M15.4 13.5952V14.1697L14.0597 15.893L12.5278 18.1907L10.2301 21.8288L9.0812 23.7436L6.59198 29.105L5.06015 32.9346L3.7198 37.5301H3.52832V36.1897L3.91128 34.8494L4.86867 31.5942L6.01754 28.722L6.20902 28.1476H6.59198L6.78346 26.9987L8.31529 24.1265L8.69825 23.1692L9.65564 21.8288L10.613 19.914H10.996L11.3789 18.9566L12.3363 17.2333L12.9108 16.8504L13.2937 15.51L14.6341 14.3611L15.4 13.5952Z" fill="#1F1C1D"/>
<path d="M104.055 77.3574L105.012 77.7404V78.1233L105.969 78.5063L105.587 78.8893V83.4847L105.395 87.8888H105.204L105.012 84.0592L104.629 83.1018L104.438 93.4416H104.246L104.055 77.3574Z" fill="#302D2C"/>
<path d="M39.7179 52.082L43.1645 52.2735L46.2282 52.6565L54.4618 53.2309L65.9505 53.4224V53.6139L55.6106 53.8053L54.6532 53.9968L54.0788 53.6139H52.547L51.3981 54.1883H46.6111V53.9968L48.7174 53.8053L47.9515 53.6139L46.6111 53.4224L45.8452 53.0394L42.7816 52.8479L42.0156 53.2309V52.8479L41.4412 53.0394L40.8668 52.465L39.7179 52.2735V52.082Z" fill="#201D1D"/>
<path d="M33.3992 50.7422L35.8884 50.9337L37.6117 51.3166L41.0583 51.6996L41.8242 51.8911L51.0152 52.657L57.1425 53.0399H65.3761L69.3972 52.8485V53.0399L66.3335 53.4229H54.4618L46.2282 52.8485L39.5265 52.0825L35.314 51.3166L33.3992 50.9337V50.7422Z" fill="#373536"/>
<path d="M2.57123 40.7849H2.76271L2.57123 42.5082L1.80532 46.9122L1.61384 49.21L1.42236 56.8691L1.0394 56.6776L0.847923 58.7839H0.656445L0.464966 55.9117V50.7418L0.656445 48.2526H0.847923L1.0394 49.21L1.61384 44.6145L2.37975 41.3593L2.57123 40.7849Z" fill="#222020"/>
<path d="M37.6117 52.082H39.718L41.0583 52.2735L41.6327 52.8479H42.0157L42.2072 53.0394L42.7816 52.6565L45.8453 52.8479L47.5686 53.4224H48.526L49.1004 53.9968H44.6964L38.7606 53.2309L37.6117 52.8479V52.082Z" fill="#121011"/>
<path d="M18.2723 56.2947L18.4637 56.8691L17.5063 60.5072L16.3575 66.0601L15.4001 70.4641L14.0597 75.634L12.9108 78.8892L11.762 81.5699L11.1875 81.9528H10.0387L8.50684 80.6125L8.69831 80.2295L10.0387 81.3784H10.9961L11.9535 80.038L13.2938 76.3999L14.6342 71.8045L15.9745 65.6771L16.9319 60.3157L17.6978 57.4436L18.2723 56.2947Z" fill="#373536"/>
<path d="M43.9303 88.8464L44.6962 89.6124V89.9953H45.0792L45.8451 91.5271L47.1854 93.059L48.5258 94.0164L49.2917 94.3993L49.8661 95.1652V95.5482H50.2491V95.9311H49.1002L47.1854 94.7823L45.6536 93.2504L44.5047 91.3357L43.9303 89.9953V88.8464Z" fill="#141111"/>
<path d="M112.48 32.1685L112.863 32.3599L113.437 35.4236L113.82 39.2532L114.203 42.1254V43.8487L114.777 50.1675V60.5073L114.586 62.0391H114.395V52.6567L113.82 44.0401L113.437 39.6361L112.671 34.2747L112.48 32.1685Z" fill="#1F1C1D"/>
<path d="M113.437 65.1028L113.629 65.8687L112.671 69.3153L111.714 71.8045L110.565 73.9108L108.65 76.783L107.501 77.7404L107.31 78.1233L106.352 77.9319L105.395 76.9745L105.203 76.4H104.821L103.672 73.5278L103.863 73.1449L105.395 76.0171L105.969 76.9745V77.3574H107.693L108.076 76.4H108.459L109.033 75.2512H109.416V74.4852H109.799L110.182 73.3364L111.714 70.4642L113.054 66.6346L113.437 65.1028Z" fill="#373536"/>
<path d="M114.011 63.3796H114.203V64.9115L113.245 68.741L112.288 71.4217L110.756 74.2939L109.224 76.5917L107.884 78.1235L107.501 78.315H105.969L105.395 78.1235L104.82 76.4002H105.203L105.969 77.5491L107.31 78.1235L107.501 77.5491L108.65 76.5917L110.756 73.3365L112.097 70.4644L113.245 66.8263L114.011 63.3796Z" fill="#1F1C1D"/>
<path d="M94.8636 9.57373L95.821 9.95669L98.5017 11.8715L99.8421 13.4033L100.417 13.7863V14.1692L101.182 14.5522L104.246 17.6158L105.969 19.7221L106.161 20.2965H105.778L105.203 19.5306V19.1477H104.821L104.055 18.1903L103.48 17.8073V17.4244L102.714 17.0414V16.6584H102.331L101.374 15.5096L100.417 14.7437L99.4591 13.7863L97.5443 11.68L95.6296 10.3396L94.8636 9.57373Z" fill="#373536"/>
<path d="M90.6513 48.2524H96.3956L98.3104 48.6354L100.034 49.2098L100.225 49.5928L97.5445 49.0184L95.2468 48.8269H90.6513L87.0132 49.2098L83.7581 49.9757H82.8007L83.5666 49.5928L86.8217 48.8269L90.6513 48.2524Z" fill="#373536"/>
<path d="M82.8007 49.9761H84.7155L85.6729 50.1676L85.0985 50.742L81.0774 51.8909L79.3541 52.2738L79.7371 51.5079L80.886 50.5505L82.8007 49.9761Z" fill="#151313"/>
<path d="M18.0807 57.4436H18.2722L18.0807 59.5499L17.8893 59.7413V61.4647L17.6978 62.805L17.3148 63.188L16.9319 65.8687L16.7404 66.2516H16.3574V68.3579L15.9745 68.9323L15.5915 70.8471L15.2086 71.996H15.0171L15.2086 70.4642L16.166 66.0601L17.5063 59.5499L18.0807 57.4436Z" fill="#1F1C1D"/>
<path d="M0.847534 56.1033L1.42197 56.8692L1.80493 61.0817L2.18789 63.3795L1.99641 64.7198H1.61345L1.23049 62.9965L0.847534 60.6988V56.1033Z" fill="#1F1C1E"/>
<path d="M66.3333 84.6335H67.2907L67.4821 85.208L66.1418 86.1654H64.8014L63.6526 86.5483L62.5037 86.7398V86.1654L62.1207 85.7824L65.7588 84.825L66.3333 84.6335Z" fill="#191D23"/>
<path d="M37.6117 52.082H39.718L41.0583 52.2735L41.6327 52.8479H42.0157L42.2072 53.6139L39.9094 53.4224L37.6117 52.8479V52.082Z" fill="#141212"/>
<path d="M99.2678 49.7847H100.034L100.225 50.1676L100.991 50.3591L101.374 51.125V53.9972H100.8L100.225 51.6995L99.2678 50.7421L98.8849 49.9761L99.2678 49.7847Z" fill="#171313"/>
<path d="M55.2274 94.9731H60.9718L60.7803 95.5476H60.2059V95.9305L59.8229 96.122H57.1422L55.9933 95.5476V95.1646L55.2274 94.9731Z" fill="#0C0B0D"/>
<path d="M68.4394 53.0396H69.3968L69.0139 53.4225L69.3968 54.3799L67.482 54.5714H65.5673L66.3332 54.1884L65.9502 53.4225L66.3332 53.231L68.4394 53.0396Z" fill="#252120"/>
<path d="M31.1013 109.526L31.2927 110.1L31.1013 114.887L30.7183 114.313V112.398H29.9524V110.675L30.9098 109.717L31.1013 109.526Z" fill="#141920"/>
<path d="M56.5679 87.314L57.5252 87.6969L57.3338 88.2714H54.0786L53.1212 88.0799V88.4628H51.7809L52.5468 87.8884H53.3127L53.5042 87.5054L56.5679 87.314Z" fill="#161C24"/>
<path d="M44.1219 85.0166H46.2282L45.4623 85.3996L45.2708 85.974L44.5049 86.5484H44.1219L43.9305 87.1229L43.1646 87.3143V86.1655L43.739 85.2081L44.1219 85.0166Z" fill="#171414"/>
<path d="M108.65 23.9353L109.416 24.7012L110.948 27.3819L112.288 31.02V32.1689L111.905 31.5945L110.948 28.7223L110.374 27.7649L109.799 26.4245L108.65 24.3183V23.9353Z" fill="#373536"/>
<path d="M2.57082 40.7849H2.7623L2.57082 42.5082L1.8049 46.9122L1.61343 49.21H1.23047L1.42195 45.7634L2.37934 41.3593L2.57082 40.7849Z" fill="#1F1C1D"/>
<path d="M45.845 89.4202H46.4195L47.3769 91.335L47.9513 91.9094V92.2923L47.1854 91.9094L46.8024 91.5264L46.611 91.9094L45.6536 90.952V89.6116L45.845 89.4202Z" fill="#181516"/>
<path d="M74.3754 81.9529L75.1413 82.3358L75.9072 84.2506V85.208H74.7583L74.9498 83.8677L74.3754 83.1018V81.9529Z" fill="#1D1917"/>
<path d="M32.0588 40.5935L32.6332 40.785L32.4418 41.1679L33.7821 41.5509V41.7424L30.3355 41.5509L27.6548 41.1679V40.9765H31.4844L32.0588 40.5935Z" fill="#1F1C1D"/>
<path d="M35.3138 51.3162L38.569 51.6991L39.5264 51.8906V52.0821L37.8031 52.2736V52.6565L38.3775 53.0395L36.0798 52.848V52.6565L37.0372 52.465L36.4627 51.8906L35.3138 51.5076V51.3162Z" fill="#25201F"/>
<path d="M0.847534 56.1033L1.23049 56.6777L1.42197 61.6562L1.03901 61.2732L0.847534 60.6988V56.1033Z" fill="#111012"/>
<path d="M1.99646 65.2942L2.37942 65.8686L3.33681 68.9323L2.76237 69.6982L1.99646 66.826V65.2942Z" fill="#151416"/>
<path d="M63.844 85.3994H64.9929L64.61 86.3568L63.0781 86.5483L62.5037 86.7398V86.1653L62.1207 85.7824L63.844 85.3994Z" fill="#1C1F24"/>
<path d="M1.99624 63.5708H2.18772L2.95363 66.443L2.76215 67.2089L2.18772 65.8685L1.80476 66.06L1.61328 64.7197H1.99624V63.5708Z" fill="#201D1F"/>
<path d="M74.1839 81.9529H74.3753L74.7583 83.4847L75.1413 83.8677L74.7583 85.0165L74.1839 84.2506L73.8009 82.1444L74.1839 81.9529Z" fill="#141C25"/>
<path d="M29.3781 50.1675L31.4843 50.359L32.0588 50.7419L31.4843 50.9334V51.6993L29.9525 51.5078V51.3164L30.9099 51.1249L29.9525 50.7419L29.3781 50.1675Z" fill="#262120"/>
<path d="M74.3754 81.9529L75.1413 82.3358L75.5242 83.6762L74.5668 83.4847L74.3754 83.1018V81.9529Z" fill="#1A1615"/>
<path d="M73.9924 70.6558H74.5668L74.7583 72.9535L74.3753 73.5279V71.8046H73.9924L73.8009 70.8472L73.9924 70.6558Z" fill="#1B1F25"/>
<path d="M73.035 86.74L73.2265 87.5059L73.035 88.4633H72.652L72.4605 88.8463L71.8861 88.6548L72.0776 87.8889L72.652 87.3144H73.035V86.74Z" fill="#3B3634"/>
<path d="M109.416 22.2117L110.182 22.7861L110.756 23.3605L110.948 24.7009L110.373 24.5094L109.416 22.7861V22.2117Z" fill="#E0E2E2"/>
<path d="M45.0792 87.1226L45.8451 87.314V89.0373L45.4621 88.2714H45.0792L44.8877 87.5055L45.0792 87.1226Z" fill="#111012"/>
<path d="M35.5055 60.3157L36.2714 60.5072L35.314 61.4645L34.9311 61.656V61.2731L34.5481 61.0816L35.1225 60.5072L35.5055 60.3157Z" fill="#1F2226"/>
<path d="M12.9108 80.4214H13.1022V81.3788L12.5278 81.9532L11.9534 81.7617L12.1448 80.9958H12.5278V80.6129L12.9108 80.4214Z" fill="#120F10"/>
<path d="M1.422 62.4221L1.80495 62.8051L1.99643 63.3795V64.7199H1.61348L1.422 64.3369V62.4221Z" fill="#121113"/>
<path d="M69.0141 53.2312H69.9715V53.6142L70.5459 53.9971L68.6311 54.1886L69.2055 53.9971V53.6142L68.6311 53.4227L69.0141 53.2312Z" fill="#0D0C0E"/>
</svg>
