<svg width="139" height="156" viewBox="0 0 139 156" fill="none" xmlns="http://www.w3.org/2000/svg">
<path d="M2.46516 71.0471H1.64536L1.48458 71.851L1.2931 72.8084L1.27368 72.9055V73.0045V124.321V124.735L1.56657 125.028L1.75805 125.219L2.05095 125.512H2.46516H62.5895H63.5762L63.5894 124.526L63.7809 110.165H63.781V110.151V95.0246H63.781L63.7809 95.0129L63.5894 78.5458L63.5862 78.269L63.4411 78.0333L61.9814 75.6612L60.8703 71.7724L60.6631 71.0471H59.9088H2.46516Z" stroke="black" stroke-width="2"/>
<path d="M79.0565 71.0471H78.6422L78.3494 71.34L78.1579 71.5315L77.9491 71.7403L77.8872 72.0291L77.3345 74.6081L76.6454 76.1587L75.5437 77.8112L75.4571 77.9411L75.4142 78.0912L75.0313 79.4315L74.9928 79.5662V79.7063V124.321V124.735L75.2857 125.028L75.4772 125.219L75.7701 125.512H76.1843H136.117H136.531L136.824 125.219L137.016 125.028L137.309 124.735V124.321V72.2386V71.8244L137.016 71.5315L136.824 71.34L136.531 71.0471H136.117H79.0565Z" stroke="black" stroke-width="2"/>
<path d="M2.65664 16.6675H2.24243L1.94953 16.9604L1.75805 17.1519L1.48096 17.4289L1.4659 17.8205L1.27442 22.799L1.27368 22.8182V22.8374V69.1753V69.2743L1.2931 69.3714L1.48458 70.3288L1.64536 71.1327H2.46516H59.9088H60.323L60.6159 70.8398L60.8074 70.6483L61.1003 70.3554V69.9412L61.1003 44.666L61.1002 44.6582L60.9087 19.9575L60.9084 19.916L60.9047 19.8747L60.7132 17.7684L60.6804 17.4079L60.4244 17.1519L60.2329 16.9604L59.94 16.6675H59.5258H2.65664Z" stroke="black" stroke-width="2"/>
<path d="M79.2482 16.6675H79.0121L78.801 16.7731L78.418 16.9645L77.8652 17.2409V17.859V69.9412V70.3554L78.1581 70.6483L78.3496 70.8398L78.6425 71.1327H79.0567H135.926H136.162L136.373 71.0271L136.756 70.8356L137.309 70.5592V69.9412V17.859V17.4448L137.016 17.1519L136.825 16.9604L136.532 16.6675H136.117H79.2482Z" stroke="black" stroke-width="2"/>
<path d="M9.35839 1.34912H9.34451L9.33063 1.34951L2.43739 1.54099L1.83862 1.55762L1.57073 2.09339L1.37925 2.47634L1.27368 2.68749V2.92356V15.3697V15.7839L1.56657 16.0768L1.75805 16.2683L2.05095 16.5612H2.46516H136.5H136.914L137.207 16.2683L137.399 16.0768L137.692 15.7839V15.3697V2.92356V2.68749L137.586 2.47634L137.395 2.09338L137.121 1.54513L136.508 1.54063L110.467 1.34915V1.34912H110.459H9.35839Z" stroke="black" stroke-width="2"/>
<path d="M76.1843 125.619H75.7701L75.4772 125.912L75.2857 126.103L74.9928 126.396V126.81V153.809V154.223L75.2857 154.516L75.4772 154.707L75.7701 155H76.1843H136.309H137.309V154V126.619V125.619H136.309H76.1843Z" stroke="black" stroke-width="2"/>
<path d="M2.46516 125.619H2.05095L1.75805 125.912L1.56657 126.103L1.27368 126.396V126.81V153.809V154.223L1.56657 154.516L1.75805 154.707L2.05094 155H2.46516H62.5895H63.5895V154V126.619V125.619H62.5895H2.46516Z" stroke="black" stroke-width="2"/>
<path d="M61.8233 16.6675H61.4091L61.1162 16.9604L60.9247 17.1519L60.6318 17.4447V17.859L60.6318 34.9006L60.6319 34.9063L60.8233 68.0322L60.8234 68.0465L60.8239 68.0608L61.0154 73.6137L61.019 73.7193L61.0447 73.8218L61.2361 74.5877L61.2582 74.6761L61.2959 74.759L62.2533 76.8653L62.3158 77.0028L62.4163 77.1158L63.9481 78.8391L64.0498 78.9535L64.181 79.0322L66.0958 80.1811L66.2234 80.2577L66.3677 80.2938L68.6655 80.8682L68.8261 80.9084L68.9911 80.8946L71.2888 80.7031L71.4617 80.6887L71.6196 80.617L73.7258 79.6596L73.8634 79.597L73.9764 79.4966L75.6997 77.9648L75.7749 77.8979L75.8353 77.8174L76.9842 76.2855L77.0733 76.1668L77.124 76.0273L77.8899 73.921L77.9451 73.7693L77.9497 73.6078L78.1412 66.9061L78.1416 66.8918V66.8775L78.1416 59.2184L78.1416 59.2138L77.9501 17.6629L77.9455 16.6675H76.9501H61.8233Z" stroke="black" stroke-width="2"/>
</svg>
