<svg width="234" height="119" viewBox="0 0 234 119" fill="none" xmlns="http://www.w3.org/2000/svg">
<g filter="url(#filter0_b_30_2503)">
<path d="M0 25.6C0 16.6392 0 12.1587 1.7439 8.73615C3.27787 5.72556 5.72556 3.27787 8.73615 1.7439C12.1587 0 16.6392 0 25.6 0H208.4C217.361 0 221.841 0 225.264 1.7439C228.274 3.27787 230.722 5.72556 232.256 8.73615C234 12.1587 234 16.6392 234 25.6V93.4C234 102.361 234 106.841 232.256 110.264C230.722 113.274 228.274 115.722 225.264 117.256C221.841 119 217.361 119 208.4 119H25.6C16.6392 119 12.1587 119 8.73615 117.256C5.72556 115.722 3.27787 113.274 1.7439 110.264C0 106.841 0 102.361 0 93.4V25.6Z" fill="#1C1C1C"/>
<path d="M25.067 38V37.252H27.091V32.082H25.518V31.499C25.7967 31.4623 26.0423 31.4183 26.255 31.367C26.4677 31.3157 26.662 31.2607 26.838 31.202C27.014 31.136 27.1753 31.0627 27.322 30.982H27.993V37.252H29.83V38H25.067ZM24.803 58V57.461C25.595 56.7643 26.2623 56.152 26.805 55.624C27.355 55.0887 27.773 54.6083 28.059 54.183C28.345 53.7577 28.488 53.3507 28.488 52.962C28.488 52.5587 28.3633 52.2287 28.114 51.972C27.8647 51.7153 27.4797 51.587 26.959 51.587C26.629 51.587 26.321 51.6677 26.035 51.829C25.7563 51.9903 25.5033 52.192 25.276 52.434L24.759 51.917C25.0743 51.5943 25.4117 51.3377 25.771 51.147C26.1377 50.949 26.5703 50.85 27.069 50.85C27.5383 50.85 27.9417 50.938 28.279 51.114C28.6237 51.2827 28.8877 51.521 29.071 51.829C29.2617 52.137 29.357 52.5 29.357 52.918C29.357 53.358 29.2213 53.8017 28.95 54.249C28.6787 54.6963 28.2973 55.1693 27.806 55.668C27.322 56.1593 26.761 56.6983 26.123 57.285C26.343 57.263 26.563 57.2483 26.783 57.241C27.003 57.2263 27.2193 57.219 27.432 57.219H29.742V58H24.803ZM27.157 78.132C26.7537 78.132 26.3943 78.0843 26.079 77.989C25.7637 77.8937 25.485 77.7727 25.243 77.626C25.0083 77.4793 24.803 77.318 24.627 77.142L25.089 76.548C25.3237 76.768 25.606 76.9623 25.936 77.131C26.266 77.2997 26.6547 77.384 27.102 77.384C27.4247 77.384 27.7107 77.3327 27.96 77.23C28.2167 77.12 28.4183 76.9697 28.565 76.779C28.7117 76.581 28.785 76.3537 28.785 76.097C28.785 75.8183 28.7007 75.5763 28.532 75.371C28.3633 75.1583 28.092 74.9933 27.718 74.876C27.344 74.7587 26.849 74.7 26.233 74.7V74.007C26.7903 74.007 27.2377 73.9483 27.575 73.831C27.9123 73.7137 28.1543 73.5597 28.301 73.369C28.455 73.171 28.532 72.9473 28.532 72.698C28.532 72.3533 28.4 72.082 28.136 71.884C27.8793 71.686 27.5347 71.587 27.102 71.587C26.772 71.587 26.4567 71.653 26.156 71.785C25.8627 71.917 25.6023 72.0893 25.375 72.302L24.891 71.73C25.1843 71.4733 25.518 71.2643 25.892 71.103C26.2733 70.9343 26.6877 70.85 27.135 70.85C27.575 70.85 27.9673 70.9197 28.312 71.059C28.664 71.1983 28.9427 71.4 29.148 71.664C29.3533 71.928 29.456 72.2507 29.456 72.632C29.456 73.0573 29.313 73.4057 29.027 73.677C28.7483 73.9483 28.3927 74.1573 27.96 74.304V74.348C28.268 74.414 28.554 74.5277 28.818 74.689C29.0893 74.843 29.302 75.041 29.456 75.283C29.6173 75.525 29.698 75.8073 29.698 76.13C29.698 76.548 29.5807 76.9073 29.346 77.208C29.1187 77.5013 28.8143 77.7287 28.433 77.89C28.0517 78.0513 27.6263 78.132 27.157 78.132ZM28.048 98V93.16C28.0553 92.9693 28.0627 92.764 28.07 92.544C28.0847 92.3167 28.0957 92.1077 28.103 91.917H28.048C27.938 92.0857 27.8207 92.258 27.696 92.434C27.5713 92.6027 27.4503 92.7713 27.333 92.94L25.43 95.338H29.995V96.064H24.429V95.459L27.938 90.982H28.906V98H28.048Z" fill="white" fill-opacity="0.2"/>
<path d="M40.089 39.76L43.697 30.19H44.511L40.903 39.76H40.089ZM46.6847 39.76L50.2927 30.19H51.1067L47.4987 39.76H46.6847ZM62.5931 38.132C62.0358 38.132 61.5334 38.022 61.0861 37.802C60.6461 37.582 60.2978 37.263 60.0411 36.845C59.7918 36.427 59.6671 35.9247 59.6671 35.338C59.6671 34.7367 59.8028 34.227 60.0741 33.809C60.3454 33.391 60.7048 33.072 61.1521 32.852C61.6068 32.632 62.1054 32.522 62.6481 32.522C63.0881 32.522 63.4658 32.599 63.7811 32.753C64.1038 32.907 64.3751 33.0903 64.5951 33.303L64.1441 33.886C63.9241 33.6953 63.6968 33.545 63.4621 33.435C63.2274 33.325 62.9671 33.27 62.6811 33.27C62.2704 33.27 61.9074 33.358 61.5921 33.534C61.2768 33.7027 61.0311 33.9447 60.8551 34.26C60.6864 34.568 60.6021 34.9273 60.6021 35.338C60.6021 35.7413 60.6864 36.097 60.8551 36.405C61.0238 36.713 61.2621 36.955 61.5701 37.131C61.8854 37.2997 62.2484 37.384 62.6591 37.384C62.9891 37.384 63.2898 37.318 63.5611 37.186C63.8398 37.054 64.0891 36.8963 64.3091 36.713L64.7161 37.296C64.4228 37.56 64.0928 37.7653 63.7261 37.912C63.3668 38.0587 62.9891 38.132 62.5931 38.132ZM68.6828 38.132C68.2135 38.132 67.7771 38.022 67.3738 37.802C66.9778 37.582 66.6551 37.263 66.4058 36.845C66.1638 36.427 66.0428 35.9247 66.0428 35.338C66.0428 34.7367 66.1638 34.227 66.4058 33.809C66.6551 33.391 66.9778 33.072 67.3738 32.852C67.7771 32.632 68.2135 32.522 68.6828 32.522C69.1521 32.522 69.5848 32.632 69.9808 32.852C70.3841 33.072 70.7068 33.391 70.9488 33.809C71.1981 34.227 71.3228 34.7367 71.3228 35.338C71.3228 35.9247 71.1981 36.427 70.9488 36.845C70.7068 37.263 70.3841 37.582 69.9808 37.802C69.5848 38.022 69.1521 38.132 68.6828 38.132ZM68.6828 37.384C69.0275 37.384 69.3281 37.2997 69.5848 37.131C69.8415 36.955 70.0395 36.713 70.1788 36.405C70.3181 36.097 70.3878 35.7413 70.3878 35.338C70.3878 34.9273 70.3181 34.568 70.1788 34.26C70.0395 33.9447 69.8415 33.7027 69.5848 33.534C69.3281 33.358 69.0275 33.27 68.6828 33.27C68.3381 33.27 68.0375 33.358 67.7808 33.534C67.5315 33.7027 67.3335 33.9447 67.1868 34.26C67.0475 34.568 66.9778 34.9273 66.9778 35.338C66.9778 35.7413 67.0475 36.097 67.1868 36.405C67.3335 36.713 67.5315 36.955 67.7808 37.131C68.0375 37.2997 68.3381 37.384 68.6828 37.384ZM76.4445 38.132C75.8798 38.132 75.4472 37.9707 75.1465 37.648C74.8458 37.318 74.6955 36.8377 74.6955 36.207V30.905H72.8695V30.168H75.5975V36.273C75.5975 36.6617 75.6928 36.944 75.8835 37.12C76.0742 37.296 76.3272 37.384 76.6425 37.384C76.7965 37.384 76.9542 37.3657 77.1155 37.329C77.2768 37.285 77.4565 37.219 77.6545 37.131L77.8855 37.813C77.6435 37.901 77.4162 37.9743 77.2035 38.033C76.9908 38.099 76.7378 38.132 76.4445 38.132ZM81.8742 38.132C81.4049 38.132 80.9686 38.022 80.5652 37.802C80.1692 37.582 79.8466 37.263 79.5972 36.845C79.3552 36.427 79.2342 35.9247 79.2342 35.338C79.2342 34.7367 79.3552 34.227 79.5972 33.809C79.8466 33.391 80.1692 33.072 80.5652 32.852C80.9686 32.632 81.4049 32.522 81.8742 32.522C82.3436 32.522 82.7762 32.632 83.1722 32.852C83.5756 33.072 83.8982 33.391 84.1402 33.809C84.3896 34.227 84.5142 34.7367 84.5142 35.338C84.5142 35.9247 84.3896 36.427 84.1402 36.845C83.8982 37.263 83.5756 37.582 83.1722 37.802C82.7762 38.022 82.3436 38.132 81.8742 38.132ZM81.8742 37.384C82.2189 37.384 82.5196 37.2997 82.7762 37.131C83.0329 36.955 83.2309 36.713 83.3702 36.405C83.5096 36.097 83.5792 35.7413 83.5792 35.338C83.5792 34.9273 83.5096 34.568 83.3702 34.26C83.2309 33.9447 83.0329 33.7027 82.7762 33.534C82.5196 33.358 82.2189 33.27 81.8742 33.27C81.5296 33.27 81.2289 33.358 80.9722 33.534C80.7229 33.7027 80.5249 33.9447 80.3782 34.26C80.2389 34.568 80.1692 34.9273 80.1692 35.338C80.1692 35.7413 80.2389 36.097 80.3782 36.405C80.5249 36.713 80.7229 36.955 80.9722 37.131C81.2289 37.2997 81.5296 37.384 81.8742 37.384ZM86.7759 38V32.654H87.5239L87.6009 33.919H87.6339C87.9126 33.4863 88.2573 33.1453 88.6679 32.896C89.0786 32.6467 89.5296 32.522 90.0209 32.522C90.2189 32.522 90.4023 32.5403 90.5709 32.577C90.7469 32.6063 90.9156 32.6613 91.0769 32.742L90.8679 33.523C90.6846 33.457 90.5269 33.4093 90.3949 33.38C90.2629 33.3507 90.0906 33.336 89.8779 33.336C89.4746 33.336 89.0859 33.4533 88.7119 33.688C88.3453 33.9153 88.0006 34.3077 87.6779 34.865V38H86.7759ZM102.695 38.132C102.175 38.132 101.764 38.0403 101.463 37.857C101.163 37.6663 100.946 37.406 100.814 37.076C100.69 36.746 100.627 36.361 100.627 35.921V33.391H99.1203V32.709L100.66 32.654L100.781 30.938H101.529V32.654H104.158V33.391H101.529V35.932C101.529 36.2473 101.57 36.515 101.65 36.735C101.731 36.955 101.87 37.12 102.068 37.23C102.266 37.34 102.538 37.395 102.882 37.395C103.139 37.395 103.37 37.373 103.575 37.329C103.781 37.285 103.979 37.2263 104.169 37.153L104.367 37.813C104.125 37.901 103.869 37.9743 103.597 38.033C103.333 38.099 103.033 38.132 102.695 38.132ZM105.98 38V30.168H106.882V32.302L106.827 33.567H106.86C107.131 33.2737 107.428 33.028 107.751 32.83C108.074 32.6247 108.444 32.522 108.862 32.522C109.493 32.522 109.958 32.7053 110.259 33.072C110.56 33.4387 110.71 33.974 110.71 34.678V38H109.808V34.799C109.808 34.293 109.713 33.919 109.522 33.677C109.331 33.4277 109.016 33.303 108.576 33.303C108.261 33.303 107.978 33.3837 107.729 33.545C107.48 33.7063 107.197 33.9483 106.882 34.271V38H105.98ZM115.183 38.132C114.647 38.132 114.16 38.022 113.72 37.802C113.287 37.582 112.942 37.263 112.686 36.845C112.429 36.4197 112.301 35.91 112.301 35.316C112.301 34.7367 112.429 34.238 112.686 33.82C112.942 33.402 113.276 33.083 113.687 32.863C114.105 32.6357 114.552 32.522 115.029 32.522C115.542 32.522 115.978 32.6283 116.338 32.841C116.704 33.0463 116.983 33.336 117.174 33.71C117.372 34.084 117.471 34.524 117.471 35.03C117.471 35.1327 117.467 35.2317 117.46 35.327C117.452 35.4223 117.441 35.5067 117.427 35.58H112.906V34.876H116.888L116.657 35.129C116.657 34.4983 116.51 34.0253 116.217 33.71C115.931 33.3947 115.542 33.237 115.051 33.237C114.721 33.237 114.413 33.3177 114.127 33.479C113.848 33.6403 113.624 33.875 113.456 34.183C113.287 34.491 113.203 34.8687 113.203 35.316C113.203 35.778 113.294 36.163 113.478 36.471C113.661 36.779 113.91 37.0137 114.226 37.175C114.541 37.329 114.897 37.406 115.293 37.406C115.615 37.406 115.905 37.362 116.162 37.274C116.426 37.1787 116.679 37.054 116.921 36.9L117.251 37.494C116.987 37.67 116.682 37.8203 116.338 37.945C116 38.0697 115.615 38.132 115.183 38.132ZM125.767 38V30.168H126.669V32.302L126.614 33.567H126.647C126.918 33.2737 127.215 33.028 127.538 32.83C127.861 32.6247 128.231 32.522 128.649 32.522C129.28 32.522 129.745 32.7053 130.046 33.072C130.347 33.4387 130.497 33.974 130.497 34.678V38H129.595V34.799C129.595 34.293 129.5 33.919 129.309 33.677C129.118 33.4277 128.803 33.303 128.363 33.303C128.048 33.303 127.765 33.3837 127.516 33.545C127.267 33.7063 126.984 33.9483 126.669 34.271V38H125.767ZM134.31 38.132C133.855 38.132 133.452 38.0257 133.1 37.813C132.755 37.593 132.484 37.274 132.286 36.856C132.095 36.438 132 35.932 132 35.338C132 34.7587 132.114 34.26 132.341 33.842C132.568 33.4167 132.869 33.0903 133.243 32.863C133.617 32.6357 134.017 32.522 134.442 32.522C134.757 32.522 135.047 32.5843 135.311 32.709C135.575 32.8263 135.832 33.006 136.081 33.248H136.114L136.191 32.654H136.917V38H136.169L136.092 37.296H136.059C135.846 37.5233 135.586 37.7213 135.278 37.89C134.97 38.0513 134.647 38.132 134.31 38.132ZM134.508 37.373C134.772 37.373 135.029 37.307 135.278 37.175C135.527 37.0357 135.773 36.834 136.015 36.57V33.908C135.773 33.6807 135.535 33.5193 135.3 33.424C135.073 33.3287 134.842 33.281 134.607 33.281C134.299 33.281 134.017 33.369 133.76 33.545C133.511 33.7137 133.309 33.952 133.155 34.26C133.008 34.5607 132.935 34.9163 132.935 35.327C132.935 35.965 133.074 36.4673 133.353 36.834C133.632 37.1933 134.017 37.373 134.508 37.373ZM141.412 38V33.391H138.926V32.654H142.314V38H141.412ZM141.764 31.532C141.558 31.532 141.386 31.4697 141.247 31.345C141.107 31.213 141.038 31.0407 141.038 30.828C141.038 30.6153 141.107 30.4467 141.247 30.322C141.386 30.19 141.558 30.124 141.764 30.124C141.969 30.124 142.141 30.19 142.281 30.322C142.42 30.4467 142.49 30.6153 142.49 30.828C142.49 31.0407 142.42 31.213 142.281 31.345C142.141 31.4697 141.969 31.532 141.764 31.532ZM146.137 38V32.654H146.885L146.962 33.919H146.995C147.274 33.4863 147.619 33.1453 148.029 32.896C148.44 32.6467 148.891 32.522 149.382 32.522C149.58 32.522 149.764 32.5403 149.932 32.577C150.108 32.6063 150.277 32.6613 150.438 32.742L150.229 33.523C150.046 33.457 149.888 33.4093 149.756 33.38C149.624 33.3507 149.452 33.336 149.239 33.336C148.836 33.336 148.447 33.4533 148.073 33.688C147.707 33.9153 147.362 34.3077 147.039 34.865V38H146.137ZM152.601 35.624V34.832H156.253V35.624H152.601ZM158.9 37.472V36.603L162.211 34.37V34.326L158.9 32.093V31.224L163.003 34.007V34.689L158.9 37.472ZM42.3 58.132C42.058 58.132 41.849 58.0477 41.673 57.879C41.497 57.703 41.409 57.4793 41.409 57.208C41.409 56.9293 41.497 56.7057 41.673 56.537C41.849 56.361 42.058 56.273 42.3 56.273C42.5493 56.273 42.7583 56.361 42.927 56.537C43.103 56.7057 43.191 56.9293 43.191 57.208C43.191 57.4793 43.103 57.703 42.927 57.879C42.7583 58.0477 42.5493 58.132 42.3 58.132ZM83.4252 59.672C82.7359 59.672 82.2226 59.5693 81.8852 59.364C81.5552 59.1587 81.3902 58.7737 81.3902 58.209C81.3902 57.9377 81.3976 57.6883 81.4122 57.461C81.4269 57.2337 81.4416 57.01 81.4562 56.79C81.4782 56.5627 81.4892 56.328 81.4892 56.086C81.4892 55.9393 81.4452 55.8037 81.3572 55.679C81.2766 55.547 81.1189 55.4407 80.8842 55.36C80.6569 55.272 80.3269 55.228 79.8942 55.228V54.656C80.3269 54.656 80.6569 54.6157 80.8842 54.535C81.1189 54.447 81.2766 54.337 81.3572 54.205C81.4452 54.073 81.4892 53.9373 81.4892 53.798C81.4892 53.5707 81.4782 53.3433 81.4562 53.116C81.4416 52.8813 81.4269 52.6467 81.4122 52.412C81.3976 52.1773 81.3902 51.9317 81.3902 51.675C81.3902 51.1103 81.5552 50.7253 81.8852 50.52C82.2226 50.3147 82.7359 50.212 83.4252 50.212H84.0962V50.729H83.5242C83.1502 50.729 82.8642 50.7657 82.6662 50.839C82.4756 50.905 82.3436 51.0113 82.2702 51.158C82.1969 51.2973 82.1602 51.488 82.1602 51.73C82.1602 52.0453 82.1712 52.3717 82.1932 52.709C82.2152 53.039 82.2262 53.3763 82.2262 53.721C82.2262 54.073 82.1529 54.3443 82.0062 54.535C81.8669 54.7257 81.6066 54.854 81.2252 54.92V54.964C81.6066 55.03 81.8669 55.1583 82.0062 55.349C82.1529 55.5397 82.2262 55.811 82.2262 56.163C82.2262 56.5297 82.2152 56.8707 82.1932 57.186C82.1712 57.494 82.1602 57.8167 82.1602 58.154C82.1602 58.3887 82.1969 58.5793 82.2702 58.726C82.3436 58.8727 82.4756 58.979 82.6662 59.045C82.8642 59.1183 83.1502 59.155 83.5242 59.155H84.0962V59.672H83.4252ZM68.6828 78.132C68.4408 78.132 68.2318 78.0477 68.0558 77.879C67.8798 77.703 67.7918 77.4793 67.7918 77.208C67.7918 76.9293 67.8798 76.7057 68.0558 76.537C68.2318 76.361 68.4408 76.273 68.6828 76.273C68.9321 76.273 69.1411 76.361 69.3098 76.537C69.4858 76.7057 69.5738 76.9293 69.5738 77.208C69.5738 77.4793 69.4858 77.703 69.3098 77.879C69.1411 78.0477 68.9321 78.132 68.6828 78.132ZM75.2785 78.132C75.0365 78.132 74.8275 78.0477 74.6515 77.879C74.4755 77.703 74.3875 77.4793 74.3875 77.208C74.3875 76.9293 74.4755 76.7057 74.6515 76.537C74.8275 76.361 75.0365 76.273 75.2785 76.273C75.5278 76.273 75.7368 76.361 75.9055 76.537C76.0815 76.7057 76.1695 76.9293 76.1695 77.208C76.1695 77.4793 76.0815 77.703 75.9055 77.879C75.7368 78.0477 75.5278 78.132 75.2785 78.132ZM81.8742 78.132C81.6322 78.132 81.4232 78.0477 81.2472 77.879C81.0712 77.703 80.9832 77.4793 80.9832 77.208C80.9832 76.9293 81.0712 76.7057 81.2472 76.537C81.4232 76.361 81.6322 76.273 81.8742 76.273C82.1236 76.273 82.3326 76.361 82.5012 76.537C82.6772 76.7057 82.7652 76.9293 82.7652 77.208C82.7652 77.4793 82.6772 77.703 82.5012 77.879C82.3326 78.0477 82.1236 78.132 81.8742 78.132ZM88.4699 74.194C88.2279 74.194 88.0189 74.1097 87.8429 73.941C87.6669 73.765 87.5789 73.5413 87.5789 73.27C87.5789 72.9913 87.6669 72.7677 87.8429 72.599C88.0189 72.423 88.2279 72.335 88.4699 72.335C88.7193 72.335 88.9283 72.423 89.0969 72.599C89.2729 72.7677 89.3609 72.9913 89.3609 73.27C89.3609 73.5413 89.2729 73.765 89.0969 73.941C88.9283 74.1097 88.7193 74.194 88.4699 74.194ZM88.4699 78.132C88.2279 78.132 88.0189 78.0477 87.8429 77.879C87.6669 77.703 87.5789 77.4793 87.5789 77.208C87.5789 76.9293 87.6669 76.7057 87.8429 76.537C88.0189 76.361 88.2279 76.273 88.4699 76.273C88.7193 76.273 88.9283 76.361 89.0969 76.537C89.2729 76.7057 89.3609 76.9293 89.3609 77.208C89.3609 77.4793 89.2729 77.703 89.0969 77.879C88.9283 78.0477 88.7193 78.132 88.4699 78.132ZM101.661 78.132C101.419 78.132 101.21 78.0477 101.034 77.879C100.858 77.703 100.77 77.4793 100.77 77.208C100.77 76.9293 100.858 76.7057 101.034 76.537C101.21 76.361 101.419 76.273 101.661 76.273C101.911 76.273 102.12 76.361 102.288 76.537C102.464 76.7057 102.552 76.9293 102.552 77.208C102.552 77.4793 102.464 77.703 102.288 77.879C102.12 78.0477 101.911 78.132 101.661 78.132ZM108.257 78.132C108.015 78.132 107.806 78.0477 107.63 77.879C107.454 77.703 107.366 77.4793 107.366 77.208C107.366 76.9293 107.454 76.7057 107.63 76.537C107.806 76.361 108.015 76.273 108.257 76.273C108.506 76.273 108.715 76.361 108.884 76.537C109.06 76.7057 109.148 76.9293 109.148 77.208C109.148 77.4793 109.06 77.703 108.884 77.879C108.715 78.0477 108.506 78.132 108.257 78.132ZM114.853 78.132C114.611 78.132 114.402 78.0477 114.226 77.879C114.05 77.703 113.962 77.4793 113.962 77.208C113.962 76.9293 114.05 76.7057 114.226 76.537C114.402 76.361 114.611 76.273 114.853 76.273C115.102 76.273 115.311 76.361 115.48 76.537C115.656 76.7057 115.744 76.9293 115.744 77.208C115.744 77.4793 115.656 77.703 115.48 77.879C115.311 78.0477 115.102 78.132 114.853 78.132ZM40.089 99.672V99.155H40.65C41.0313 99.155 41.3173 99.1183 41.508 99.045C41.706 98.979 41.8417 98.8727 41.915 98.726C41.9883 98.5793 42.025 98.3887 42.025 98.154C42.025 97.8167 42.014 97.494 41.992 97.186C41.97 96.8707 41.959 96.5297 41.959 96.163C41.959 95.811 42.0287 95.5397 42.168 95.349C42.3073 95.1583 42.5677 95.03 42.949 94.964V94.92C42.5677 94.854 42.3073 94.7257 42.168 94.535C42.0287 94.3443 41.959 94.073 41.959 93.721C41.959 93.3763 41.97 93.039 41.992 92.709C42.014 92.3717 42.025 92.0453 42.025 91.73C42.025 91.488 41.9883 91.2973 41.915 91.158C41.8417 91.0113 41.706 90.905 41.508 90.839C41.3173 90.7657 41.0313 90.729 40.65 90.729H40.089V90.212H40.76C41.4493 90.212 41.959 90.3147 42.289 90.52C42.619 90.7253 42.784 91.1103 42.784 91.675C42.784 91.9317 42.7767 92.1773 42.762 92.412C42.7473 92.6467 42.729 92.8813 42.707 93.116C42.6923 93.3433 42.685 93.5707 42.685 93.798C42.685 93.9373 42.7253 94.073 42.806 94.205C42.894 94.337 43.0517 94.447 43.279 94.535C43.5137 94.6157 43.8473 94.656 44.28 94.656V95.228C43.8473 95.228 43.5137 95.272 43.279 95.36C43.0517 95.4407 42.894 95.547 42.806 95.679C42.7253 95.8037 42.685 95.9393 42.685 96.086C42.685 96.328 42.6923 96.5627 42.707 96.79C42.729 97.01 42.7473 97.2337 42.762 97.461C42.7767 97.6883 42.784 97.9377 42.784 98.209C42.784 98.7737 42.619 99.1587 42.289 99.364C41.959 99.5693 41.4493 99.672 40.76 99.672H40.089Z" fill="white" fill-opacity="0.4"/>
<path d="M46.6187 58V50.168H47.5207V52.302L47.4657 53.567H47.4987C47.77 53.2737 48.067 53.028 48.3897 52.83C48.7124 52.6247 49.0827 52.522 49.5007 52.522C50.1314 52.522 50.597 52.7053 50.8977 53.072C51.1984 53.4387 51.3487 53.974 51.3487 54.678V58H50.4467V54.799C50.4467 54.293 50.3514 53.919 50.1607 53.677C49.97 53.4277 49.6547 53.303 49.2147 53.303C48.8994 53.303 48.617 53.3837 48.3677 53.545C48.1184 53.7063 47.836 53.9483 47.5207 54.271V58H46.6187ZM55.1614 58.132C54.7067 58.132 54.3034 58.0257 53.9514 57.813C53.6067 57.593 53.3354 57.274 53.1374 56.856C52.9467 56.438 52.8514 55.932 52.8514 55.338C52.8514 54.7587 52.9651 54.26 53.1924 53.842C53.4197 53.4167 53.7204 53.0903 54.0944 52.863C54.4684 52.6357 54.8681 52.522 55.2934 52.522C55.6087 52.522 55.8984 52.5843 56.1624 52.709C56.4264 52.8263 56.6831 53.006 56.9324 53.248H56.9654L57.0424 52.654H57.7684V58H57.0204L56.9434 57.296H56.9104C56.6977 57.5233 56.4374 57.7213 56.1294 57.89C55.8214 58.0513 55.4987 58.132 55.1614 58.132ZM55.3594 57.373C55.6234 57.373 55.8801 57.307 56.1294 57.175C56.3787 57.0357 56.6244 56.834 56.8664 56.57V53.908C56.6244 53.6807 56.3861 53.5193 56.1514 53.424C55.9241 53.3287 55.6931 53.281 55.4584 53.281C55.1504 53.281 54.8681 53.369 54.6114 53.545C54.3621 53.7137 54.1604 53.952 54.0064 54.26C53.8597 54.5607 53.7864 54.9163 53.7864 55.327C53.7864 55.965 53.9257 56.4673 54.2044 56.834C54.4831 57.1933 54.8681 57.373 55.3594 57.373ZM62.2631 58V53.391H59.7771V52.654H63.1651V58H62.2631ZM62.6151 51.532C62.4098 51.532 62.2374 51.4697 62.0981 51.345C61.9588 51.213 61.8891 51.0407 61.8891 50.828C61.8891 50.6153 61.9588 50.4467 62.0981 50.322C62.2374 50.19 62.4098 50.124 62.6151 50.124C62.8204 50.124 62.9928 50.19 63.1321 50.322C63.2714 50.4467 63.3411 50.6153 63.3411 50.828C63.3411 51.0407 63.2714 51.213 63.1321 51.345C62.9928 51.4697 62.8204 51.532 62.6151 51.532ZM66.9888 58V52.654H67.7368L67.8138 53.919H67.8468C68.1255 53.4863 68.4701 53.1453 68.8808 52.896C69.2915 52.6467 69.7425 52.522 70.2338 52.522C70.4318 52.522 70.6151 52.5403 70.7838 52.577C70.9598 52.6063 71.1285 52.6613 71.2898 52.742L71.0808 53.523C70.8975 53.457 70.7398 53.4093 70.6078 53.38C70.4758 53.3507 70.3035 53.336 70.0908 53.336C69.6875 53.336 69.2988 53.4533 68.9248 53.688C68.5581 53.9153 68.2135 54.3077 67.8908 54.865V58H66.9888Z" fill="#3FA4FF"/>
</g>
<defs>
<filter id="filter0_b_30_2503" x="-40" y="-40" width="314" height="199" filterUnits="userSpaceOnUse" color-interpolation-filters="sRGB">
<feFlood flood-opacity="0" result="BackgroundImageFix"/>
<feGaussianBlur in="BackgroundImageFix" stdDeviation="20"/>
<feComposite in2="SourceAlpha" operator="in" result="effect1_backgroundBlur_30_2503"/>
<feBlend mode="normal" in="SourceGraphic" in2="effect1_backgroundBlur_30_2503" result="shape"/>
</filter>
</defs>
</svg>
