<svg width="118" height="143" viewBox="0 0 118 143" fill="none" xmlns="http://www.w3.org/2000/svg">
<path d="M40.9269 141.136L55.6901 134.046L93.5979 42.1358L78.8346 49.2257L40.9269 141.136Z" fill="#03538C" stroke="black" stroke-width="2.66667" stroke-miterlimit="10" stroke-linecap="round" stroke-linejoin="round"/>
<path d="M78.8345 49.2261L93.5976 42.1358L57.7381 9.25546L42.9751 16.3452L78.8345 49.2261Z" fill="#0A3E65" stroke="black" stroke-width="2.66667" stroke-miterlimit="10" stroke-linecap="round" stroke-linejoin="round"/>
<path d="M42.9749 16.3454L5.0671 108.257L40.9268 141.137L78.8343 49.2261L42.9749 16.3454Z" fill="#0060A9" stroke="black" stroke-width="2.66667" stroke-miterlimit="10" stroke-linecap="round" stroke-linejoin="round"/>
<mask id="mask0_75_6582" style="mask-type:luminance" maskUnits="userSpaceOnUse" x="41" y="37" width="9" height="3">
<path d="M42.1298 39.3613C41.9075 39.408 41.6879 39.4612 41.4713 39.5224L48.9343 37.4292C49.1508 37.3689 49.3706 37.3149 49.5929 37.2686L42.1298 39.3613Z" fill="white"/>
</mask>
<g mask="url(#mask0_75_6582)">
<path d="M42.1297 39.3612L49.5928 37.2685C49.3701 37.3149 49.1506 37.3684 48.9338 37.4292L41.4707 39.522C41.6879 39.4615 41.9073 39.4076 42.1297 39.3612Z" fill="#84730C" stroke="black" stroke-width="0.266666" stroke-miterlimit="10"/>
</g>
<path d="M48.9343 37.4293L41.4712 39.5221C41.6878 39.4609 41.9078 39.4077 42.1301 39.3613L49.5933 37.2686C49.3706 37.315 49.151 37.3685 48.9343 37.4293Z" stroke="black" stroke-width="0.266666" stroke-miterlimit="10"/>
<mask id="mask1_75_6582" style="mask-type:luminance" maskUnits="userSpaceOnUse" x="42" y="37" width="24" height="36">
<path d="M65.444 51.4539C67.1473 60.4582 63.2194 68.9113 56.619 70.7624L49.156 72.8551C55.7564 71.0044 59.6843 62.5509 57.981 53.5466C56.2225 44.2529 49.1253 37.9035 42.1299 39.3604L49.5929 37.2677C50.2663 37.1274 50.9393 37.0596 51.6098 37.0596C57.904 37.0604 63.8551 43.0544 65.444 51.4539Z" fill="white"/>
</mask>
<g mask="url(#mask1_75_6582)">
<path d="M49.1563 72.855L56.6193 70.7623C63.2197 68.9116 67.1475 60.4581 65.4438 51.4539C63.6857 42.1601 56.5882 35.8107 49.5931 37.2676L42.1301 39.3604C49.1252 37.9035 56.2224 44.2528 57.9809 53.5466C59.6846 62.5509 55.7567 71.0044 49.1563 72.855Z" fill="black" stroke="black" stroke-width="0.266666" stroke-miterlimit="10"/>
</g>
<path d="M49.1563 72.855L56.6193 70.7623C63.2197 68.9116 67.1475 60.4581 65.4438 51.4539C63.6857 42.1601 56.5882 35.8107 49.5931 37.2676L42.1301 39.3604C49.1252 37.9035 56.2224 44.2528 57.9809 53.5466C59.6846 62.5509 55.7567 71.0044 49.1563 72.855Z" stroke="black" stroke-width="0.266666" stroke-miterlimit="10"/>
<path d="M42.1298 39.3613C35.1349 40.8183 30.8871 49.5305 32.6451 58.8244C34.4046 68.1242 41.5025 74.4738 48.4974 73.0168C55.4923 71.5597 59.7402 62.8475 57.981 53.5476C56.2226 44.2538 49.1247 37.9043 42.1298 39.3613Z" fill="#0060A9"/>
<path d="M42.1298 39.3613C35.1349 40.8183 30.8871 49.5305 32.6451 58.8244C34.4046 68.1242 41.5025 74.4738 48.4974 73.0168C55.4923 71.5597 59.7402 62.8475 57.981 53.5476C56.2226 44.2538 49.1247 37.9043 42.1298 39.3613Z" stroke="black" stroke-width="0.266667" stroke-miterlimit="10"/>
<path d="M47.2328 63.5617C46.9359 64.2089 46.8604 64.8423 47.0088 65.4745C47.1569 66.1066 47.5053 66.6411 48.0487 67.0782C48.5259 67.4617 48.9842 67.6339 49.424 67.595C49.4851 67.5893 49.5458 67.5799 49.6066 67.5664C50.1012 67.4548 50.4995 67.0749 50.7975 66.4337L50.853 66.3123L51.6975 64.4858L50.665 63.6557L49.8198 65.4761L49.7595 65.5984C49.6373 65.8674 49.4714 66.0359 49.2575 66.1038C49.2164 66.1185 49.1742 66.1279 49.1312 66.1316C48.9583 66.1471 48.7743 66.0747 48.5852 65.9238C48.3482 65.73 48.2035 65.497 48.1542 65.2189C48.105 64.9405 48.1439 64.6665 48.266 64.3979L48.3216 64.276L51.3854 57.6736L51.4409 57.5517C51.5679 57.2823 51.7338 57.1142 51.9477 57.0459C51.9874 57.0328 52.0277 57.0246 52.0688 57.021C52.2424 57.0054 52.4253 57.0737 52.62 57.2258C52.857 57.4196 53.0017 57.6527 53.0521 57.9369C53.1013 58.2154 53.0624 58.4889 52.9354 58.7584L52.8795 58.8802L51.8778 61.0343L52.9158 61.8701L53.9169 59.7099L53.9724 59.588C54.2704 58.9469 54.3448 58.3074 54.1964 57.6752C54.0442 57.0496 53.7007 56.5148 53.1565 56.0715C52.6748 55.6884 52.2198 55.5158 51.7811 55.5547C51.7201 55.5604 51.6593 55.5698 51.5986 55.5833C51.104 55.6953 50.7057 56.0748 50.4088 56.7217L50.3529 56.8435L47.2883 63.4398L47.2328 63.5617Z" fill="#0060A9" stroke="black" stroke-width="0.666665" stroke-miterlimit="10"/>
<path d="M48.6894 52.6649L43.7083 63.3955L44.7461 64.2313L49.7262 53.4946L48.6894 52.6649Z" fill="#0060A9" stroke="black" stroke-width="0.666668" stroke-miterlimit="10"/>
<path d="M45.2622 49.9038L40.8175 59.4859L39.5548 58.4685L39.0183 59.6224L40.2819 60.6402L40.8009 61.0585L42.5831 62.4945L43.1195 61.3406L41.8552 60.3221L46.3003 50.7392L45.2622 49.9038Z" fill="#0060A9" stroke="black" stroke-width="0.666665" stroke-miterlimit="10"/>
<path d="M40.4018 45.9917L39.8657 47.1456L38.1802 50.7811L37.643 51.9342L35.4214 56.7285L38.1783 58.9476L38.7144 57.7936L36.9892 56.405L38.6773 52.7679L40.0597 53.8822L40.5954 52.7221L39.2141 51.612L40.9012 47.9777L42.6271 49.3643L43.1587 48.2108L40.4018 45.9917Z" fill="#0060A9" stroke="black" stroke-width="0.666665" stroke-miterlimit="10"/>
<mask id="mask2_75_6582" style="mask-type:luminance" maskUnits="userSpaceOnUse" x="24" y="80" width="9" height="3">
<path d="M24.7688 82.4174C24.5466 82.4641 24.3265 82.517 24.11 82.5785L31.5734 80.4852C31.7898 80.425 32.0093 80.371 32.232 80.3246L24.7688 82.4174Z" fill="white"/>
</mask>
<g mask="url(#mask2_75_6582)">
<path d="M24.7688 82.4174L32.232 80.3246C32.0093 80.371 31.7897 80.4246 31.573 80.4853L24.1099 82.5781C24.327 82.5176 24.5465 82.4637 24.7688 82.4174Z" fill="#84730C" stroke="black" stroke-width="0.266666" stroke-miterlimit="10"/>
</g>
<path d="M31.573 80.4854L24.1098 82.5782C24.3265 82.5171 24.5465 82.4638 24.7688 82.4175L32.2319 80.3247C32.0092 80.3711 31.7897 80.4247 31.573 80.4854Z" stroke="black" stroke-width="0.266666" stroke-miterlimit="10"/>
<mask id="mask3_75_6582" style="mask-type:luminance" maskUnits="userSpaceOnUse" x="24" y="80" width="25" height="36">
<path d="M48.083 94.511C49.7867 103.515 45.8588 111.968 39.2588 113.819L31.7958 115.912C38.3958 114.062 42.3237 105.608 40.62 96.6038C38.8619 87.31 31.7643 80.9607 24.7693 82.4176L32.2323 80.3248C32.9057 80.1846 33.5787 80.1167 34.2492 80.1167C40.543 80.1175 46.4941 86.1115 48.083 94.511Z" fill="white"/>
</mask>
<g mask="url(#mask3_75_6582)">
<path d="M31.7964 115.912L39.2594 113.819C45.8598 111.969 49.7877 103.515 48.084 94.511C46.3259 85.2172 39.2283 78.8679 32.2333 80.3248L24.7703 82.4175C31.7653 80.9606 38.8625 87.3099 40.621 96.6037C42.3247 105.608 38.3968 114.062 31.7964 115.912Z" fill="black" stroke="black" stroke-width="0.266666" stroke-miterlimit="10"/>
</g>
<path d="M31.7954 115.912L39.2584 113.819C45.8588 111.969 49.7867 103.515 48.083 94.511C46.3249 85.2172 39.2273 78.8679 32.2323 80.3248L24.7693 82.4175C31.7643 80.9606 38.8616 87.3099 40.62 96.6037C42.3237 105.608 38.3958 114.061 31.7954 115.912Z" stroke="black" stroke-width="0.266666" stroke-miterlimit="10"/>
<path d="M24.7695 82.4175C17.7746 83.8745 13.5263 92.5868 15.2847 101.881C17.0442 111.18 24.1421 117.53 31.137 116.073C38.132 114.616 42.3798 105.904 40.6203 96.6039C38.8623 87.31 31.7644 80.9604 24.7695 82.4175Z" fill="#0060A9"/>
<path d="M24.7695 82.4175C17.7746 83.8745 13.5263 92.5868 15.2847 101.881C17.0442 111.18 24.1421 117.53 31.137 116.073C38.132 114.616 42.3798 105.904 40.6203 96.6039C38.8623 87.31 31.7644 80.9604 24.7695 82.4175Z" stroke="black" stroke-width="0.266667" stroke-miterlimit="10"/>
<path d="M29.872 106.618C29.5751 107.266 29.4995 107.899 29.648 108.531C29.7961 109.163 30.1444 109.698 30.6879 110.135C31.1651 110.519 31.6234 110.691 32.0632 110.652C32.1243 110.646 32.185 110.637 32.2457 110.623C32.7403 110.512 33.1387 110.132 33.4367 109.491L33.4922 109.369L34.3366 107.543L33.3041 106.713L32.459 108.533L32.3986 108.655C32.2764 108.924 32.1106 109.093 31.8966 109.161C31.8555 109.175 31.8133 109.185 31.7704 109.188C31.5975 109.204 31.4135 109.132 31.2243 108.981C30.9874 108.787 30.8426 108.554 30.7934 108.276C30.7442 107.997 30.783 107.724 30.9052 107.455L30.9607 107.333L34.0246 100.73L34.0801 100.609C34.2071 100.339 34.3729 100.171 34.5869 100.103C34.6265 100.09 34.6669 100.081 34.708 100.078C34.8816 100.062 35.0645 100.131 35.2592 100.283C35.4958 100.476 35.6409 100.71 35.6912 100.994C35.7405 101.272 35.7016 101.546 35.5746 101.815L35.5187 101.937L34.5169 104.091L35.555 104.927L36.556 102.767L36.6116 102.645C36.9096 102.004 36.984 101.364 36.8355 100.732C36.6834 100.106 36.3398 99.5716 35.7956 99.1287C35.314 98.7452 34.859 98.5726 34.4203 98.6119C34.3592 98.6172 34.2985 98.6266 34.2378 98.6405C33.7432 98.7522 33.3449 99.1316 33.048 99.7785L32.9921 99.9003L29.9275 106.497L29.872 106.618Z" fill="#0060A9" stroke="black" stroke-width="0.666665" stroke-miterlimit="10"/>
<path d="M31.3286 95.722L26.3475 106.453L27.3852 107.288L32.3654 96.5518L31.3286 95.722Z" fill="#0060A9" stroke="black" stroke-width="0.666668" stroke-miterlimit="10"/>
<path d="M27.9014 92.9604L23.4567 102.543L22.1939 101.525L21.6575 102.679L22.921 103.697L23.44 104.115L25.2222 105.551L25.7586 104.397L24.4944 103.379L28.9395 93.7962L27.9014 92.9604Z" fill="#0060A9" stroke="black" stroke-width="0.666665" stroke-miterlimit="10"/>
<path d="M23.0404 89.0479L22.5044 90.2018L20.8188 93.8372L20.2817 94.9903L18.0601 99.7846L20.817 102.004L21.353 100.85L19.6279 99.4612L21.316 95.8241L22.6984 96.9383L23.2341 95.7783L21.8528 94.6681L23.5398 91.0339L25.2657 92.4204L25.7974 91.2669L23.0404 89.0479Z" fill="#0060A9" stroke="black" stroke-width="0.666665" stroke-miterlimit="10"/>
</svg>
