<svg width="135" height="149" viewBox="0 0 135 149" fill="none" xmlns="http://www.w3.org/2000/svg">
<path d="M134 47.5912L126.392 82.0401L24.4838 129.466L32.0919 95.0168L134 47.5912Z" fill="#BA9400" stroke="#231F20" stroke-width="1.28" stroke-miterlimit="10" stroke-linecap="round" stroke-linejoin="round"/>
<path d="M32.0903 95.0153L24.4824 129.463L3.78127 106.934L11.3892 72.4858L32.0903 95.0153Z" fill="#7B6400" stroke="#231F20" stroke-width="1.28" stroke-miterlimit="10" stroke-linecap="round" stroke-linejoin="round"/>
<path d="M113.295 25.0582L133.997 47.5876L32.0889 95.0138L11.3867 72.4844L113.295 25.0582Z" fill="#FDCD00" stroke="#231F20" stroke-width="1.28" stroke-miterlimit="10" stroke-linecap="round" stroke-linejoin="round"/>
<mask id="mask0_76_6646" style="mask-type:luminance" maskUnits="userSpaceOnUse" x="75" y="49" width="20" height="15">
<path d="M75.3036 53.9724C75.0003 56.4192 76.0217 58.9992 78.3277 60.885C82.2075 64.0564 88.2569 64.0618 91.8356 60.898C93.2859 59.6166 94.108 58.0082 94.316 56.3412L94.8716 51.8581C94.6647 53.5261 93.8426 55.1324 92.3912 56.4159C88.8136 59.5787 82.7643 59.5733 78.8845 56.4019C76.5774 54.5161 75.556 51.9361 75.8603 49.4893L75.3036 53.9724Z" fill="white"/>
</mask>
<g mask="url(#mask0_76_6646)">
<path d="M94.8716 51.8581L94.316 56.3412C94.1091 58.0092 93.2859 59.6166 91.8356 60.8991C88.2569 64.0629 82.2075 64.0564 78.3277 60.885C76.0217 58.9992 75.0003 56.4192 75.3036 53.9724L75.8603 49.4893C75.5571 51.9372 76.5774 54.5161 78.8845 56.4019C82.7643 59.5733 88.8125 59.5798 92.3912 56.4159C93.8426 55.1335 94.6647 53.5272 94.8716 51.8581Z" fill="black" stroke="#231F20" stroke-width="0.0853331" stroke-miterlimit="10"/>
</g>
<mask id="mask1_76_6646" style="mask-type:luminance" maskUnits="userSpaceOnUse" x="99" y="37" width="21" height="15">
<path d="M99.6596 41.9939C99.3563 44.4407 100.378 47.0207 102.684 48.9065C106.563 52.0779 112.613 52.0833 116.192 48.9195C117.642 47.6381 118.464 46.0296 118.672 44.3627L119.228 39.8796C119.021 41.5476 118.199 43.1539 116.747 44.4374C113.17 47.6002 107.12 47.5948 103.24 44.4233C100.933 42.5376 99.9119 39.9576 100.216 37.5107L99.6596 41.9939Z" fill="white"/>
</mask>
<g mask="url(#mask1_76_6646)">
<path d="M119.228 39.8796L118.672 44.3627C118.465 46.0307 117.642 47.6381 116.192 48.9205C112.613 52.0844 106.563 52.0779 102.684 48.9065C100.378 47.0207 99.3563 44.4407 99.6596 41.9939L100.216 37.5107C99.913 39.9586 100.933 42.5376 103.24 44.4233C107.12 47.5948 113.168 47.6013 116.747 44.4374C118.199 43.155 119.021 41.5487 119.228 39.8796Z" fill="black" stroke="#231F20" stroke-width="0.0853331" stroke-miterlimit="10"/>
</g>
<path d="M94.8716 51.8581L94.316 56.3412C94.1091 58.0092 93.2859 59.6166 91.8356 60.8991C88.2569 64.0629 82.2075 64.0564 78.3277 60.885C76.0217 58.9992 75.0003 56.4192 75.3036 53.9724L75.8603 49.4893C75.5571 51.9372 76.5774 54.5161 78.8845 56.4019C82.7643 59.5733 88.8125 59.5798 92.3912 56.4159C93.8426 55.1335 94.6647 53.5272 94.8716 51.8581Z" stroke="#231F20" stroke-width="0.0853331" stroke-miterlimit="10"/>
<path d="M91.8461 44.9425C95.7256 48.114 95.9689 53.2525 92.3903 56.4163C88.8117 59.5802 82.7639 59.5734 78.8844 56.402C75.0034 53.2304 74.7622 48.0943 78.3408 44.9305C81.9195 41.7666 87.9666 41.7711 91.8461 44.9425Z" fill="#FDCD00"/>
<path d="M91.8461 44.9425C95.7256 48.114 95.9689 53.2525 92.3903 56.4163C88.8117 59.5802 82.7639 59.5734 78.8844 56.402C75.0034 53.2304 74.7622 48.0943 78.3408 44.9305C81.9195 41.7666 87.9666 41.7711 91.8461 44.9425Z" stroke="#231F20" stroke-width="0.0853334" stroke-miterlimit="10"/>
<path d="M86.3498 46.5718L86.9867 47.2812L87.2477 47.5715L88.1467 48.5723L87.5293 48.985L86.8935 48.2756L81.7746 51.7026L81.2515 51.121L86.3704 47.6939L85.7335 46.9845L86.3498 46.5718Z" fill="#FDCD00" stroke="#231F20" stroke-width="0.213333" stroke-miterlimit="10"/>
<path d="M84.5383 44.5547L85.928 46.1003L85.3106 46.513L84.4419 45.5468L82.4988 46.8477L83.1942 47.6221L82.5779 48.0348L81.8825 47.2604L79.9415 48.5601L80.8102 49.5263L80.1939 49.939L79.3252 48.9728L78.8042 48.3933L81.3626 46.6809L81.9778 46.2671L83.922 44.9674L84.5383 44.5547Z" fill="#FDCD00" stroke="#231F20" stroke-width="0.213333" stroke-miterlimit="10"/>
<path d="M91.3628 52.5541C91.3271 52.866 91.1365 53.139 90.7931 53.3686L90.7292 53.4141L89.7555 54.0662L89.2323 53.4856L90.206 52.8335L90.2721 52.7902C90.414 52.6938 90.5007 52.5768 90.5288 52.4414C90.5559 52.3071 90.5082 52.1728 90.3891 52.0396C90.3566 52.0028 90.3219 51.9703 90.2862 51.9432C90.192 51.8706 90.0858 51.8306 89.9732 51.8241C89.8129 51.8121 89.6623 51.8565 89.5182 51.9508L89.4522 51.9941L85.9287 54.3575L85.8648 54.3987C85.7186 54.494 85.6363 54.611 85.6059 54.7485C85.5789 54.8839 85.6244 55.0161 85.7457 55.1515C85.7782 55.1883 85.8128 55.2197 85.8486 55.2479C85.9428 55.3183 86.0468 55.3583 86.1616 55.367C86.3241 55.3767 86.4725 55.3334 86.6187 55.2381L86.6793 55.1948L87.8329 54.4225L88.356 55.0031L87.2025 55.7764L87.1386 55.8176C86.7931 56.0494 86.44 56.1404 86.0793 56.0927C85.8258 56.058 85.5951 55.9606 85.385 55.8013C85.2962 55.7331 85.2106 55.654 85.1294 55.5641C84.8532 55.2565 84.7362 54.9489 84.7698 54.6348C84.8077 54.3196 84.9961 54.0499 85.3395 53.8192L85.4056 53.7759L88.9323 51.4146L88.9983 51.3713C89.3417 51.1406 89.6926 51.0485 90.0533 51.0962C90.3057 51.1298 90.5386 51.2272 90.7487 51.3875C90.8386 51.4558 90.9242 51.5359 91.0065 51.6269C91.2805 51.9302 91.3986 52.2421 91.3628 52.5541Z" fill="#FDCD00"/>
<path d="M91.3628 52.5541C91.3271 52.866 91.1365 53.139 90.7931 53.3686L90.7292 53.4141L89.7555 54.0662L89.2323 53.4856L90.206 52.8335L90.2721 52.7902C90.414 52.6938 90.5007 52.5768 90.5288 52.4414C90.5559 52.3071 90.5082 52.1728 90.3891 52.0396C90.3566 52.0028 90.3219 51.9703 90.2862 51.9432C90.192 51.8706 90.0858 51.8306 89.9732 51.8241C89.8129 51.8121 89.6623 51.8565 89.5182 51.9508L89.4522 51.9941L85.9287 54.3575L85.8648 54.3987C85.7186 54.494 85.6363 54.611 85.6059 54.7485C85.5789 54.8839 85.6244 55.0161 85.7457 55.1515C85.7782 55.1883 85.8128 55.2197 85.8486 55.2479C85.9428 55.3183 86.0468 55.3583 86.1616 55.367C86.3241 55.3767 86.4725 55.3334 86.6187 55.2381L86.6793 55.1948L87.8329 54.4225L88.356 55.0031L87.2025 55.7764L87.1386 55.8176C86.7931 56.0494 86.44 56.1404 86.0793 56.0927C85.8258 56.058 85.5951 55.9606 85.385 55.8013C85.2962 55.7331 85.2106 55.654 85.1294 55.5641C84.8532 55.2565 84.7362 54.9489 84.7698 54.6348C84.8077 54.3196 84.9961 54.0499 85.3395 53.8192L85.4056 53.7759L88.9323 51.4146L88.9983 51.3713C89.3417 51.1406 89.6926 51.0485 90.0533 51.0962C90.3057 51.1298 90.5386 51.2272 90.7487 51.3875C90.8386 51.4558 90.9242 51.5359 91.0065 51.6269C91.2805 51.9302 91.3986 52.2421 91.3628 52.5541Z" stroke="#231F20" stroke-width="0.213333" stroke-miterlimit="10"/>
<path d="M88.7128 49.2024L89.2358 49.7839L83.4995 53.6249L82.9766 53.0435L88.7128 49.2024Z" fill="#FDCD00" stroke="#231F20" stroke-width="0.213333" stroke-miterlimit="10"/>
<path d="M119.18 39.8434L118.625 44.3266C118.418 45.9946 117.594 47.602 116.144 48.8844C112.565 52.0483 106.516 52.0418 102.636 48.8703C100.33 46.9846 99.3089 44.4045 99.6122 41.9577L100.169 37.4746C99.8656 39.9225 100.886 42.5015 103.193 44.3872C107.073 47.5586 113.121 47.5651 116.7 44.4013C118.151 43.1189 118.973 41.5126 119.18 39.8434Z" stroke="#231F20" stroke-width="0.0853331" stroke-miterlimit="10"/>
<path d="M116.156 32.9269C120.036 36.0983 120.279 41.2369 116.7 44.4007C113.122 47.5646 107.074 47.5578 103.194 44.3863C99.3134 41.2148 99.0723 36.0787 102.651 32.9148C106.23 29.751 112.277 29.7554 116.156 32.9269Z" fill="#FDCD00"/>
<path d="M116.156 32.9269C120.036 36.0983 120.279 41.2369 116.7 44.4007C113.122 47.5646 107.074 47.5578 103.194 44.3863C99.3134 41.2148 99.0723 36.0787 102.651 32.9148C106.23 29.751 112.277 29.7554 116.156 32.9269Z" stroke="#231F20" stroke-width="0.0853334" stroke-miterlimit="10"/>
<path d="M110.66 34.5566L111.297 35.2661L111.558 35.5564L112.457 36.5572L111.839 36.9699L111.204 36.2604L106.085 39.6875L105.562 39.1058L110.68 35.6788L110.044 34.9693L110.66 34.5566Z" fill="#FDCD00" stroke="#231F20" stroke-width="0.213333" stroke-miterlimit="10"/>
<path d="M108.847 32.54L110.237 34.0857L109.62 34.4984L108.751 33.5322L106.808 34.833L107.503 35.6075L106.887 36.0202L106.192 35.2457L104.251 36.5455L105.119 37.5117L104.503 37.9243L103.634 36.9582L103.113 36.3787L105.672 34.6662L106.287 34.2525L108.231 32.9527L108.847 32.54Z" fill="#FDCD00" stroke="#231F20" stroke-width="0.213333" stroke-miterlimit="10"/>
<path d="M115.672 40.5385C115.636 40.8504 115.446 41.1234 115.102 41.353L115.038 41.3985L114.065 42.0505L113.541 41.47L114.515 40.8179L114.581 40.7746C114.723 40.6782 114.81 40.5612 114.838 40.4258C114.865 40.2915 114.817 40.1572 114.698 40.024C114.666 39.9871 114.631 39.9547 114.595 39.9276C114.501 39.855 114.395 39.8149 114.282 39.8084C114.122 39.7965 113.971 39.8409 113.827 39.9352L113.761 39.9785L110.238 42.3419L110.174 42.383C110.028 42.4784 109.945 42.5953 109.915 42.7329C109.888 42.8683 109.933 43.0004 110.055 43.1358C110.087 43.1727 110.122 43.2041 110.158 43.2322C110.252 43.3026 110.356 43.3427 110.471 43.3514C110.633 43.3611 110.782 43.3178 110.928 43.2225L110.988 43.1792L112.142 42.4069L112.665 42.9874L111.512 43.7608L111.448 43.802C111.102 44.0338 110.749 44.1247 110.388 44.0771C110.135 44.0424 109.904 43.9449 109.694 43.7857C109.605 43.7175 109.52 43.6384 109.438 43.5485C109.162 43.2409 109.045 42.9333 109.079 42.6192C109.117 42.304 109.305 42.0343 109.649 41.8036L109.715 41.7602L113.241 39.399L113.307 39.3557C113.651 39.125 114.002 39.0329 114.362 39.0806C114.615 39.1141 114.848 39.2116 115.058 39.3719C115.148 39.4402 115.233 39.5203 115.316 39.6113C115.59 39.9146 115.708 40.2265 115.672 40.5385Z" fill="#FDCD00"/>
<path d="M115.672 40.5385C115.636 40.8504 115.446 41.1234 115.102 41.353L115.038 41.3985L114.065 42.0505L113.541 41.47L114.515 40.8179L114.581 40.7746C114.723 40.6782 114.81 40.5612 114.838 40.4258C114.865 40.2915 114.817 40.1572 114.698 40.024C114.666 39.9871 114.631 39.9547 114.595 39.9276C114.501 39.855 114.395 39.8149 114.282 39.8084C114.122 39.7965 113.971 39.8409 113.827 39.9352L113.761 39.9785L110.238 42.3419L110.174 42.383C110.028 42.4784 109.945 42.5953 109.915 42.7329C109.888 42.8683 109.933 43.0004 110.055 43.1358C110.087 43.1727 110.122 43.2041 110.158 43.2322C110.252 43.3026 110.356 43.3427 110.471 43.3514C110.633 43.3611 110.782 43.3178 110.928 43.2225L110.988 43.1792L112.142 42.4069L112.665 42.9874L111.512 43.7608L111.448 43.802C111.102 44.0338 110.749 44.1247 110.388 44.0771C110.135 44.0424 109.904 43.9449 109.694 43.7857C109.605 43.7175 109.52 43.6384 109.438 43.5485C109.162 43.2409 109.045 42.9333 109.079 42.6192C109.117 42.304 109.305 42.0343 109.649 41.8036L109.715 41.7602L113.241 39.399L113.307 39.3557C113.651 39.125 114.002 39.0329 114.362 39.0806C114.615 39.1141 114.848 39.2116 115.058 39.3719C115.148 39.4402 115.233 39.5203 115.316 39.6113C115.59 39.9146 115.708 40.2265 115.672 40.5385Z" stroke="#231F20" stroke-width="0.213333" stroke-miterlimit="10"/>
<path d="M113.023 37.1878L113.546 37.7692L107.81 41.6102L107.287 41.0288L113.023 37.1878Z" fill="#FDCD00" stroke="#231F20" stroke-width="0.213333" stroke-miterlimit="10"/>
<mask id="mask2_76_6646" style="mask-type:luminance" maskUnits="userSpaceOnUse" x="49" y="60" width="21" height="15">
<path d="M50.0484 65.1572C49.743 67.6051 50.7644 70.1862 53.0714 72.0709C56.9513 75.2434 62.9995 75.2488 66.5793 72.0839C68.0296 70.8025 68.8517 69.1962 69.0586 67.5271L69.6153 63.0429C69.4074 64.7131 68.5853 66.3194 67.1339 67.6019C63.5562 70.7668 57.5069 70.7603 53.6271 67.5889C51.3211 65.7031 50.3008 63.1231 50.603 60.6763L50.0484 65.1572Z" fill="white"/>
</mask>
<g mask="url(#mask2_76_6646)">
<path d="M69.6148 63.0412L69.0591 67.5243C68.8522 69.1923 68.0291 70.7997 66.5787 72.0822C63 75.246 56.9507 75.2395 53.0709 72.0681C50.7649 70.1823 49.7435 67.6023 50.0468 65.1555L50.6035 60.6724C50.3002 63.1203 51.3205 65.6992 53.6276 67.585C57.5074 70.7564 63.5557 70.7629 67.1344 67.599C68.5858 66.3166 69.4079 64.7103 69.6148 63.0412Z" fill="black" stroke="#231F20" stroke-width="0.0853331" stroke-miterlimit="10"/>
</g>
<path d="M69.6157 63.0441L69.0601 67.5272C68.8532 69.1953 68.03 70.8027 66.5797 72.0851C63.001 75.2489 56.9517 75.2424 53.0719 72.071C50.7659 70.1853 49.7445 67.6052 50.0477 65.1584L50.6045 60.6753C50.3012 63.1232 51.3215 65.7021 53.6286 67.5879C57.5084 70.7593 63.5567 70.7658 67.1354 67.602C68.5868 66.3195 69.4089 64.7132 69.6157 63.0441Z" stroke="#231F20" stroke-width="0.0853331" stroke-miterlimit="10"/>
<path d="M66.59 56.1293C70.4694 59.3009 70.7133 64.4387 67.1346 67.6024C63.5558 70.7661 57.5072 70.7598 53.627 67.5889C49.7461 64.4172 49.5052 59.2811 53.0847 56.1167C56.6635 52.953 62.71 52.9569 66.59 56.1293Z" fill="#FDCD00"/>
<path d="M66.59 56.1293C70.4694 59.3009 70.7133 64.4387 67.1346 67.6024C63.5558 70.7661 57.5072 70.7598 53.627 67.5889C49.7461 64.4172 49.5052 59.2811 53.0847 56.1167C56.6635 52.953 62.71 52.9569 66.59 56.1293Z" stroke="#231F20" stroke-width="0.0853333" stroke-miterlimit="10"/>
<path d="M61.0935 57.7578L61.7303 58.4673L61.9914 58.7576L62.8904 59.7584L62.2741 60.171L61.6372 59.4616L56.5183 62.8886L55.9951 62.307L61.114 58.8799L60.4771 58.1705L61.0935 57.7578Z" fill="#FDCD00" stroke="#231F20" stroke-width="0.213333" stroke-miterlimit="10"/>
<path d="M59.2737 55.7417L60.6634 57.2873L60.046 57.7L59.1773 56.7339L57.2341 58.0347L57.9295 58.8092L57.3132 59.2218L56.6178 58.4474L54.6768 59.7472L55.5455 60.7133L54.9292 61.126L54.0605 60.1598L53.5396 59.5803L56.0979 57.8679L56.7132 57.4541L58.6574 56.1544L59.2737 55.7417Z" fill="#FDCD00" stroke="#231F20" stroke-width="0.213333" stroke-miterlimit="10"/>
<path d="M66.105 63.7411C66.0693 64.053 65.8786 64.326 65.5353 64.5556L65.4714 64.6011L64.4976 65.2532L63.9745 64.6726L64.9482 64.0205L65.0143 63.9772C65.1562 63.8808 65.2439 63.7638 65.271 63.6285C65.2981 63.4941 65.2504 63.3598 65.1313 63.2266C65.0988 63.1898 65.0641 63.1573 65.0284 63.1302C64.9342 63.0576 64.828 63.0176 64.7154 63.0111C64.5561 62.9991 64.4045 63.0436 64.2604 63.1378L64.1954 63.1811L60.6709 65.5445L60.607 65.5857C60.4608 65.681 60.3785 65.798 60.3481 65.9355C60.3211 66.0709 60.3665 66.2031 60.4879 66.3385C60.5204 66.3753 60.555 66.4067 60.5908 66.4349C60.685 66.5053 60.789 66.5453 60.9038 66.554C61.0663 66.5638 61.2146 66.5204 61.3609 66.4251L61.4215 66.3818L62.5751 65.6095L63.0982 66.1901L61.9447 66.9634L61.8808 67.0046C61.5353 67.2364 61.1822 67.3274 60.8215 67.2797C60.5691 67.2451 60.3373 67.1476 60.1272 66.9884C60.0384 66.9201 59.9528 66.841 59.8716 66.7511C59.5954 66.4435 59.4784 66.1359 59.512 65.8218C59.5499 65.5066 59.7383 65.2369 60.0817 65.0062L60.1478 64.9629L63.6745 62.6016L63.7405 62.5583C64.085 62.3276 64.4348 62.2355 64.7955 62.2832C65.0479 62.3168 65.2808 62.4143 65.492 62.5746C65.5808 62.6428 65.6664 62.7229 65.7487 62.8139C66.0227 63.1172 66.1408 63.4292 66.105 63.7411Z" fill="#FDCD00"/>
<path d="M66.105 63.7411C66.0693 64.053 65.8786 64.326 65.5353 64.5556L65.4714 64.6011L64.4976 65.2532L63.9745 64.6726L64.9482 64.0205L65.0143 63.9772C65.1562 63.8808 65.2439 63.7638 65.271 63.6285C65.2981 63.4941 65.2504 63.3598 65.1313 63.2266C65.0988 63.1898 65.0641 63.1573 65.0284 63.1302C64.9342 63.0576 64.828 63.0176 64.7154 63.0111C64.5561 62.9991 64.4045 63.0436 64.2604 63.1378L64.1954 63.1811L60.6709 65.5445L60.607 65.5857C60.4608 65.681 60.3785 65.798 60.3481 65.9355C60.3211 66.0709 60.3665 66.2031 60.4879 66.3385C60.5204 66.3753 60.555 66.4067 60.5908 66.4349C60.685 66.5053 60.789 66.5453 60.9038 66.554C61.0663 66.5638 61.2146 66.5204 61.3609 66.4251L61.4215 66.3818L62.5751 65.6095L63.0982 66.1901L61.9447 66.9634L61.8808 67.0046C61.5353 67.2364 61.1822 67.3274 60.8215 67.2797C60.5691 67.2451 60.3373 67.1476 60.1272 66.9884C60.0384 66.9201 59.9528 66.841 59.8716 66.7511C59.5954 66.4435 59.4784 66.1359 59.512 65.8218C59.5499 65.5066 59.7383 65.2369 60.0817 65.0062L60.1478 64.9629L63.6745 62.6016L63.7405 62.5583C64.085 62.3276 64.4348 62.2355 64.7955 62.2832C65.0479 62.3168 65.2808 62.4143 65.492 62.5746C65.5808 62.6428 65.6664 62.7229 65.7487 62.8139C66.0227 63.1172 66.1408 63.4292 66.105 63.7411Z" stroke="#231F20" stroke-width="0.213333" stroke-miterlimit="10"/>
<path d="M63.4565 60.388L63.9795 60.9694L58.2432 64.8104L57.7202 64.229L63.4565 60.388Z" fill="#FDCD00" stroke="#231F20" stroke-width="0.213333" stroke-miterlimit="10"/>
<mask id="mask3_76_6646" style="mask-type:luminance" maskUnits="userSpaceOnUse" x="25" y="72" width="20" height="15">
<path d="M25.3593 76.8565C25.056 79.3034 26.0763 81.8834 28.3834 83.7691C32.2632 86.9406 38.3115 86.9471 41.8913 83.7821C43.3416 82.4997 44.1637 80.8934 44.3717 79.2254L44.9273 74.7423C44.7204 76.4114 43.8972 78.0177 42.4469 79.299C38.8682 82.464 32.82 82.4575 28.9402 79.286C26.632 77.4003 25.6117 74.8213 25.916 72.3745L25.3593 76.8565Z" fill="white"/>
</mask>
<g mask="url(#mask3_76_6646)">
<path d="M44.9273 74.7399L44.3716 79.223C44.1647 80.8911 43.3416 82.4985 41.8912 83.7809C38.3125 86.9447 32.2632 86.9382 28.3834 83.7668C26.0774 81.8811 25.056 79.301 25.3593 76.8542L25.916 72.3711C25.6127 74.819 26.633 77.3979 28.9401 79.2837C32.8199 82.4551 38.8682 82.4616 42.4469 79.2978C43.8972 78.0153 44.7204 76.409 44.9273 74.7399Z" fill="black" stroke="#231F20" stroke-width="0.0853331" stroke-miterlimit="10"/>
</g>
<path d="M44.9273 74.7419L44.3716 79.225C44.1647 80.893 43.3416 82.5004 41.8912 83.7828C38.3125 86.9467 32.2632 86.9402 28.3834 83.7688C26.0774 81.883 25.056 79.303 25.3593 76.8562L25.916 72.373C25.6127 74.8209 26.633 77.3999 28.9401 79.2856C32.8199 82.4571 38.8682 82.4636 42.4469 79.2997C43.8972 78.0173 44.7204 76.411 44.9273 74.7419Z" stroke="#231F20" stroke-width="0.0853331" stroke-miterlimit="10"/>
<path d="M41.9035 67.8271C45.7829 70.9987 46.0268 76.1365 42.448 79.3002C38.8693 82.4639 32.8207 82.4576 28.9405 79.2867C25.0596 76.115 24.8187 70.9789 28.3982 67.8145C31.977 64.6508 38.0234 64.6546 41.9035 67.8271Z" fill="#FDCD00"/>
<path d="M41.9035 67.8271C45.7829 70.9987 46.0268 76.1365 42.448 79.3002C38.8693 82.4639 32.8207 82.4576 28.9405 79.2867C25.0596 76.115 24.8187 70.9789 28.3982 67.8145C31.977 64.6508 38.0234 64.6546 41.9035 67.8271Z" stroke="#231F20" stroke-width="0.0853333" stroke-miterlimit="10"/>
<path d="M36.3991 69.4634L37.036 70.1728L37.297 70.4631L38.196 71.4639L37.5797 71.8766L36.9429 71.1672L31.8239 74.5942L31.3008 74.0126L36.4197 70.5855L35.7828 69.8761L36.3991 69.4634Z" fill="#FDCD00" stroke="#231F20" stroke-width="0.213333" stroke-miterlimit="10"/>
<path d="M34.5862 67.4468L35.9759 68.9924L35.3585 69.4051L34.4898 68.4389L32.5466 69.7398L33.242 70.5142L32.6257 70.9269L31.9303 70.1525L29.9893 71.4522L30.858 72.4184L30.2417 72.8311L29.373 71.8649L28.8521 71.2854L31.4104 69.573L32.0257 69.1592L33.9699 67.8595L34.5862 67.4468Z" fill="#FDCD00" stroke="#231F20" stroke-width="0.213333" stroke-miterlimit="10"/>
<path d="M41.4097 75.4384C41.374 75.7503 41.1833 76.0233 40.84 76.2529L40.7761 76.2984L39.8023 76.9504L39.2792 76.3699L40.2529 75.7178L40.319 75.6745C40.4609 75.5781 40.5486 75.4611 40.5757 75.3257C40.6028 75.1914 40.5551 75.0571 40.436 74.9239C40.4035 74.887 40.3688 74.8546 40.3331 74.8275C40.2388 74.7549 40.1327 74.7148 40.02 74.7083C39.8597 74.6964 39.7092 74.7408 39.5651 74.8351L39.5001 74.8784L35.9756 77.2418L35.9117 77.283C35.7655 77.3794 35.6832 77.4952 35.6528 77.6328C35.6257 77.7682 35.6712 77.9003 35.7925 78.0357C35.825 78.0726 35.8597 78.104 35.8954 78.1321C35.9897 78.2025 36.0937 78.2426 36.2085 78.2513C36.3709 78.261 36.5193 78.2177 36.6656 78.1224L36.7262 78.0791L37.8798 77.3068L38.4029 77.8873L37.2494 78.6607L37.1855 78.7019C36.8399 78.9337 36.4868 79.0246 36.1262 78.977C35.8727 78.9423 35.642 78.8448 35.4319 78.6856C35.343 78.6174 35.2575 78.5383 35.1762 78.4484C34.9 78.1408 34.7831 77.8332 34.8166 77.5191C34.8545 77.2039 35.043 76.9342 35.3864 76.7035L35.4524 76.6601L38.9791 74.2989L39.0452 74.2556C39.3897 74.0249 39.7395 73.9328 40.1002 73.9805C40.3526 74.014 40.5854 74.1115 40.7967 74.2718C40.8855 74.3401 40.971 74.4202 41.0534 74.5112C41.3274 74.8145 41.4455 75.1264 41.4097 75.4384Z" fill="#FDCD00"/>
<path d="M41.4097 75.4384C41.374 75.7503 41.1833 76.0233 40.84 76.2529L40.7761 76.2984L39.8023 76.9504L39.2792 76.3699L40.2529 75.7178L40.319 75.6745C40.4609 75.5781 40.5486 75.4611 40.5757 75.3257C40.6028 75.1914 40.5551 75.0571 40.436 74.9239C40.4035 74.887 40.3688 74.8546 40.3331 74.8275C40.2388 74.7549 40.1327 74.7148 40.02 74.7083C39.8597 74.6964 39.7092 74.7408 39.5651 74.8351L39.5001 74.8784L35.9756 77.2418L35.9117 77.283C35.7655 77.3794 35.6832 77.4952 35.6528 77.6328C35.6257 77.7682 35.6712 77.9003 35.7925 78.0357C35.825 78.0726 35.8597 78.104 35.8954 78.1321C35.9897 78.2025 36.0937 78.2426 36.2085 78.2513C36.3709 78.261 36.5193 78.2177 36.6656 78.1224L36.7262 78.0791L37.8798 77.3068L38.4029 77.8873L37.2494 78.6607L37.1855 78.7019C36.8399 78.9337 36.4868 79.0246 36.1262 78.977C35.8727 78.9423 35.642 78.8448 35.4319 78.6856C35.343 78.6174 35.2575 78.5383 35.1762 78.4484C34.9 78.1408 34.7831 77.8332 34.8166 77.5191C34.8545 77.2039 35.043 76.9342 35.3864 76.7035L35.4524 76.6601L38.9791 74.2989L39.0452 74.2556C39.3897 74.0249 39.7395 73.9328 40.1002 73.9805C40.3526 74.014 40.5854 74.1115 40.7967 74.2718C40.8855 74.3401 40.971 74.4202 41.0534 74.5112C41.3274 74.8145 41.4455 75.1264 41.4097 75.4384Z" stroke="#231F20" stroke-width="0.213333" stroke-miterlimit="10"/>
<path d="M38.7695 72.0945L39.2924 72.676L33.5562 76.517L33.0332 75.9355L38.7695 72.0945Z" fill="#FDCD00" stroke="#231F20" stroke-width="0.213333" stroke-miterlimit="10"/>
</svg>
